<mxfile>
    <diagram id="nwM_uvx9q3TxSQMq_WgG" name="Page-1">
        <mxGraphModel dx="868" dy="305" grid="1" gridSize="10" guides="1" tooltips="1" connect="1" arrows="1" fold="1" page="1" pageScale="1" pageWidth="1654" pageHeight="1169" background="#FFFFFF" math="0" shadow="0">
            <root>
                <mxCell id="0"/>
                <mxCell id="1" parent="0"/>
                <mxCell id="wwnRIKZaCLIZtP5zBh93-2" value="Virtual Network&lt;br&gt;10.8.0.0/16" style="rounded=0;whiteSpace=wrap;html=1;dashed=1;strokeColor=#3399FF;strokeWidth=2;verticalAlign=top;align=right;labelBackgroundColor=none;labelBorderColor=none;fontStyle=1;fontColor=#3399FF;spacingLeft=0;spacingRight=20;" parent="1" vertex="1">
                    <mxGeometry x="215.75" y="185" width="1190" height="695" as="geometry"/>
                </mxCell>
                <mxCell id="wwnRIKZaCLIZtP5zBh93-70" value="Other Services" style="rounded=0;whiteSpace=wrap;html=1;verticalAlign=bottom;fontStyle=1" parent="1" vertex="1">
                    <mxGeometry x="1026" y="650" width="350" height="215" as="geometry"/>
                </mxCell>
                <mxCell id="wwnRIKZaCLIZtP5zBh93-3" value="Public Subnet&lt;br&gt;10.8.4.0/24" style="rounded=0;whiteSpace=wrap;html=1;verticalAlign=bottom;fontStyle=1" parent="1" vertex="1">
                    <mxGeometry x="255.75" y="240" width="350" height="380" as="geometry"/>
                </mxCell>
                <mxCell id="wwnRIKZaCLIZtP5zBh93-4" value="DDoS&lt;br&gt;Protection" style="aspect=fixed;html=1;points=[];align=right;image;fontSize=12;image=img/lib/mscae/DDOS_Protection_Plans.svg;strokeColor=#999999;fillColor=#E6E6E6;labelPosition=left;verticalLabelPosition=middle;verticalAlign=middle;fontStyle=0;fontColor=#3399FF;" parent="1" vertex="1">
                    <mxGeometry x="185.75000000000003" y="150" width="60" height="81" as="geometry"/>
                </mxCell>
                <mxCell id="wwnRIKZaCLIZtP5zBh93-9" value="" style="shape=image;imageAspect=0;aspect=fixed;verticalLabelPosition=bottom;verticalAlign=top;strokeColor=#999999;fillColor=#E6E6E6;image=data:image/png,iVBORw0KGgoAAAANSUhEUgAAAMcAAAEHCAYAAAAamlLGAAAAAXNSR0IArs4c6QAAAARnQU1BAACxjwv8YQUAAAAJcEhZcwAADsMAAA7DAcdvqGQAAAAhdEVYdENyZWF0aW9uIFRpbWUAMjAxOTowOToyMSAxOTo1MjoxNP5oUCYAACduSURBVHhe7Z0JfJTV1f/PfWayQ0gIO7IoCoKo7IRFEXnta1trbbX690UBFyD8betSbd1a334qaheLthbBHVrXumtbFwiyJCSEsMoiyL4EAoEQss3yPPe958kdDcksz8w8+9yvn/nMvTcmzCT3N+ece8+5FwQCgUAgEAgEAoFAIBAIBAKBoD0Xzt+UP+n19f15V2AxEn8W2ICCHN8TXn/gj7wrsBjCnwUWc8krpWMyvZnl2PbLgdHLp49dq35BYBnCctiAKxZvyEn3ZLzLu+AFzz94U2AhQhw2IEiCb0uE9OZdkDzSoMsXV7zBuwKLEOKwmMmvVMzzEulK3v0Gj+S54fK/V8zmXYEFiJjDQiYvrrzFK5GXeLcdCqUBGoBri28d+REfEpiIEIdFTF605sceyfsGIZDGh8JCFcXnJ8ErVtxcuJIPCUxCuFUWMGlx+QwtwkCIJGWk0bSPL3ll/Rg+JDAJIQ6TuXxx5R/SpbSXtQgjhCSR3HSPvPLSlyr+hw8JTEC4VSYyefHaf3sl6bu8mxB+OfjL5dPHiI1CExDiMIGJL67rmpFOiyVChvKhpJBlZXHx9FHTeVdgEEIcBnPZyxUTvF7pfUJIFz6kC4qibCIUfrBk+qj9fEigMyLmMJDJiyqfSUvzrNJbGIgkSRdRQjbjcjAfEuiMsBwGoK5GEc+fPEQq4EOGosj0M7+UNWPlzUOq+JBAB4Q4dATTzb1++VXJI43nQ6ahUKWBKvTx4umj5/IhQZIIcejAyIVrsztmwRNpEpnJfqWZfNgSWCyyN0jhZ8unj/qYDwkSRIgjSS57qfIeKY0+aJYLpRVZoUsalQ4zymYMOsSHBHEixJEgk15Zd7tXor+RJNKHD9kOhdJGSuW/FE8b8wAfEsSBEEcc4H6F16v83ENghiRJZ/Fh28NikVOKDPPrvYEn1txcWMeHBTEQ4tDAhJfXFmZ64NdMEN/jQ46EUtrMrMk/5TTPb5bfOHwvHxZEQIgjCuqSLHju9EjSMD7kGhSFrqSB4Lzi28a+x4cEbRDiaMNliypv8ACdChKZIhGSzYddC3O5DigAHwVJ4A2RFn8mQhwM3GUmFK6VCEwiEunAh1MORVGOUSYUjyT/9fObxm7gwylLSopj0jsbz/LU+6cDla6UJDqGSFI6/5KAIyvKTqDkAyqT95bdOqKUD6cUKSOOKYvWXsXE8H2Q5CskyTOADws0wOKTOhbNL5dl8oXX0/j2kumXpESyo2vFcemiynES0O+xuGEyATpCkqQs/iXb0j8vC441+KEhIPMRe8Lcr8OUwmo2fZYEpKwP3JrT5QpxXP5S6QhZShvvIVIhE8IwQuBcLC/lX3YMM4f3gi/21cLOE418xBkoClQpVC5n06mUuWLFy2aMrORfcjSOEsclf6/oSZphqCeNjCISDAegQyUg5zhRCG35r7M7w6V98+CTXTWwqboe6v32th7RQDeMBfabKVXW0iBsTstQKp0Y4NtOHJNfqRzJgsFBHg8MlCj0A4mcw0TQmxCJPaxN6jOKs/My4ZaLe6ltFEdTUIHNTCBBhU0xF4FJkewd7VVA2UkUsi0okY1SXeaa5T8dWs//F1thuDimLNpaECT+npIS6CUr0IV4aG8P8XQlitIVCCmghHRmk7+zBNCTWYA8/m0pQ6+OGTDtoh6Q7fWo/f8wcTB/Hur8Qdh6rEEdcztUUWrZez6kSHAAFLKL9Xc0BnzrCfEy/5I2SkRp9MsZ+MtorJw9yjSfM6I4Jr24diKkyecS6smmoOQQGbKJR8qiBLLZZ0CmB1ibAgty8dOcZrKJnkkoqG32CZ/LfkQukUinlp8mCEf3DulwK7MYWd5vCzJD4kCONwXga4fFH3rgZx8M/kCQ99qjUHqCTdwaNveOsd5JAqRGYX1CSS2b0U3qQ+HPUkubUuaQR0Ahcn1F0cR2B3dHFMeURWtLrCjaSRV6qxaj5xnCQNCtau1NVdX7YN+piH9X1yEz96Kp2c975kAp3VhWNKFdipCoIbeAs5gwZlzcXhhIyGqE6NkhA87Nz4r8KeYiWCBvujCiIcRhMiN75sItw3pBhif8r56EUUGX7HQY0rUDeCX3SoR9ettKGIgQh0ngxP7JkO7ww4FdIC3KJG9rOUJ0TPfARd07QId0Lx9xEexNN/sCqkDshBCHCfTtlAmzRvSGC7vm8JHIhLMcIdIlCYayn4GulpvwB2Q11rAbQhwGgjHFtYO7we3MjeqRoy23UctnZz8mtqHdOkBmmJjFaQSDctSVKSsR4jAIdIHuHNMHLmaTOB60RhUd0jwwrHtHddUrmrWxMxiAoztlV4Q4dEbduxjWE647vxtkswkcL/F63X1yM1WRdGVBu5NoCcB9vGdPhDh0YlBBjro8e8fIs6B/p8QTgBMxArjyNSA/Cy5mIinI0nyzgXWowsAAnPdtihBHEuBEHtwlB+aM7A1Th3aHc/KSz4pPZsJgjHNe52wY0aMjnMUsSnqE5WKr8fmDmGfFe/ZFiCMB8jK9cFn/fPg5iyluvKC7rqtHesQPKArcaESRDCzIhk7s9doFDMAD7OEEhDg0gnN2EJtoN1/YA+4e2xcu75dviAujt6vROTMNBjOXD10uTHK0ciMRrYWdA/C2CHHEAFeDsNbirrF9mOvUQ3VbjJxeRq08ocvVl7lao3rmqu+hS3YaeExc5qJqaohzhIEIcYQBXZHvn9cF7insC7NH9FaLkPLZJ7AZmBGjosU7Nz8bRvbqCOezmAlX2AyNTzAA9/nZk80j8DZE/OhIpaxcXAYd0DkLzsvPUuu4o6V3GE3rlHWzwSKr0yxYrvMF2bMMPtbXA3SlMNawK5GyclNOHFlpHujFPikxiO7JXKY+uRmQl2GfgLVtyrqV+GUUi6wWXjWw50RKdwMBJjK/vd2plBRHDyaCbjnp0D0ngz3SWT8Ncm2euGel5YiFwpy+xoCiiqSeCwatTSSsqM1IBFeKA61AboYHOrFP/o5s0uNz15w06MaCTaftGIewszjCIbMX28wEgiJpZq5TExMPthsCQWhsdEacYVtx4ARP9xA14xSf01hgmIF99oyPUDsn3aOmbXfgz2YFyGZjJ7cqUfDl+1icgWJB4cjsDaGI8BnfW1BRICBTCLBnPz4zC4P/n1VYKo7vntsF+nXKUNMc0rgQ3JBRagRuEIePWY1Ed8DxxBVMSFRFxAUVDlws2FmjzwEUkcRhygztxlydXiwAxiVE9PmFMCLjJJcqHLj7nUxqCG5SprP5kZkmqV4C7u6He3Rk7rTRiFkq0A2ZiSIoO/cwurYIcQh0QWEmz65FS4kixCFIGsr+w7Om3IYQhyBJ0GLIqkDchhCHICmSDcDtjBCHIGFaAnB3CgMR4hAkhBsD8LYIcQjipiUAd1ZtRiIIcQjihILPjwG4+xHiEMSFujJF3RtntEaIQ6AZTBjEIDxVEOIQaEJm1iLg8gC8LUIcgphgTUYggSpApyPEIYgJpqC7cQc8FkIcgqjgXoYTqvmMQIhDEBFMDUmlALwtQhyCsLitNiMRhDgE7cBTRvBInVRHiENwBhhd+H2pGYC3RYhDcAZqAC6EoSLEIfiGQNAZ92aYhRCHQMXttRmJIMQhSInajEQQ4khxWmozhDDCIcSR4vjV2gwRgIdDiCOFwSxbJUVqMxJBiCNFUQNwsTIVFSGOFASthQjAYyPEkWK0BOAiNUQLQhwpRehwBBGAayGiOCiNfHeHwJkEgkrKHI6gBxHFQYj4eHETGHynegp6vAi3KgXAADzVDkfQAyEOl4MlriIATwwhDlfDAnCRgp4wQhwupuV0QiGMRBHicCkBJbUPR9ADIQ4XgqcTBkUNeNIIcbiMVD2d0AiEOFyGCMD1Q4jDRaTy6YRGIMThEnD3WwTg+iLE4QJQFHh0p0BfhDgcjjid0DgiZt5OWbS2RPJI43k3KaZf3BMG5GXxnqA1J44dhdrjx2D3ti/h0N5dcLim9ptw2ldbAxl5BbzXQocefSEtKwdy2HNO97OAZOdZEoDLviao27cDGqsPQLCpARqPHuRfCU82e61e9rqzu/WB9E6d2Wvvw7+SGE3sA2Hd4TreSw4Wp20sK5owjHe/wXJx/Grq1bwVmczsHHjg6RfUZ6P4/J3XYMm7b/Bee84+/wIo+vXjvJccKIht69ZAxfIlULVvDx9NjIxOBZA38GLoMXoKE1IXPmoMDUcPwPFNpVC7YyP4TtXw0cTp2Hcg5PYfBHnnXRy3WMwQhyPcqubGBnhzwVO851xQFG+x9/H7u2bCh4ufT1oYCE7SoxXFbNKu5iP6ghbi+ObVsPFvD8KWFx9V/y09hIGc3r8DDq34SP25+PNP7tjAv2IPHBNzbK0shy1ry3jPWaC4UQwoisqVxXzU/qAoNvztAdj90Su6CSIS+PMbjxzgPXvgqID8rYVPqxPNSaC1WPDog1Dy6Ud8xP6g+/Tli79TRSE3N/HR1MNR4nCae3V47254+sG7dHGfzAJjiu2vPhkzwE4FHLeU6xT3CoX81nPOsnRoKXZ/vCilrUVrHLFa1RYjVq/0Xq1a9Oe5qpC1kJmVDSMvnQIDhlwIX9E8yMzvyr/yLbjJd2L3VmisPggNVfuhdudGNVgO0XviVdD70h/wXvygMDDGiJf03M7qqlNmXhfI7tEHPBnt/85+Fk+gq4YxBb7+1q+7NfG8B7GUG4UhI8fC9Hse4r3k0VMcu7Zuhufmxn5tKIorrvsfmHjlt7+D/3xd027XAnfAwx3Chqs7xzaWMKFsSkoc8QoDBYBLx3mDhiW0XxFaEj751Qbw153go/YTh+PcqhB2dq/WLl/CW5FBYcx++LEzhBGOaNcD5A8cBgN/cgecP/WedpuFWsGlVK3CQFHgBB7208fVSZzoRh5+X78rblB/Dr72jn3O41+xF44VB2LX1aut69bwVmSmMavXq/85vBeeltMJY58akttvEHS5KH4jX7fvKzi06mPei05Wt94w9LaHVVGEc50SBV/74JvvhfOum5OwwI3C1uLo2bc/5BW0979DoDA+e/s13rMHuEIVS7AjJk5W44tYqDXgBqWGoN+/851neS86BUMLYcjN9xm6A49WMBGBG4mtxXHy+DHVJ48G7h+gj28XmjRYss7duvNWZDAAN/J+vr2fvqFpVQqFMeDqW3S1Fk7B1uLAT+BRl05RLUg0/umwzcFe/aK7U+r1AAaeTojuVM2XseM1dKVQGKmKI2KO62ffxVvhOXm82nbuVTQO79vNW+3BSj6jrwc4sib2ggEu0aIrlco4QhwYuE747+hLfHZzr6KB6enhwOgCa8CNxFd7XF36jcU5P5iRkq5UaxwhDuQ7LPaIFpwjdnCvesdYgUJQHOGEjDEGWg4jOVKxlLcig0uruIqU6jhGHLgbfn2R/d0rfJ2xYiRk8bzH1JWtELifYcbZCFiLEYtENxPdhmPEgeDypxPcq1GT/ou3IoMWbuHch9SNTLQWimK8MnBnOlbqOQbhwmq04ChxIE5wr3DXO9ZrRPA1ogXBPKyTx47yUePA4qJYCGF8i+PEodW9WvmfD3jPGq6eNpO3YoMls3/6xWx4G7N4WcBsFHV7t/NWZIQ4vsVx4kC0uFeYRNjapzebC0YVxnyNbVm/ahlsnP8Q7Hh7vroXoTdaNv1wp1rQgiPFgWhxr7CewkrQemCqSLxg0Lz91T+r1Xh6iuT0gZ28FR6MNwTf4lhxaHGvsAIPU9Gt5IY5d8dtQUJgNR6KZNs/nlT3J4zGm5HNW/ETSmLU42HGe9WCY8WBOMG9QtCCTLv7QTVNPREwkEZ3a9/nb0YsFIpFot+nldP7Wk4S0eNh9GEOWjFFHNUNAThc7wv7iEW472n9uPC710LHztGzRV999qmw39v6cTrGsf1+WQn7fVof+ecPhxmPzYdBYy7hPzF+8FgcPMKmefdm6JjujetBaw7xnxKZHPZ7DPe9Wh7pHv2mUnaaJ+y/0frRgT2MxpRKwBz2Zi/s1oH3zmT5I9ET2yb99mXeikztnu2w8ZXf8154+l32Q+g/+Rrea8/eZe/Dvi8ir3B16jcQht36AO8lRrMfT0FXWlwQ9gkZKwaIxnAWy1x10+2aS4VxV/7Fxx/mvfD0H3QBzHxoLu/Fx9J3X4fi99/kveS47YFH4ZzBQ3kvPMcb/fCHlfp4BK6rBGxN3tnnQ+/CK3gvPDjx66v28575+IMtwkBCBT7nXDVdTfBLBFzZeuGxhzXv52RmJx5PpCquEAeCVgGPxozG9vdf4C1zwRR0mbllbcHiHiwVTVQkVfv3aBZIrDR5QXtcIw5vZjac/6PbeS88DUcOqO6TmeAF+bFS0EMiwVJRdG3iIR6BxMLX1MhbAsTDn9txzo9m3UYkktxR2BwM1rrnpPPemUTz85FocUJbMvO7QLC5EU4fjOyLokC6Dh2jnlTemtq92+HU3sh7Cpl5BdBjeHzBdEsNuPaipayCHjD12quh//lD1XSS2ppj/CvRqT9VC0G/HwZeNIKPhGfdiqXQHEUA+HNw9c+bFv5vFY38Lt1g8MhCGHHJ5TEf61dFPxIV/5/8rt14LzyNARlK9p/kvaQ5evDjlxbw9je4xnKEiOVeoXi+ev9F3jMSCj4mjERqwDEYxcB46p0PaMrRQko/+zhinUiIPDaBYxHrZ0Qiv2t39XVreTgF14lDi3uFFuLg6s94zxhaLshPrgYcz+b62dynYNiEy/hIdIrfi3zuFqJlYlZFqVJMNVwnDkTr6lXTSW1uS7wEMQDX6XAEXKr9yey7NAlkz/Yvo2b39tQQlGMSpKAFV4oDide9QoujBxiABwwodUWBaAnWo01uTZaDBfiJulZuw7XiiNe9wuvEkkU9HMHAC/InxDgdEWlqqOet9qAVOn/4aN6LTMkn1qb72wXXigMx171iATizGEYdwoZgDBKLWJ/6F4wax1uR2b6+IuoJKamCq8WBaHGvdn3yOu8lTksAbkIReJLgMqmWFbBXn37C0mpKO+B6cWhxr2q2r4fj29fxXvwEFGddkI8CiUXt8Wr4+B/WZBTYBdeLA9HiXh3dUMJb8SGzADzIrIYZaAmUe/U7m7ciM+XHN2qyHpi/haW7qUpKiAPR4l7FC7pRgTYBOGbcqnfpGVA/Ufrph7wVGdyM08K1s+7kreikskBSRhxa3Kt4iRSA430XX77wu4RuSorEupXFmvYgBo8Yw1vRwWXd8d+5iveigwJ55uG7U26JN2XEgWhxr7SCyYTRAnCsZkMLgsVJ6t3dCZZ+YlCMdRLvPP8XPhIZ3AfRajmQ7990O/ToE/sAOgT3P7AeBJMcE9koxM1JTHH54z2z+Ij9cUWxUzyg+7R2/m/iLsVsXeyEJ6DjFQHhQLcK677Dkd39LMgfNFy9Qw9vNwp3Fu01g7vDieqjcOTAPtiydrU6EbWuGmkpEmoL/uzn5z7E/r29fEQbuGeCV8H16j9AfQ5H1f697L0cgb3bt6ji0opdip1SThyIlsrBtoTEEel+vhDRxBEOFIyHH2yAF0smWj+NLhJagkRIVCBGISoBLSRR90oNwHVemcITRvAABXwkKgx0jRIVBoJWALOAteyepxIpKQ4k1upVOIzeAU8EnNCJ1n23BgVy890Pwfen3sZHrMMuJb0pK454V69aTkG3lzAuv+YGdULjxNaL8f/9A7j3yYVxVyQmS0ZWtvp+8N+2S0lvyooDicu90qiLnB591euIjbz4BdPXcRLhZp4R4IoXWiP0/Y0WieoSMmv1y3nPq+8nntU2o0nJgLw1Wlev8EIXPDEkHvASfQzQG48cSOoYHgTdpwFDLlL3McyeQLgMi6tmlSuW6hK043vBBEhc5Ur0vaTEahWuHEUDP92tQmHmwu/TL85AoagrUrU10HB0/zcHOwd9jd8cxVmQ3VK/jas1WTkdoEffs9WUED1dp2TAlS3cDMSKwRNY5368JaMZc7Gw5h3do57sNYfA+AHdpLMHXwj5XbrqJuyUEIddQTn4fAHdhKEV3OewWWhjS8RSroWoO+AmC0NgL4Q4wmD0BfkCZyDE0QajL8gXOAchjlbgXobRF+QLnIMQBwfjC79fCEPwLaaIA89xsjtqDbgNAvCIy4eCM2g08JSXECaJw96rPnjOlAjAnUVT0Pi/lynikJk27LosqgbgQhiOoylCPY2emBZz2NF6iADcuZz2Gf93M00cPhPMYDyIANzZHGvw85ZxmCaOepOOr9EGWgx7BOCCxDhc18xbxhFRHFQiuv7rDSasLmglwKyYCMCdzZF6XS1H2Lke2XJQWstbulBvE3GIHXDns7+2Sb36WkdO8ecziCwOBXQVBy69BS1ONxUBuDv46ri+Z/gSQuITB5WobheuhTjZFOAtaxDCcAdfHY98zUIi0AheUkRxKDJJ7BSyKNRYKA6fekG+CMCdTm1zAPaf0jcYZ7MirCGI7FYRqrs4TjUHLXGt1B3wJO/nE9iDioNhPaDkoPRr3jqDyG5VkFbypm6gLMx2rcQOuHtAy19xWH9xUI93M2+eQURxrLh9zHpFUXTfaaluMK/0VMsF+QLnsLOmAWoN+HCVTisbefMMIrtVDCbUHbypG6eZ71/nM34pFT9ljLyfT2A+K/bpvkaE82RP2S/Gh70vIqo4gJJNvKUrh0/7eMs47Hg6oSBxDtU1w06dl3BVCEQ8Mj665QBlLW/qyilfEBoMTCdBV0qsTLmLJbuOG/JRx6ZJMW+2I7rlkDwRvzFZDhiUG6PnBfkCe4A74luq9d3bCEElz+e82Y6o4lg2bcTGoCLv511dqW0OQq3OaccoCiMuyBdYy4fbj/KWvjDv4uCaWYURLw6JbjkQBT7mLd3Ze7JJPVVQD0RqiDvZcKRO902/VvyHP4clpjhkQg27b7dZVuCoDtmVojbDnQSYJ/Dvr1qOGzUCIsE7vBmWmOJYMX3MekVWDLvy52CdL8kMS1Gb4VaWfF2jposYAXOpqlbPmvAp74YltlvFkEExzLWSmTu0i7lXiU5uUZvhTrCYafneE7xnAJS8yFsR0SQORZb/QqlxMxCXdqsScK9EbYY7kRUKb31ZpcaRRhGQ5Od5MyKaxLHi1nE7KSURl7z04AALuuLZ+xABuHtZurvG0I1iqsDSytmXxFyF1SQOxBeQH+dNQ8DPiK9PNKpuVixaAnBra0MExrDtWD0s3aV7QvgZUCCP8mZUNItj1W1jljNzt553DQGrBWPHHxR8fgzABW4Dg+/XNx029G/LAvGy8jnjvuDdqGgWB8I8/Cd50zBONAXgUBSTqq5MidoM14HLtn/fcAiaDT7CiVLpAd6MSVzi+GLa2FcVWdnHu4aBy7snm9vHEyI1xJ1gHtwbm6rUuNNI2L+zSqvVQOISBxIkwbt401B2svij9XmoMrMWIjXEnXyy8zhsPnqa94xDlujPeFMTcYtj+bTC92VZ0ay+RMHVqK0sOMMNQkwxCYjaDFeyvqoOlu2JfpOvHrD59FrFrIkbeFcTcYsDCfi8t1KFGv4xHlCYQI43QBOLQ8QOuPvYdKQO3txcxXvGwdwpXwDS47snm5GQOFbOGrZHVozLuWrNyfpm2FJ9GpgY+YjADeDxOq+xOMPIjb5vIfPWFY2OW4UJiQPxSt57WRxgqD3EZELmwkGdLwg7ahr5qMDp4KFsi9cfMkUY7N84VBfMncu7cZGwOD6fNqxBpuQmqhjzkR4MymfsgOO909tZDGLKB43AMPCQhEXrD6ousxkQQqZu/enQhCqlEhYHsnzayE/YZH2Jd3UD9dbMvMS21DQGVHMsBOJMvjx6Gl5ed9C8u1ooXVg2e/xy3oubpMSBLN09chaLP3bzbtLgmndTc+QkRCEQZ7LpyGlYvOGQacJg82i/n2Tcw7sJkbQ44LdECQaVa5hvp0umWHNzQBVINFAgO4w4iUJgCOUHa+HVjYd4zyQImVY5e1RSgWry4mCsuHX0ZjkAD/Juwvj8Ac074BiDbDlar6Y3C+wL1mS8s+WIqQvx7LP1l8m4UyF0EQfyxa0j/8wm9ru8GzcYgAfiPK4HE9VwZ9VvcD6OIDH+taMa/vVVNe+ZA1Xou2VF4//Iu0mhmziQ4syR1yuysoV3NYOVfOECcC3gjVEbmT/bZOA5WIL4wKyGResPwfI9BlbyhYFZjO3QSG7i3aTRVRxwPZH9Er2CxQya9z9wc68pyTph/GNgwFcXJllRYC54UPiza/arG7dmwubcaVny/DDS0Z6JoK84GCtvHl3FrMdPNKWX4MqUzx8zANcCroLgUmGVCUeNCsKDh689vXqvenSnmbD5EyAAV1XMGqvr2c66iwMpnjF6GYs/fsm7EWn2B9U9Db3An7T7RKO6kmXQ3qQgAmsO1sKzFfuh0RL3lsxcXTRhBe/ohiHiQJbNGD1PVuQneLcduPuNQbgR4B3VIlA3B1wtfHvLEfVhxcohsxpzWQC+iHd1hVkjY5m8qOJ5r8dzO++qYL5UtI0+vUiTCAzq2gE6ZXr5iP350eDu4BSjV9Poh9c3VcH+U7q5+XFBgb5ZNnvC/+Nd3THMcoRYNn30TDmofMC7EVNDjADzd7YwC3LI4AqzVGRDVR08VbrXOmFQ+llZ/vipvGsIhosDKZ4x6hpFpsUYeKPF0CMA1wr+S3tZoLitWmwY6kEzc4Vf3XQYXmMPH/MArIBNn4rjvq5X4+ooHzIEU8SBLJ0+cgoTxr/MFEZr8OAG/LQT+yGJs7e2UbUWG9nv0SrY/NnalJH1na/vHGj4sqRp4kBKZo67Cv1E3jUdPNliQ9VpOFovlnvjAesu8KC1BWv2qx8yVsGEsUvy0is23jI87L3hemN4QB6OwgWrXidEMiyQ0kJeZhqcV5AN6V5TPx9iYreAXA26N7Ogm7mmVsKEsbM5LWvChttGGHfsehssmRllRRNvZO92Me9aAuZlrWPuQbUOVyC4lW+CbuuFsRU8pNBMYSCWWI4QhQtKniOEzORdy0ArMrBLDqR5LP11qNjBcmBc9u62o5bGFiGYMDYFSMallbNHGXA7f3Qsnw3jFpbMYy/DlLOwouGVCJydnw3dOqTzEWuwWhx49957W4+odftWw4RR3pSRfaVZMUZbrP+oZBQuKL2P/Sp+z6yI5a+nc1YanNs5G9IsikWsEgeecP/2l0dMTxiMBBPGsowM//eW3zLZsk0qW4gDGfNsyXXsw/s1po80PmQZuLM+oCAHCrLNfylWiKPy8Cn4+KtqNf3fDmBNRsYR/w3LfzvZUvNlG3Eg4xaUXEoJfEiAdOJDlpKb4YVzC7IhK83DR4zHTHGg64SXxNip5FgBuqh89oQZvGspthIHMvq58oEeJbiUWZCz+JCl4C+oZ24m9OmUqcYlRmOWOFYfqIVPdlSfcR6xlTA3igIlD5XNGW/oPTDxYDtxIKOfKe/h8QY/ZQK5iA9ZDrpa/U0I2I0WB+5yf7Ct2vSai2gwXTDTRW4sKxr/ER+yBbYUBzLp5WWZvub0V4lEfsyHbEFHdLVYwJ6dboyrZZQ4TjT5YemuGqg4ZPqKaFSYMA7Lkvc7FbPGxl1ebTS2FUeIsQtKfiURErEuxApCrlZf5mp5dHa19BYH7lks23MCVu47YbvESyaMcqLA1av//wRzT2HQiO3FgYxZUDZZAvld5mbl8SFbkO6RoF9elq6ull7iwHyoMhZXfPr1cVsmW2KOXQAybq6cPcq6ZK0YOEIcyMiFK/umUenfTCAX8CHbgKtZKBI9ln71EMfW6nr1WBysiLQbzFowpZJ7WXzxFB+yLY4RB1L4ZGkW5MBiQuA6PmQrOrA4pC8TSX5W4iJJRhx4evnnu45bngsVCWYtTikEfrxm1oRiPmRrHCWOEIULSovYr3oesyKZfMhW4P4IWpLcBMpzExHHgVNNzFIcUw+XsCvMYlQqkueaNbMKD/Ih2+NIcSBjni0bIhH5QyaQAXzIdmBCY7/8LNWiaCUeceCRqBhT2CFBMBJMFOzdkD9nVPnut3rHO14cKw4E3SyaQ1+RCLmeD9mSbjnpqiXRUjuiRRxYY1G8u0ZN+0g2PjESpouTlEo3lM8Z9zkfchSOFkeIcQtLbmVv5UXetSVMwNA7NwN6dsyMmhofTRz1/iAs2VWjrkKZcStSMlCqFCuSd7qT3Ki2uEIcSOHzpeeCDG+xOTicD9mWgux0JpKMsEcGhRNHAxPFin0noXT/SfDZ/CwuZi1Y4EPuLysa/1c+5FhcIw5k0iPLvL6e6f/LmvezWMS8bMEECRe4txYHnju7igkCTxO0uygQDLoloDeUFk3cxYccjavEEWL0glXjPEDeYALpy4dsTevAHcWBBUclTBROuqCHuXn3lxdN+D3vugJXigMZ8syXHXK9dU8zN4vFI84ARYIu164TzhEFsxZbFOq5fs2cwq18yDW4Vhwhxj1XchVV6IuESN34kEAnmDDmlhVNeJh3XYfrxYFMnL8yX5akp/CeOD4kSAImij0UpBvLi8aV8yFXkhLiCFG4oPRK9qd9hcUi3fmQIE4ohfkBkn5fspdROoGUEgdy8cvr8zL9jU9JQKbzIYEGmLU4okgw1Sl5UXqQcuIIgVaEAn1BIqQ3HxJEgAL8rSk962GrjsixipQVB3LR4g05OU0NjzJX4efM1bLXuaA2QKG0hFLPLDeuRGkhpcURYvSCVaM8AC8zfQzlQykNc6EOKBTuWTNnwtt8KCUR4gjxFvWMPVl6H6HwCLMitkyFNxomCjx+/k8ZGf5HrTxMzS4IcbRh3Asl/WgQnmQCuZYPpQRUgaWKR5q5ZlbhHj6U8ghxREA9YA7gWSaSIXzIlTBrUQUSuaNs1vj3+JCAI8QRjUeoNLZHyW2EwKNu22FnogiyP/9TAZL+SCrsWSSCEIcGxjxdlitlBH/HBPJzPuRoKIVSWfLMsuNZUXZCiCMORv1tTR+PJ/Anu1ceRkKhdB1Q6dflc8b9mw8JoiDEkQBjnisrlBTlL8zdGs2HbA1zobZRkB4uLxr3Lh8SaECIIwnGPVtyIyXwBxa02+LQ67ZQqlQzS/Fg2Zzxti4htitCHDrARHIvleBhu1ydwCwFlqrOhQaYV/aL8fY8xMoBCHHoxOi/lhd40uXfspk5m1mS+A+s0gEmCiywXUQU+JVdz591EkIcOqMe9KDQR5gVuYkPmQLTRTn1eO4on1lYyYcESSLEYRCj5q8a5JWkR9i0vYFZEsOSGhVKl1DwPLamqHAZHxLohBCHwYx9fvVgSVbu17sKkQXb/5IB/reiaOJaPiTQGSEOkyh8trQ3kei9LCqYySxJDh+OG6rACpDgN2Wzxy/nQwKDEOIwmZEL13bygm8OoXAvE0kBH44Kiyfq2dPfqUf6a/nMcdtaRgVGI8RhEXjOL8mmd1CiHkAXViRMFDWU0HlByHymcvYoe91XlgIIcVjM+BdWdVSC0n1MCj9jIlFvrmKiwFqKl5sysh9MtdJUOyHEYSPGLlz9XQmUnsRD/1l6+8TTfFggEAgEAoFAIBAIBAKBQCAQpDgA/wfbZyAJFoDeOwAAAABJRU5ErkJggg==;" parent="1" vertex="1">
                    <mxGeometry x="265.75" y="253.5" width="55" height="73" as="geometry"/>
                </mxCell>
                <mxCell id="wwnRIKZaCLIZtP5zBh93-16" value="Private Subnet&lt;br&gt;10.8.0.0/22" style="rounded=0;whiteSpace=wrap;html=1;verticalAlign=bottom;fontStyle=1" parent="1" vertex="1">
                    <mxGeometry x="645.75" y="240" width="350" height="380" as="geometry"/>
                </mxCell>
                <mxCell id="wwnRIKZaCLIZtP5zBh93-30" value="" style="group" parent="1" vertex="1" connectable="0">
                    <mxGeometry x="840.75" y="250.5" width="145" height="333" as="geometry"/>
                </mxCell>
                <mxCell id="wwnRIKZaCLIZtP5zBh93-31" value="" style="group" parent="wwnRIKZaCLIZtP5zBh93-30" vertex="1" connectable="0">
                    <mxGeometry width="145" height="333" as="geometry"/>
                </mxCell>
                <mxCell id="wwnRIKZaCLIZtP5zBh93-32" value="&lt;font color=&quot;#666666&quot;&gt;Kubernetes Cluster&lt;/font&gt;" style="rounded=0;whiteSpace=wrap;html=1;strokeColor=#666666;fillColor=none;dashed=1;verticalAlign=bottom;" parent="wwnRIKZaCLIZtP5zBh93-31" vertex="1">
                    <mxGeometry width="145" height="330" as="geometry"/>
                </mxCell>
                <mxCell id="wwnRIKZaCLIZtP5zBh93-33" value="" style="verticalLabelPosition=bottom;html=1;verticalAlign=top;align=center;strokeColor=none;fillColor=#00BEF2;shape=mxgraph.azure.virtual_machine;" parent="wwnRIKZaCLIZtP5zBh93-31" vertex="1">
                    <mxGeometry x="22.5" y="11" width="100" height="74" as="geometry"/>
                </mxCell>
                <mxCell id="wwnRIKZaCLIZtP5zBh93-34" value="" style="verticalLabelPosition=bottom;html=1;verticalAlign=top;align=center;strokeColor=none;fillColor=#00BEF2;shape=mxgraph.azure.virtual_machine;" parent="wwnRIKZaCLIZtP5zBh93-31" vertex="1">
                    <mxGeometry x="22.5" y="100" width="100" height="74" as="geometry"/>
                </mxCell>
                <mxCell id="wwnRIKZaCLIZtP5zBh93-35" value="" style="verticalLabelPosition=bottom;html=1;verticalAlign=top;align=center;strokeColor=none;fillColor=#00BEF2;shape=mxgraph.azure.virtual_machine;" parent="wwnRIKZaCLIZtP5zBh93-31" vertex="1">
                    <mxGeometry x="22.5" y="189" width="100" height="74" as="geometry"/>
                </mxCell>
                <mxCell id="wwnRIKZaCLIZtP5zBh93-36" value="" style="aspect=fixed;html=1;points=[];align=center;image;fontSize=12;image=img/lib/mscae/Kubernetes.svg;dashed=1;labelBackgroundColor=none;strokeColor=#666666;strokeWidth=2;fillColor=none;" parent="wwnRIKZaCLIZtP5zBh93-31" vertex="1">
                    <mxGeometry x="47.5" y="268" width="50" height="48" as="geometry"/>
                </mxCell>
                <mxCell id="wwnRIKZaCLIZtP5zBh93-38" value="" style="edgeStyle=orthogonalEdgeStyle;rounded=0;orthogonalLoop=1;jettySize=auto;html=1;endArrow=classic;endFill=1;entryX=0;entryY=0.5;entryDx=0;entryDy=0;strokeWidth=2;strokeColor=#3399FF;" parent="1" source="ZrnuHC9si-MEyVBBdssQ-3" target="jAgd3h_OqQaY9aVYYnGA-13" edge="1">
                    <mxGeometry relative="1" as="geometry">
                        <mxPoint x="595.7500000000001" y="417" as="sourcePoint"/>
                        <mxPoint x="469.75" y="370" as="targetPoint"/>
                    </mxGeometry>
                </mxCell>
                <mxCell id="wwnRIKZaCLIZtP5zBh93-67" value="Storage Services" style="rounded=0;whiteSpace=wrap;html=1;verticalAlign=bottom;fontStyle=1" parent="1" vertex="1">
                    <mxGeometry x="1025.75" y="240.5" width="350" height="379.5" as="geometry"/>
                </mxCell>
                <mxCell id="wwnRIKZaCLIZtP5zBh93-69" value="" style="shape=image;imageAspect=0;aspect=fixed;verticalLabelPosition=bottom;verticalAlign=top;strokeColor=#999999;fillColor=#E6E6E6;image=data:image/png,iVBORw0KGgoAAAANSUhEUgAAAMcAAAEHCAYAAAAamlLGAAAAAXNSR0IArs4c6QAAAARnQU1BAACxjwv8YQUAAAAJcEhZcwAADsMAAA7DAcdvqGQAAAAhdEVYdENyZWF0aW9uIFRpbWUAMjAxOTowOToyMSAxOTo1MjoxNP5oUCYAACduSURBVHhe7Z0JfJTV1f/PfWayQ0gIO7IoCoKo7IRFEXnta1trbbX690UBFyD8betSbd1a334qaheLthbBHVrXumtbFwiyJCSEsMoiyL4EAoEQss3yPPe958kdDcksz8w8+9yvn/nMvTcmzCT3N+ece8+5FwQCgUAgEAgEAoFAIBAIBAKBoD0Xzt+UP+n19f15V2AxEn8W2ICCHN8TXn/gj7wrsBjCnwUWc8krpWMyvZnl2PbLgdHLp49dq35BYBnCctiAKxZvyEn3ZLzLu+AFzz94U2AhQhw2IEiCb0uE9OZdkDzSoMsXV7zBuwKLEOKwmMmvVMzzEulK3v0Gj+S54fK/V8zmXYEFiJjDQiYvrrzFK5GXeLcdCqUBGoBri28d+REfEpiIEIdFTF605sceyfsGIZDGh8JCFcXnJ8ErVtxcuJIPCUxCuFUWMGlx+QwtwkCIJGWk0bSPL3ll/Rg+JDAJIQ6TuXxx5R/SpbSXtQgjhCSR3HSPvPLSlyr+hw8JTEC4VSYyefHaf3sl6bu8mxB+OfjL5dPHiI1CExDiMIGJL67rmpFOiyVChvKhpJBlZXHx9FHTeVdgEEIcBnPZyxUTvF7pfUJIFz6kC4qibCIUfrBk+qj9fEigMyLmMJDJiyqfSUvzrNJbGIgkSRdRQjbjcjAfEuiMsBwGoK5GEc+fPEQq4EOGosj0M7+UNWPlzUOq+JBAB4Q4dATTzb1++VXJI43nQ6ahUKWBKvTx4umj5/IhQZIIcejAyIVrsztmwRNpEpnJfqWZfNgSWCyyN0jhZ8unj/qYDwkSRIgjSS57qfIeKY0+aJYLpRVZoUsalQ4zymYMOsSHBHEixJEgk15Zd7tXor+RJNKHD9kOhdJGSuW/FE8b8wAfEsSBEEcc4H6F16v83ENghiRJZ/Fh28NikVOKDPPrvYEn1txcWMeHBTEQ4tDAhJfXFmZ64NdMEN/jQ46EUtrMrMk/5TTPb5bfOHwvHxZEQIgjCuqSLHju9EjSMD7kGhSFrqSB4Lzi28a+x4cEbRDiaMNliypv8ACdChKZIhGSzYddC3O5DigAHwVJ4A2RFn8mQhwM3GUmFK6VCEwiEunAh1MORVGOUSYUjyT/9fObxm7gwylLSopj0jsbz/LU+6cDla6UJDqGSFI6/5KAIyvKTqDkAyqT95bdOqKUD6cUKSOOKYvWXsXE8H2Q5CskyTOADws0wOKTOhbNL5dl8oXX0/j2kumXpESyo2vFcemiynES0O+xuGEyATpCkqQs/iXb0j8vC441+KEhIPMRe8Lcr8OUwmo2fZYEpKwP3JrT5QpxXP5S6QhZShvvIVIhE8IwQuBcLC/lX3YMM4f3gi/21cLOE418xBkoClQpVC5n06mUuWLFy2aMrORfcjSOEsclf6/oSZphqCeNjCISDAegQyUg5zhRCG35r7M7w6V98+CTXTWwqboe6v32th7RQDeMBfabKVXW0iBsTstQKp0Y4NtOHJNfqRzJgsFBHg8MlCj0A4mcw0TQmxCJPaxN6jOKs/My4ZaLe6ltFEdTUIHNTCBBhU0xF4FJkewd7VVA2UkUsi0okY1SXeaa5T8dWs//F1thuDimLNpaECT+npIS6CUr0IV4aG8P8XQlitIVCCmghHRmk7+zBNCTWYA8/m0pQ6+OGTDtoh6Q7fWo/f8wcTB/Hur8Qdh6rEEdcztUUWrZez6kSHAAFLKL9Xc0BnzrCfEy/5I2SkRp9MsZ+MtorJw9yjSfM6I4Jr24diKkyecS6smmoOQQGbKJR8qiBLLZZ0CmB1ibAgty8dOcZrKJnkkoqG32CZ/LfkQukUinlp8mCEf3DulwK7MYWd5vCzJD4kCONwXga4fFH3rgZx8M/kCQ99qjUHqCTdwaNveOsd5JAqRGYX1CSS2b0U3qQ+HPUkubUuaQR0Ahcn1F0cR2B3dHFMeURWtLrCjaSRV6qxaj5xnCQNCtau1NVdX7YN+piH9X1yEz96Kp2c975kAp3VhWNKFdipCoIbeAs5gwZlzcXhhIyGqE6NkhA87Nz4r8KeYiWCBvujCiIcRhMiN75sItw3pBhif8r56EUUGX7HQY0rUDeCX3SoR9ettKGIgQh0ngxP7JkO7ww4FdIC3KJG9rOUJ0TPfARd07QId0Lx9xEexNN/sCqkDshBCHCfTtlAmzRvSGC7vm8JHIhLMcIdIlCYayn4GulpvwB2Q11rAbQhwGgjHFtYO7we3MjeqRoy23UctnZz8mtqHdOkBmmJjFaQSDctSVKSsR4jAIdIHuHNMHLmaTOB60RhUd0jwwrHtHddUrmrWxMxiAoztlV4Q4dEbduxjWE647vxtkswkcL/F63X1yM1WRdGVBu5NoCcB9vGdPhDh0YlBBjro8e8fIs6B/p8QTgBMxArjyNSA/Cy5mIinI0nyzgXWowsAAnPdtihBHEuBEHtwlB+aM7A1Th3aHc/KSz4pPZsJgjHNe52wY0aMjnMUsSnqE5WKr8fmDmGfFe/ZFiCMB8jK9cFn/fPg5iyluvKC7rqtHesQPKArcaESRDCzIhk7s9doFDMAD7OEEhDg0gnN2EJtoN1/YA+4e2xcu75dviAujt6vROTMNBjOXD10uTHK0ciMRrYWdA/C2CHHEAFeDsNbirrF9mOvUQ3VbjJxeRq08ocvVl7lao3rmqu+hS3YaeExc5qJqaohzhIEIcYQBXZHvn9cF7insC7NH9FaLkPLZJ7AZmBGjosU7Nz8bRvbqCOezmAlX2AyNTzAA9/nZk80j8DZE/OhIpaxcXAYd0DkLzsvPUuu4o6V3GE3rlHWzwSKr0yxYrvMF2bMMPtbXA3SlMNawK5GyclNOHFlpHujFPikxiO7JXKY+uRmQl2GfgLVtyrqV+GUUi6wWXjWw50RKdwMBJjK/vd2plBRHDyaCbjnp0D0ngz3SWT8Ncm2euGel5YiFwpy+xoCiiqSeCwatTSSsqM1IBFeKA61AboYHOrFP/o5s0uNz15w06MaCTaftGIewszjCIbMX28wEgiJpZq5TExMPthsCQWhsdEacYVtx4ARP9xA14xSf01hgmIF99oyPUDsn3aOmbXfgz2YFyGZjJ7cqUfDl+1icgWJB4cjsDaGI8BnfW1BRICBTCLBnPz4zC4P/n1VYKo7vntsF+nXKUNMc0rgQ3JBRagRuEIePWY1Ed8DxxBVMSFRFxAUVDlws2FmjzwEUkcRhygztxlydXiwAxiVE9PmFMCLjJJcqHLj7nUxqCG5SprP5kZkmqV4C7u6He3Rk7rTRiFkq0A2ZiSIoO/cwurYIcQh0QWEmz65FS4kixCFIGsr+w7Om3IYQhyBJ0GLIqkDchhCHICmSDcDtjBCHIGFaAnB3CgMR4hAkhBsD8LYIcQjipiUAd1ZtRiIIcQjihILPjwG4+xHiEMSFujJF3RtntEaIQ6AZTBjEIDxVEOIQaEJm1iLg8gC8LUIcgphgTUYggSpApyPEIYgJpqC7cQc8FkIcgqjgXoYTqvmMQIhDEBFMDUmlALwtQhyCsLitNiMRhDgE7cBTRvBInVRHiENwBhhd+H2pGYC3RYhDcAZqAC6EoSLEIfiGQNAZ92aYhRCHQMXttRmJIMQhSInajEQQ4khxWmozhDDCIcSR4vjV2gwRgIdDiCOFwSxbJUVqMxJBiCNFUQNwsTIVFSGOFASthQjAYyPEkWK0BOAiNUQLQhwpRehwBBGAayGiOCiNfHeHwJkEgkrKHI6gBxHFQYj4eHETGHynegp6vAi3KgXAADzVDkfQAyEOl4MlriIATwwhDlfDAnCRgp4wQhwupuV0QiGMRBHicCkBJbUPR9ADIQ4XgqcTBkUNeNIIcbiMVD2d0AiEOFyGCMD1Q4jDRaTy6YRGIMThEnD3WwTg+iLE4QJQFHh0p0BfhDgcjjid0DgiZt5OWbS2RPJI43k3KaZf3BMG5GXxnqA1J44dhdrjx2D3ti/h0N5dcLim9ptw2ldbAxl5BbzXQocefSEtKwdy2HNO97OAZOdZEoDLviao27cDGqsPQLCpARqPHuRfCU82e61e9rqzu/WB9E6d2Wvvw7+SGE3sA2Hd4TreSw4Wp20sK5owjHe/wXJx/Grq1bwVmczsHHjg6RfUZ6P4/J3XYMm7b/Bee84+/wIo+vXjvJccKIht69ZAxfIlULVvDx9NjIxOBZA38GLoMXoKE1IXPmoMDUcPwPFNpVC7YyP4TtXw0cTp2Hcg5PYfBHnnXRy3WMwQhyPcqubGBnhzwVO851xQFG+x9/H7u2bCh4ufT1oYCE7SoxXFbNKu5iP6ghbi+ObVsPFvD8KWFx9V/y09hIGc3r8DDq34SP25+PNP7tjAv2IPHBNzbK0shy1ry3jPWaC4UQwoisqVxXzU/qAoNvztAdj90Su6CSIS+PMbjxzgPXvgqID8rYVPqxPNSaC1WPDog1Dy6Ud8xP6g+/Tli79TRSE3N/HR1MNR4nCae3V47254+sG7dHGfzAJjiu2vPhkzwE4FHLeU6xT3CoX81nPOsnRoKXZ/vCilrUVrHLFa1RYjVq/0Xq1a9Oe5qpC1kJmVDSMvnQIDhlwIX9E8yMzvyr/yLbjJd2L3VmisPggNVfuhdudGNVgO0XviVdD70h/wXvygMDDGiJf03M7qqlNmXhfI7tEHPBnt/85+Fk+gq4YxBb7+1q+7NfG8B7GUG4UhI8fC9Hse4r3k0VMcu7Zuhufmxn5tKIorrvsfmHjlt7+D/3xd027XAnfAwx3Chqs7xzaWMKFsSkoc8QoDBYBLx3mDhiW0XxFaEj751Qbw153go/YTh+PcqhB2dq/WLl/CW5FBYcx++LEzhBGOaNcD5A8cBgN/cgecP/WedpuFWsGlVK3CQFHgBB7208fVSZzoRh5+X78rblB/Dr72jn3O41+xF44VB2LX1aut69bwVmSmMavXq/85vBeeltMJY58akttvEHS5KH4jX7fvKzi06mPei05Wt94w9LaHVVGEc50SBV/74JvvhfOum5OwwI3C1uLo2bc/5BW0979DoDA+e/s13rMHuEIVS7AjJk5W44tYqDXgBqWGoN+/851neS86BUMLYcjN9xm6A49WMBGBG4mtxXHy+DHVJ48G7h+gj28XmjRYss7duvNWZDAAN/J+vr2fvqFpVQqFMeDqW3S1Fk7B1uLAT+BRl05RLUg0/umwzcFe/aK7U+r1AAaeTojuVM2XseM1dKVQGKmKI2KO62ffxVvhOXm82nbuVTQO79vNW+3BSj6jrwc4sib2ggEu0aIrlco4QhwYuE747+hLfHZzr6KB6enhwOgCa8CNxFd7XF36jcU5P5iRkq5UaxwhDuQ7LPaIFpwjdnCvesdYgUJQHOGEjDEGWg4jOVKxlLcig0uruIqU6jhGHLgbfn2R/d0rfJ2xYiRk8bzH1JWtELifYcbZCFiLEYtENxPdhmPEgeDypxPcq1GT/ou3IoMWbuHch9SNTLQWimK8MnBnOlbqOQbhwmq04ChxIE5wr3DXO9ZrRPA1ogXBPKyTx47yUePA4qJYCGF8i+PEodW9WvmfD3jPGq6eNpO3YoMls3/6xWx4G7N4WcBsFHV7t/NWZIQ4vsVx4kC0uFeYRNjapzebC0YVxnyNbVm/ahlsnP8Q7Hh7vroXoTdaNv1wp1rQgiPFgWhxr7CewkrQemCqSLxg0Lz91T+r1Xh6iuT0gZ28FR6MNwTf4lhxaHGvsAIPU9Gt5IY5d8dtQUJgNR6KZNs/nlT3J4zGm5HNW/ETSmLU42HGe9WCY8WBOMG9QtCCTLv7QTVNPREwkEZ3a9/nb0YsFIpFot+nldP7Wk4S0eNh9GEOWjFFHNUNAThc7wv7iEW472n9uPC710LHztGzRV999qmw39v6cTrGsf1+WQn7fVof+ecPhxmPzYdBYy7hPzF+8FgcPMKmefdm6JjujetBaw7xnxKZHPZ7DPe9Wh7pHv2mUnaaJ+y/0frRgT2MxpRKwBz2Zi/s1oH3zmT5I9ET2yb99mXeikztnu2w8ZXf8154+l32Q+g/+Rrea8/eZe/Dvi8ir3B16jcQht36AO8lRrMfT0FXWlwQ9gkZKwaIxnAWy1x10+2aS4VxV/7Fxx/mvfD0H3QBzHxoLu/Fx9J3X4fi99/kveS47YFH4ZzBQ3kvPMcb/fCHlfp4BK6rBGxN3tnnQ+/CK3gvPDjx66v28575+IMtwkBCBT7nXDVdTfBLBFzZeuGxhzXv52RmJx5PpCquEAeCVgGPxozG9vdf4C1zwRR0mbllbcHiHiwVTVQkVfv3aBZIrDR5QXtcIw5vZjac/6PbeS88DUcOqO6TmeAF+bFS0EMiwVJRdG3iIR6BxMLX1MhbAsTDn9txzo9m3UYkktxR2BwM1rrnpPPemUTz85FocUJbMvO7QLC5EU4fjOyLokC6Dh2jnlTemtq92+HU3sh7Cpl5BdBjeHzBdEsNuPaipayCHjD12quh//lD1XSS2ppj/CvRqT9VC0G/HwZeNIKPhGfdiqXQHEUA+HNw9c+bFv5vFY38Lt1g8MhCGHHJ5TEf61dFPxIV/5/8rt14LzyNARlK9p/kvaQ5evDjlxbw9je4xnKEiOVeoXi+ev9F3jMSCj4mjERqwDEYxcB46p0PaMrRQko/+zhinUiIPDaBYxHrZ0Qiv2t39XVreTgF14lDi3uFFuLg6s94zxhaLshPrgYcz+b62dynYNiEy/hIdIrfi3zuFqJlYlZFqVJMNVwnDkTr6lXTSW1uS7wEMQDX6XAEXKr9yey7NAlkz/Yvo2b39tQQlGMSpKAFV4oDide9QoujBxiABwwodUWBaAnWo01uTZaDBfiJulZuw7XiiNe9wuvEkkU9HMHAC/InxDgdEWlqqOet9qAVOn/4aN6LTMkn1qb72wXXigMx171iATizGEYdwoZgDBKLWJ/6F4wax1uR2b6+IuoJKamCq8WBaHGvdn3yOu8lTksAbkIReJLgMqmWFbBXn37C0mpKO+B6cWhxr2q2r4fj29fxXvwEFGddkI8CiUXt8Wr4+B/WZBTYBdeLA9HiXh3dUMJb8SGzADzIrIYZaAmUe/U7m7ciM+XHN2qyHpi/haW7qUpKiAPR4l7FC7pRgTYBOGbcqnfpGVA/Ufrph7wVGdyM08K1s+7kreikskBSRhxa3Kt4iRSA430XX77wu4RuSorEupXFmvYgBo8Yw1vRwWXd8d+5iveigwJ55uG7U26JN2XEgWhxr7SCyYTRAnCsZkMLgsVJ6t3dCZZ+YlCMdRLvPP8XPhIZ3AfRajmQ7990O/ToE/sAOgT3P7AeBJMcE9koxM1JTHH54z2z+Ij9cUWxUzyg+7R2/m/iLsVsXeyEJ6DjFQHhQLcK677Dkd39LMgfNFy9Qw9vNwp3Fu01g7vDieqjcOTAPtiydrU6EbWuGmkpEmoL/uzn5z7E/r29fEQbuGeCV8H16j9AfQ5H1f697L0cgb3bt6ji0opdip1SThyIlsrBtoTEEel+vhDRxBEOFIyHH2yAF0smWj+NLhJagkRIVCBGISoBLSRR90oNwHVemcITRvAABXwkKgx0jRIVBoJWALOAteyepxIpKQ4k1upVOIzeAU8EnNCJ1n23BgVy890Pwfen3sZHrMMuJb0pK454V69aTkG3lzAuv+YGdULjxNaL8f/9A7j3yYVxVyQmS0ZWtvp+8N+2S0lvyooDicu90qiLnB591euIjbz4BdPXcRLhZp4R4IoXWiP0/Y0WieoSMmv1y3nPq+8nntU2o0nJgLw1Wlev8EIXPDEkHvASfQzQG48cSOoYHgTdpwFDLlL3McyeQLgMi6tmlSuW6hK043vBBEhc5Ur0vaTEahWuHEUDP92tQmHmwu/TL85AoagrUrU10HB0/zcHOwd9jd8cxVmQ3VK/jas1WTkdoEffs9WUED1dp2TAlS3cDMSKwRNY5368JaMZc7Gw5h3do57sNYfA+AHdpLMHXwj5XbrqJuyUEIddQTn4fAHdhKEV3OewWWhjS8RSroWoO+AmC0NgL4Q4wmD0BfkCZyDE0QajL8gXOAchjlbgXobRF+QLnIMQBwfjC79fCEPwLaaIA89xsjtqDbgNAvCIy4eCM2g08JSXECaJw96rPnjOlAjAnUVT0Pi/lynikJk27LosqgbgQhiOoylCPY2emBZz2NF6iADcuZz2Gf93M00cPhPMYDyIANzZHGvw85ZxmCaOepOOr9EGWgx7BOCCxDhc18xbxhFRHFQiuv7rDSasLmglwKyYCMCdzZF6XS1H2Lke2XJQWstbulBvE3GIHXDns7+2Sb36WkdO8ecziCwOBXQVBy69BS1ONxUBuDv46ri+Z/gSQuITB5WobheuhTjZFOAtaxDCcAdfHY98zUIi0AheUkRxKDJJ7BSyKNRYKA6fekG+CMCdTm1zAPaf0jcYZ7MirCGI7FYRqrs4TjUHLXGt1B3wJO/nE9iDioNhPaDkoPRr3jqDyG5VkFbypm6gLMx2rcQOuHtAy19xWH9xUI93M2+eQURxrLh9zHpFUXTfaaluMK/0VMsF+QLnsLOmAWoN+HCVTisbefMMIrtVDCbUHbypG6eZ71/nM34pFT9ljLyfT2A+K/bpvkaE82RP2S/Gh70vIqo4gJJNvKUrh0/7eMs47Hg6oSBxDtU1w06dl3BVCEQ8Mj665QBlLW/qyilfEBoMTCdBV0qsTLmLJbuOG/JRx6ZJMW+2I7rlkDwRvzFZDhiUG6PnBfkCe4A74luq9d3bCEElz+e82Y6o4lg2bcTGoCLv511dqW0OQq3OaccoCiMuyBdYy4fbj/KWvjDv4uCaWYURLw6JbjkQBT7mLd3Ze7JJPVVQD0RqiDvZcKRO902/VvyHP4clpjhkQg27b7dZVuCoDtmVojbDnQSYJ/Dvr1qOGzUCIsE7vBmWmOJYMX3MekVWDLvy52CdL8kMS1Gb4VaWfF2jposYAXOpqlbPmvAp74YltlvFkEExzLWSmTu0i7lXiU5uUZvhTrCYafneE7xnAJS8yFsR0SQORZb/QqlxMxCXdqsScK9EbYY7kRUKb31ZpcaRRhGQ5Od5MyKaxLHi1nE7KSURl7z04AALuuLZ+xABuHtZurvG0I1iqsDSytmXxFyF1SQOxBeQH+dNQ8DPiK9PNKpuVixaAnBra0MExrDtWD0s3aV7QvgZUCCP8mZUNItj1W1jljNzt553DQGrBWPHHxR8fgzABW4Dg+/XNx029G/LAvGy8jnjvuDdqGgWB8I8/Cd50zBONAXgUBSTqq5MidoM14HLtn/fcAiaDT7CiVLpAd6MSVzi+GLa2FcVWdnHu4aBy7snm9vHEyI1xJ1gHtwbm6rUuNNI2L+zSqvVQOISBxIkwbt401B2svij9XmoMrMWIjXEnXyy8zhsPnqa94xDlujPeFMTcYtj+bTC92VZ0ay+RMHVqK0sOMMNQkwxCYjaDFeyvqoOlu2JfpOvHrD59FrFrIkbeFcTcYsDCfi8t1KFGv4xHlCYQI43QBOLQ8QOuPvYdKQO3txcxXvGwdwpXwDS47snm5GQOFbOGrZHVozLuWrNyfpm2FJ9GpgY+YjADeDxOq+xOMPIjb5vIfPWFY2OW4UJiQPxSt57WRxgqD3EZELmwkGdLwg7ahr5qMDp4KFsi9cfMkUY7N84VBfMncu7cZGwOD6fNqxBpuQmqhjzkR4MymfsgOO909tZDGLKB43AMPCQhEXrD6ousxkQQqZu/enQhCqlEhYHsnzayE/YZH2Jd3UD9dbMvMS21DQGVHMsBOJMvjx6Gl5ed9C8u1ooXVg2e/xy3oubpMSBLN09chaLP3bzbtLgmndTc+QkRCEQZ7LpyGlYvOGQacJg82i/n2Tcw7sJkbQ44LdECQaVa5hvp0umWHNzQBVINFAgO4w4iUJgCOUHa+HVjYd4zyQImVY5e1RSgWry4mCsuHX0ZjkAD/Juwvj8Ac074BiDbDlar6Y3C+wL1mS8s+WIqQvx7LP1l8m4UyF0EQfyxa0j/8wm9ru8GzcYgAfiPK4HE9VwZ9VvcD6OIDH+taMa/vVVNe+ZA1Xou2VF4//Iu0mhmziQ4syR1yuysoV3NYOVfOECcC3gjVEbmT/bZOA5WIL4wKyGResPwfI9BlbyhYFZjO3QSG7i3aTRVRxwPZH9Er2CxQya9z9wc68pyTph/GNgwFcXJllRYC54UPiza/arG7dmwubcaVny/DDS0Z6JoK84GCtvHl3FrMdPNKWX4MqUzx8zANcCroLgUmGVCUeNCsKDh689vXqvenSnmbD5EyAAV1XMGqvr2c66iwMpnjF6GYs/fsm7EWn2B9U9Db3An7T7RKO6kmXQ3qQgAmsO1sKzFfuh0RL3lsxcXTRhBe/ohiHiQJbNGD1PVuQneLcduPuNQbgR4B3VIlA3B1wtfHvLEfVhxcohsxpzWQC+iHd1hVkjY5m8qOJ5r8dzO++qYL5UtI0+vUiTCAzq2gE6ZXr5iP350eDu4BSjV9Poh9c3VcH+U7q5+XFBgb5ZNnvC/+Nd3THMcoRYNn30TDmofMC7EVNDjADzd7YwC3LI4AqzVGRDVR08VbrXOmFQ+llZ/vipvGsIhosDKZ4x6hpFpsUYeKPF0CMA1wr+S3tZoLitWmwY6kEzc4Vf3XQYXmMPH/MArIBNn4rjvq5X4+ooHzIEU8SBLJ0+cgoTxr/MFEZr8OAG/LQT+yGJs7e2UbUWG9nv0SrY/NnalJH1na/vHGj4sqRp4kBKZo67Cv1E3jUdPNliQ9VpOFovlnvjAesu8KC1BWv2qx8yVsGEsUvy0is23jI87L3hemN4QB6OwgWrXidEMiyQ0kJeZhqcV5AN6V5TPx9iYreAXA26N7Ogm7mmVsKEsbM5LWvChttGGHfsehssmRllRRNvZO92Me9aAuZlrWPuQbUOVyC4lW+CbuuFsRU8pNBMYSCWWI4QhQtKniOEzORdy0ArMrBLDqR5LP11qNjBcmBc9u62o5bGFiGYMDYFSMallbNHGXA7f3Qsnw3jFpbMYy/DlLOwouGVCJydnw3dOqTzEWuwWhx49957W4+odftWw4RR3pSRfaVZMUZbrP+oZBQuKL2P/Sp+z6yI5a+nc1YanNs5G9IsikWsEgeecP/2l0dMTxiMBBPGsowM//eW3zLZsk0qW4gDGfNsyXXsw/s1po80PmQZuLM+oCAHCrLNfylWiKPy8Cn4+KtqNf3fDmBNRsYR/w3LfzvZUvNlG3Eg4xaUXEoJfEiAdOJDlpKb4YVzC7IhK83DR4zHTHGg64SXxNip5FgBuqh89oQZvGspthIHMvq58oEeJbiUWZCz+JCl4C+oZ24m9OmUqcYlRmOWOFYfqIVPdlSfcR6xlTA3igIlD5XNGW/oPTDxYDtxIKOfKe/h8QY/ZQK5iA9ZDrpa/U0I2I0WB+5yf7Ct2vSai2gwXTDTRW4sKxr/ER+yBbYUBzLp5WWZvub0V4lEfsyHbEFHdLVYwJ6dboyrZZQ4TjT5YemuGqg4ZPqKaFSYMA7Lkvc7FbPGxl1ebTS2FUeIsQtKfiURErEuxApCrlZf5mp5dHa19BYH7lks23MCVu47YbvESyaMcqLA1av//wRzT2HQiO3FgYxZUDZZAvld5mbl8SFbkO6RoF9elq6ull7iwHyoMhZXfPr1cVsmW2KOXQAybq6cPcq6ZK0YOEIcyMiFK/umUenfTCAX8CHbgKtZKBI9ln71EMfW6nr1WBysiLQbzFowpZJ7WXzxFB+yLY4RB1L4ZGkW5MBiQuA6PmQrOrA4pC8TSX5W4iJJRhx4evnnu45bngsVCWYtTikEfrxm1oRiPmRrHCWOEIULSovYr3oesyKZfMhW4P4IWpLcBMpzExHHgVNNzFIcUw+XsCvMYlQqkueaNbMKD/Ih2+NIcSBjni0bIhH5QyaQAXzIdmBCY7/8LNWiaCUeceCRqBhT2CFBMBJMFOzdkD9nVPnut3rHO14cKw4E3SyaQ1+RCLmeD9mSbjnpqiXRUjuiRRxYY1G8u0ZN+0g2PjESpouTlEo3lM8Z9zkfchSOFkeIcQtLbmVv5UXetSVMwNA7NwN6dsyMmhofTRz1/iAs2VWjrkKZcStSMlCqFCuSd7qT3Ki2uEIcSOHzpeeCDG+xOTicD9mWgux0JpKMsEcGhRNHAxPFin0noXT/SfDZ/CwuZi1Y4EPuLysa/1c+5FhcIw5k0iPLvL6e6f/LmvezWMS8bMEECRe4txYHnju7igkCTxO0uygQDLoloDeUFk3cxYccjavEEWL0glXjPEDeYALpy4dsTevAHcWBBUclTBROuqCHuXn3lxdN+D3vugJXigMZ8syXHXK9dU8zN4vFI84ARYIu164TzhEFsxZbFOq5fs2cwq18yDW4Vhwhxj1XchVV6IuESN34kEAnmDDmlhVNeJh3XYfrxYFMnL8yX5akp/CeOD4kSAImij0UpBvLi8aV8yFXkhLiCFG4oPRK9qd9hcUi3fmQIE4ohfkBkn5fspdROoGUEgdy8cvr8zL9jU9JQKbzIYEGmLU4okgw1Sl5UXqQcuIIgVaEAn1BIqQ3HxJEgAL8rSk962GrjsixipQVB3LR4g05OU0NjzJX4efM1bLXuaA2QKG0hFLPLDeuRGkhpcURYvSCVaM8AC8zfQzlQykNc6EOKBTuWTNnwtt8KCUR4gjxFvWMPVl6H6HwCLMitkyFNxomCjx+/k8ZGf5HrTxMzS4IcbRh3Asl/WgQnmQCuZYPpQRUgaWKR5q5ZlbhHj6U8ghxREA9YA7gWSaSIXzIlTBrUQUSuaNs1vj3+JCAI8QRjUeoNLZHyW2EwKNu22FnogiyP/9TAZL+SCrsWSSCEIcGxjxdlitlBH/HBPJzPuRoKIVSWfLMsuNZUXZCiCMORv1tTR+PJ/Anu1ceRkKhdB1Q6dflc8b9mw8JoiDEkQBjnisrlBTlL8zdGs2HbA1zobZRkB4uLxr3Lh8SaECIIwnGPVtyIyXwBxa02+LQ67ZQqlQzS/Fg2Zzxti4htitCHDrARHIvleBhu1ydwCwFlqrOhQaYV/aL8fY8xMoBCHHoxOi/lhd40uXfspk5m1mS+A+s0gEmCiywXUQU+JVdz591EkIcOqMe9KDQR5gVuYkPmQLTRTn1eO4on1lYyYcESSLEYRCj5q8a5JWkR9i0vYFZEsOSGhVKl1DwPLamqHAZHxLohBCHwYx9fvVgSVbu17sKkQXb/5IB/reiaOJaPiTQGSEOkyh8trQ3kei9LCqYySxJDh+OG6rACpDgN2Wzxy/nQwKDEOIwmZEL13bygm8OoXAvE0kBH44Kiyfq2dPfqUf6a/nMcdtaRgVGI8RhEXjOL8mmd1CiHkAXViRMFDWU0HlByHymcvYoe91XlgIIcVjM+BdWdVSC0n1MCj9jIlFvrmKiwFqKl5sysh9MtdJUOyHEYSPGLlz9XQmUnsRD/1l6+8TTfFggEAgEAoFAIBAIBAKBQCAQpDgA/wfbZyAJFoDeOwAAAABJRU5ErkJggg==;" parent="1" vertex="1">
                    <mxGeometry x="655.75" y="253.5" width="55" height="73" as="geometry"/>
                </mxCell>
                <mxCell id="mH4-wAvJY8XDpleCMKy0-36" value="" style="endArrow=classic;html=1;strokeColor=#3399FF;strokeWidth=2;fontColor=#000000;endFill=1;startArrow=none;startFill=0;jumpSize=8;endSize=6;startSize=12;" parent="1" source="mH4-wAvJY8XDpleCMKy0-35" edge="1">
                    <mxGeometry width="50" height="50" relative="1" as="geometry">
                        <mxPoint x="-28" y="417" as="sourcePoint"/>
                        <mxPoint x="362" y="417" as="targetPoint"/>
                    </mxGeometry>
                </mxCell>
                <mxCell id="mH4-wAvJY8XDpleCMKy0-35" value="&lt;font color=&quot;#000000&quot;&gt;Public Users&lt;br&gt;&lt;/font&gt;" style="aspect=fixed;perimeter=ellipsePerimeter;html=1;align=center;shadow=0;dashed=0;spacingTop=3;image;image=img/lib/active_directory/users.svg;fillColor=#1EC8FC;fontSize=14;fontColor=#FFFFFF;labelBackgroundColor=none;" parent="1" vertex="1">
                    <mxGeometry x="70" y="367" width="66" height="100" as="geometry"/>
                </mxCell>
                <mxCell id="mH4-wAvJY8XDpleCMKy0-38" value="" style="shape=image;imageAspect=0;aspect=fixed;verticalLabelPosition=bottom;verticalAlign=top;fillColor=#1EC8FC;fontSize=14;fontColor=#000000;image=data:image/png,iVBORw0KGgoAAAANSUhEUgAAAYYAAAD/CAYAAAD12nFYAAAABHNCSVQICAgIfAhkiAAAAAZiS0dEAP8A/wD/oL2nkwAAIABJREFUeJzsvXmUZFd95/n53ffixZZ71qqSqlSl2tHCJiGBQMgCu6HZbWSDDbTBHHrsHnvGPT5npmf66DCHdi8z4/HYPbYFAmwZ07ZkxgvGtDFuARKSDAJZoF21qVSVVVlLrrG+5f7mj/sis/YlKzOyKvN+dEpZlRnx3o3IzPu9vx08Ho/H4/F4PB6Px+PxeDwej8fj8Xg8Ho/H4/F4PB6Px+PxeDwej8fj8Xg8Ho/H4/F4PB6Px+PxeDwej8fj8Xg8Ho/H4/F4PB6Px+PxeDwej8fj8Xg8Ho/H4/F4PB6Px+PxeDwej8fj8Xg8Ho/H4/F4PB6Px+PxeDwezwUii70Aj+di+H8f2tkTBrY3zcz0r9z5bG2x1+PxLEW8MHiuCO59Ym3FNPt3IPyswtsF/t5g/8Qk7Rd+8c6XW4u9Po9nKeGFwXNZ89BDhHvDzVutKbzLqv1ZQW4CCRS1ojypwh+qpF//1Jt27V7stXo8SwUvDJ7LElXki49s2ZgRvE2RDwp6OyKlMzxyGvhvAvdnJfudT73+xWNdX6zHs8TwwuCZM198aEMpKRTvFMzKQLNHPv7ml/bMy3W/t3NN0ta3i/BzwK3A0Pmeo+h+hK8bkS9n0XOPfer1JPOxFo9nOeKFwXPR3KOYdY9vf7OkvBvhvSA9iH5f1X4pScK/nWtQ+N4n1laCVt9dFvlZ4K2CrLuoC6imCM8o8udqsj//1BtffH4u6/B4ljteGDwXzANKMP3o9h1W9W6Qu4H1IGUARS1wCPRvTWDv6+sr/NPdr3o2Pt81VZFvfYtgT7T95szKL4joO1CuQSSc+0p1WuEpA/cRmK9+4tZnx0XQuV/P41leeGHwnJeHHiLcVdm8hjj4gCIfFuF6kOqZHqtoW5QXEP7coJ/flLxw5M47Sc/02Aee2RlNj2cbLfJRVX4GYYMgxflZtSrIKKoPWbG/Nxg0fnD3bQea83Ntj2dp44XBc1ZUkT94dNPKgOgnsPIJEX0D0ANynp8bVYWmIE+o6O8bY75x4qn9oYcIny9tuzrI5F2CfFzRbYJUFuhFpMB+hD816P29g8HeC7FkPJ7ljBcGzxm577GdQzZL3wDm5wX+OdB/fkE4FVWF4wJf1YA/qpj0ySb0aRLcAfIJgVuAysVfdw6otlT4IcIfSph+/ZNv2HVgwe/p8VyheGHwnMTnH9nWa5FbBd6tyAeBNfNzZX0O5W9VuAaVd4rQMz/XvchVKDXE/o2BL8fafOSX37x/fDHW4fFcznhh8ABw7xMUgmTLa9Sa96vK+wTZvthrWmBeBvv/GZEHe9/4/PfuFrLFXpDHc7nghWGZc49i1n13xw7g/YK+V+EmQQqLva5uoGgiyo/E8CeY5Ku/dNvuXYu9Jo/ncsALwzJFFfnsw9vXiOGnRfhplNeB9C72uhYDVR0X0SdQ+WLY0/z6L77m5YnFXpPHs5h4YVhm3KOYq36wtiStvveLiyHcDjK82OtafFQVRgS+YbFfoPTiP/rqac9yxQvDMuL+p1ZX29ODb1T046JyF8IQSHCp19W8dKwLuUXdIAbdD9wfaPYnG9OX9p+tDsPjWaosjV9lzzm5/6nV1fbU4Hbgoyq8T2DdfAgCODFIY6FdF8KiUigpYuBKrzNWpSaiTwr6BxrG//DJW/eOLvaaPJ5u4YVhCfPAMzujyePpdox5ryI/K6rbLq3VxOmIQNoWpkYNaQzlQaXcYwnz+mW9ogVCVWFK4Kti7B+WAvv9X3jDrqnFXpXHs9B4YViC3KOYjT/YvDGJw/eR8X4VbhN3jp93OhbD5KihXXf/LpSUSr9S7FGCAqBXukAAqnsw+oA18iCF53/s4w+epYwXhiXI//W17VtLRf5tscxPI1JWu3D3OlEY4ob7nFowAUTVXCCqijFglSvcxaQZyuOI/Hka2L/87257Yd9ir8jjWQjm1a3guTxoHQ23xKF9a2VA41IfcRhSViXq1qldjLMQWlNC0hRKvUplwMUfECccVyYSILwJ9FVBat7y2e9u/5MBU/tb35zPs9RYEPeCZ3GxSaZJS7LJUVMeH5G0NU1dLbWFcSadHTGQJVAfF8ZHDLXjBps6a+LKRgZE9H0ovzWV9fzH+x7e9qZ7n2BZFAV6lgdeGJYg1oi61FGJ4poMjI+YytQRieMm44K2kO55/MU4f2XagqkjwsSIoTHpPnllp7eKCLJelU8q8lnT2v6v731k0/oHlCte9jweLwxLGBEQI4G1UqyNS9/EQQlrYzKdWaZBu5ebL7MC0awJk4eFyUOGpCVXuDgAIiVEdgL/RrT4+alHtn3g3ic29av6+J3nysULwzJABIyRME2kZ/poMDB5wNhWTSbUagvRrGtbmOCC0Bk0JjruJcGm7mtX9lYqvYj+hIr8vjSj3/r8I9veeP9Tq884zMjjudzxwrCMEBEBCq269E0eCvonj5h63JBprLZEunfGldyCSGOYPmaYOGxoTl35AuFSgmVYhI9Z5Avt6cFf/8LDm3d695LnSsMLw3LDWQ/GWgqNCRmcPCxR7bi04limgVhMF+MPuQC068L0qGH6qCGuC2pz8bhCBQIkEJGtwD2phP954tHtH//9x7asU/W/b54rA/+DukzJ3Usmi01lesz0TB0SqU9ILUukbkTTbm7KImAtNCeFycOG2jFD0mYmNnHlIgEqdwbCfyyHwf/xnx/a+tbFXpHHcyH4OobljoAgYdyU3qSp7biHZnWIiaisRRPQY7MuSoRAmkBtTGjXDZUBKPdbgtDVPlyJ1dNRCZIW5SMj+t6xw7LmN/9s25Y112YPv3zLruc/LVyxFR2epY0XBg/gTu2qUmxNE7Yb0i73a6NnkKRQsmW1Uu5acZwACklLmBqFds1QGbSUevLA9RWylQYhIJocPaS1oweJ05jSijVy+/BabrBp+PS6R7d/+b7HzFc+ceuz4yJXdj24Z+nhhcEzgwggEqilUjtOlNSpVwalVenVNiF9aJccOzIrEK2aELcM5V6oDlrC0uVdOS0GTKC2NkltZK+2mg1kYNgMrtmmQVSWQC0rVPUOlJus2rfd99i2L9z/1MQjH71ptL7Ya/d4Onhh8JyGCARGwqStfVOHg7RV01plQCeKVVvCUJIuC4TNhPo4xM2Acr+l3K+z1dOXyVlbBBS1cZv2kVeYnjyuptorPZt3UOwZILBWTnCHiYgwiOoH1Motrdrgn9/7aP/n2yvt3l/dsqu92K/F4/HC4Dkzkm9fSqE1TX/SkrjcZ+rlfk3DohZFiNDuxB8kT2FNWpDGhnbd9V4qVnU2OL1IAtF5B+K2tiaP0z4+qu0okp6rN0vUPyyhEUizs6xPJBS4FuVXUXNH5Yh88fcf2/LXh2996ZCPP3gWEy8MnnMjYAIxNqNUH6cQ102rNJBNl3opFQpEiBa6lVjaac7XrrvmfOVepZw353Mxkm6sYnYtgmrSpj1xXNLxo9pApLpynVQHhiQsRC4ekl3Y9h4JcrMq24I0fPs1j229/77Hwu/80m3Pji3wy/B4zogXBs8FkfdeCpKYanLUFNs1rVUGiItVIkHLQICy4MVpHQlSC/VJod0Uyn2WUp9SiFjw7q3GgBjVpC3JxBj18SOaqWrYPyzDQ6swYeRCyVk2l6tLnwjvt9a8Duxff/67279s4uaTv3jny635fh0ez7nwwuC5KHKBCOOGDCRtbRUrtEtVnUK0ilBQzeurF3wheXO+GGpjhnbjhOFA+U/1fAtEGEKaajJ5nMaxEY1tpmHfsOkbWkkUlXADiebhnoKsB/6VtXpbFpX/+ouP7/gvv3jrcy9d+pU9ngvDC4NnTogAmZSaU0RJS9pBQBJEpFmiJbViulX90MleihtC2haiaRd/iCp5gHoepseZABC1k2PUjh4iadRhYFh7V6yWYqmCKAtkpYi8Dsu2VPUtn314xx+FJP/142/edXQB7uTxnIQXBs/cETAixiaUNdUsCGkFkbbUKjaRctesBzrZSy69td1Ai1WldwUSlYE5FseJQFiAZkN1dL/GE8dp9fTLwKZtBJVeE5DfcyERoQfkLhG9PiV45+ce3navLU9971OvP9RY2Dt7ljNeGJYkxiBdbHcioEiQJFoRK0kh0HYQ0UitLWgiBbokD7PxB5HWVEDaVqqDzsVkggsfLSrirITMwsg+ZWxUtRASrr9OhvtXSNBp4dHdegpZLcrPILzGtPq/8oWHez6flF96xc+e9iwEV3QnGs+ZEaNHFN2Paldz4kVEyCRKYulJM4IgJA5K2hTRBT5Xn7oOlzXkqqcN4wcNrWnhfMHxzvNUYfwIvPRPyvgxYcVaY667wYQDqyTQPLC8KO05REKQbSD/UybBl6S57SNf/N7ONX72g2e+8e2AlyDvv6v/eBwGT6kRAwwLMtC1m7vqaVEroc0IjZFMQo0xgO3u3LZOjUMaC3FTyFIhCBUTnrIKmXVF1abg8H6YGFMGhoV110L/CqcpC+02uggC4GoR82ab6vYf7F85/o6PV8a/9sVJn73kmRf8SWMJ8x/u3dTfLpTeKsgvCtwOMtz9VaiKYKVA24BoJmGW6albcxdW4T4Wikq5H0o9Shgp5G6hxhRMHodmXan0CEOrodzjnnMZCcIZUFV4RZQHgf/SXJM+7aunPZeKF4ZlwGe+cP01qvoeFT4E3CxI1P1VqBKQhEYSFSuaSdFmGFSkaz+FmnuTBKKKUh1QJFSOH4FWXYmKwuBKqPTmDfsuMCZxWaCaqvAkwp9KaP/ik294ce9iL8lz5eKFYZlwz0OE0b6d11v4GVTuBjYvxigcRa0JiE2oKSrGJhTVStDNn0R1hgJhBLW6Jc6UNeuhf4iZCuorscW3QydAHkW4PyroNz92y/PHF3tFnisPLwzLjHu+tLkviEuvQe3HQd4pwvCizEoTTcWQhiFJllKwKZHSxfoHQAXGj7uK6VVXQ7n/hPYaV3qnItVXVPgHo3pfVn7hez57yXMxeGFYpvy7z12/WkN+0qp+ArhNoGs9j2ZQVTUkYUFTEaymUrRWCt2c/TA+rhiBvn7BFJRSn1LtV8Iic65/uFxQNBHlJUG/LMKf977phV13C5d1xMRzeeCFYRlz772vKxwNGlepmI8i/BwqWxAKXV+IqppQm2IkaDe1EASmK5bDjDAY6O93bbEtEJWVyqBS6dWZ9NUrJtZwBhRtCDyF2N9LSb/xL9+456gfDuQ5F14YPPzWA1eXG7WB11jVT4rwUyBrF2MdaQpTtUyHho0EAlm6sD+epwlDLgCqIIHLXCoPWIqV3PV0RW+lqijHEP5OVP9AhB994vYXphd7VZ7LEy8MHgBUkf/w5RsGklb6dkE+AfIGRPq7dX8RSGJlbEJZscJQiNxpPUuFhSqPO6Mw5HREwkSucrrcq4TRbHD6ykVVYY+gXzYiD2yKn3/+zjtJF3tVnssLLwye0/jMfTs2WIIPIvoB4HWCRN1op50kyviEZXAgICyAGM3nHrgpbvMdED6XMHRQ6wrlwlLevbWqBB1n2xUsEIq2RXkCuN9K/F8/dfue/Yu9Js/lgxcGzxn5nb/dXFRb+LW0Lf+23TA9WTxbA7AQnCgMQ4MBYZhnBgmYMM8UAjQ98wY+13ueTxg6qLr+SVHFUu5zdRBBMPu1KxedAL6J2C/ZYvqtT71+z+Rir8iz+Hhh8JzEFx/aULKF0vUW8/MqeheWnXHDBM0poV0XbDo7anM+OaMw6IlfVyTIexlZsOn5ex9dyD0vVBiAGQvBhG7uQ2VAiUos+HCgbqDoPhH9mrX2jwdvf+kJn720vPHC4AHgoYcIXwq3bxL0wyryXkF2AjMuJE2hVRcaE26spupsL6L54HzCMPM4k89ZENBMXLuKOQrERQtDh/x+puDcS5X+E4YDXdHWAzHoi6p8KSR78OXbX9rnZ08vT7wwLHMeeojwxWD7ShF5P6I/j8qNbgbAKeQT07IEGpOGxoRrTidmftxLFyoMAChI3gxPrROIuZzY5ywMnWWou0ahpPSuUEq96qqmr/CtVNFJgR8g8tlymHz9pVt21bxALC+8MCxT7lHMhkc2D6cmvEssH0N4M1A53zbfcSMlDaiPG5rTMhOgvRQuShhOwBRcgNpmgl5kbs2lCkMHta69RmXAutkPhSVR+2AFjoJ+NQjkS+HG8Sc+snq04esflge+7fYy5L7Hdg717lvxRjXmf0H57xGuF6R4wWd/dRthseoqhDXL00p17tZDZ/hNq6WUywZzgUKjmbuvMWBCXJ+LzqZ8nrWIQKvlPpZKcz8jiYBNoV0XkrYgAkHBrelKPXq5VyE9xnAT8BOTL5cKX/1W34sPf3Wivthr8yw8foLbMuL+p1ZX29NDN5DZD4vwLlU2yBzP+ja3Esp5+4jGBMQNSBPp7klZACtuPYFiQovgZi9006UjBlA3WjRuCaVe1711pvfSFXbOdkOLVJM27SMjXHVoLx+cnggfBkYXe22ehccLwzLgoYcIXyxtv7E9pe8B/aAVtgtiLvUw2+lSakye61+EIFLStpAlXHLW0MViczEICxAWFc2ELO2izz8fCaoZNCeEuCFU+lx6axBdGQLRcRWmsbbGjtEa2aXJ0VGqaUJR7GK0a/csBl4YljCqyB/+447NL6X2vSbjAyryWkGK871Xq3VjNJOWC8RGZcVGkDRldshNl3ofoUIauw06KCiFonNzZQmX5Oq6qHXk1kOWwPRxQ7sB5T5LuTcPmMNlF38QARHVLCEbPyZTh15Rc3QEiZsMiZGgUFCxIj4AvUzwwrAEuUcxVz28ffXnHtP3kNkPIfJqkP4F2xPzC9sM4roQRO7EXupVkjYkbdfWYj7TW8+HTcFaIcgFwoSQJa4OoysCkWdxoRA3IYsNcV0p9ytR1aXcXg7ZSyJgAlWbkk0epzayn+zIiC206lRQAhOILEJTds8i44VhCbLib7Zuzcr8+yiUNxHIym5tQJ0NJIuZma8cVZwbJWm6k7xAd9xLgju1py5jyYRurGcWCFni3EzdWodr6eHiD+2WUM6L4wplZzYslkAEIYhoVpukNrKP1sg+LbYa0otKZAToopB7Li+8MCxBxo5E1xXL+vrygK1UenVKAnrUdvG83tmUY6GZOvdSsUcpJBA3nd+/m6dQVSdWNhXColIoOYsiTfIgereEChd/qE+4KvLqoKXUr4QFt46uuJcEjEAQataYpnb4FeL9u9HahPYbQ2QE4wXB44VhSWJt3JAsbppSu24negZkIqrYskIR7b5AxA0hbSvFCpR7laQtxM3Z4PWCnNzPsMnazK0lKDjrwQRQLCui3U3OF4E0hslRQ7OmVIeUUnXhZz+IARNolrZJDu5l6uBezLFRLQZCTxh209HnudzxwrBEcdklEjTGzWDcoFHtD1rl/iwOIq0IhKrdO7OLOHdOcwqikhKWlUoR2nVnVcwIxFzQk/+ukjeWBvcPTo8pJLELDIcFGBhymUxZO9+UuzVaNN+G2zUhbQntXqU6aCl0ei/NozjkqafWZpIeOcz0wd0qRw4SpSl9hYIXBM/peGFY4gShGJvQM3Vc01bdNCoDOlnu1cgEWlGVrn3/O2mQ7ZaQJE4gilUlK56SvXQx6GyGj+b/6PjrVTX/c8L96VgorkNclkFooZCnt9rUraObAmECZ8m4HlSGUp8L2ofF2dc4ZwSMqGaWuHaM5v49Njl6gKhZpxIWpFDo/qw+zxWCF4ZlgBgQlTBp0jvVlrhd13q1n6moYotipNrN3HqTd0dt14U0lpn4g00gqzFbtXw+8klrnc1fAaxi8893/n4SMuu6ktzXnrRcKmsQuiC5MSc058sfu9B0zuxJW0iOCe26Uh5QSj2utfdcvj8md0tNT6KH92vr4F5ss04fShQVfZ6R59x4YVguCIiIqFJsTlJImtIs9ZKVBnSiUNSq6aJ7qWM9ZCnYuhAW3Am53AcDIgRmdhbDaejsB8VtftY6cbCZYlVdYz0LdkYxTr6viKv3NiIY48wDa4UsywWi4DbkTsFcN91L2onJxEJcd51bo8qFF8d1RKZRh6MHlMMHMFNj9KYpBIF0ZZa258rHC8MyQwQkEJOlVGtjYttNaVR6bb3crxIEWkUk7JYF0dmk0thlKgUR9PYDqsSNfOYCzG7MJ4pCLgDWKtZClqkTBjv7ebWnznSYKeRCAnH9lUyncltRdUJgMxegDiLXSs4m3XMvdcTLZtCcci3OS71Kud8SFjnr7GmTT7prteDYITi0X5k67uIpYsSE/jfdcxH4H5dlitsgxWQteqZjk7Zr2igPMVWq2qIJKKlK0LVUnfw0nLZdEVoYKcUqZLGSxM6tc6I2zIhCpmRWyTLIUpsXtTmh6FgRJ+6inUotF4ydFQUT4Fw2AVgDRl36aJYIhaISlpw4ZF0cXTNTE5JAfVxoNwzlfPZ0cEL3VhFn5cQtGDsCB/fCxDFXWNhp0eHxXCxeGJY7ro1E2G7S2z5EUukxU9UhTQplLapQpJv1D+TtNZpC2nbdW0uRS29NW7N7vOYWgvvjRCFLNe+L5IRBrXKKLiCi+UdnIThXkmCsYlUw1gkECgQuW0pbrlNqFCkmdJaN7bT37mL9Q9oSpttCXFMqg/ns6bw1+dgoHNgDRw4qaeye43ONPJeCFwYP4OIPWKLGBMPthkxXB2ytPEAziLQX29301s6ozOaUUCi5ArmwAO2Gy/93lgFYa2dEIU0tNiMXhXxTP6UpUScjCUAs2DwAbaxirHFWQwYaQqBgAgV1jv9WKkRFd1o3wWyabdeaBOb3adWEuClUBxUKltH9MLJPadSdqHlB8MwHXhg8s7j4g2QJfZNHgqRVt/XqIOPFKhUTaEmRsJvuJRFIWm4TDouuOR8G4kbm3EiJkCWGLIEsDVBVrM1QLGBRFbex5yiAaKfuztVXGMWoYKzFWnE9jFRQNQSKUwhcd4i4JQShq38olJQ0zQPUXWrOB27jtxYa48LEhLDnpQwTCKFPPfXMI14YPKchLpBZaNelP21LK6pqXB1iOipqGUPUzerpmQE+ddd7yYQZJiyQTFRpTfaRNktkqXFBYgsSNjFRDQmbSFBHJXbmgebO9hMSlRRFMmc5qIJVCGYymmwuEJYQ1y7VGOfzd8FpmWnOZxPFZl00qHLRzFJBAmbmTXs884X/kfKcFROIWEu5OUkxaZlmqS9rVvpohUWtghS620fC0m4GxJPDNCdX0hirkiUh5VKVwd5eSqUSKNQbNVrtGu3pBpkZJyxPIcUxNJjGScIJmjYjEi77SPL01hk3lCqKASwBncC1YNRZKzPZSyEo1oqKWNsl2yGPI/j0U89C4IXBc05m0ltjrdTHTDGpa7PcR73Up2JCepEuWA9iydoR9cNXMTU6TKC9bFi3jm3bt7Ju3Vr6+vqIihFGDLV6nYnxSY4fH2PPnt0cOLifxvhhKB7HVA+DaXYuOnP5mewlAYu4lhoKKTJTUd35YwL3phhRsOKa8xlBRWm2lEIoswHsJYTNsMic6tM9VyBeGDwXhBgRlDBu0ZPGErfqGlcHdazYo2WgBAQL4mvPRaE2cg0TI0OsWX01b37L7Vx//atYtWoVxaLrHdHpjyQiWGuJ45ixsXFeeeUAP3jiBzz3wjPUxnoJq6NI+SiQcWpf6U7FtIuzq3uIOiujU18And6AAkYRJC+uM6bZsJgeJSqdUD3d5Sl2802nxUgYEkSV7rVQ8Swu/hvtuXAEBFc9HdeJkpYUyr3aKPZqbEJbNUYK1s7fYBcRxWYB9dF1TIwMs/HazXzgp9/H5s2biaIC1ippmp7xuYVCgTVrVrNq9Sq2b9/K7t17+MY3vsHel18kbu0jGjiAmpZLQToBZzg411LW2dVTPWlv79RBoIIKiM4+12Yus4kgb6/R5erp+cIVCbpA+9AquHqTXDu4mo/d8c6t09Mr7Y9+dcuu9mKv0bNw+PKXJcid7125RZB3ITKwYDcREVTCuEkxaRoNI1pBpKmoGJup835f0maoiLE0x1ZwfN9VXLPuOn7uQx9k69atM1aB6tn9NZ0megJEUcSaNWu44YbricIyxw4l1CZTpNBEwlbehfVMiz2lHfdJvZZk5k8nzakdd1xJgmZ5242w07dofpXBGGg2YHLSYi55evcsqq6QzwgMroSNO2DT9ULfoIQI263KnWHNlN71SwOH3/3LY7W/+SyXwRw6z3zjs549l4QYMWlCtTFJr03JClWtFXu1KUbT2VqCuVxXyeIyEwdX0ltezXve+y42b948s+FfKJ3HW2vp6+vjnf/8n/GRj3yEdcO3Eh/birb7Een4fE58Hvnz8h5Mmevt5ArpXHGdta4Nx9niCTZxDfow+XjRQC9bw2HG2rHQPwibb4Abb4P1W12KrrWQzwvfJsI9RoPfD1rbPnjvE1tX6OX7sjxzxFsMS5A7379qh8B7QPq6cT8REBWTxFKyiWpYoBWVaYvBZCkGzb1LF7p9iGJEmT68ksmDq3nLHXfwpjffRhiEFyUKp6KqGBOwatVKNmxYz+RYzKH9DQiaBMXGGS2HGbNHNP+7uP9OacinQLsNhYIQhif1+EZTmXE/SZB/4RKD0/NpMWR5q/FKFa7ZDJuuh7UbhLDgKr1PRgSkAHIdcJekZt0PDwzVPvhr4ZG/+IN6ckkL8Vw2eIthCSI2O4ayu7s3dZuVTU2lMS197SZRIdJapU9rYdHGM1VlF3IpUbI0YnK0j2uuvo43vukWyqUy1l6618Jai7XK5i3X8XMfuptbXvuTmOY2suZQHiw41XLQGcshy/JK68yS5hXX7np5kPZsr09cIVyWF8OZgmJC5WLek4VArbOCiiW4+jrhhluFLTcKA8MucH7+HCQZUPQXUfOf46mB/+Hzj2y9yVsPSwNvMSxB3vL+6jE02o1LnrlKkGq37p2bBsamEqUJoUE0LEvLFFQvtLWGMZbasQGmRlbz5tvv4OabXwdwSdbCqVhrGRjoZ+Oma5kab3Pg5Skj8ABBAAAgAElEQVQIakgh7z53pteG0Nn3XHwBjJGZTKx2rBQKQqFwhufnn1IroHn8IchDNXOctzBXi0HzgUaFIqxcB9ftFNZvgZ5+9/XTrYSzk9tCKxFuU+TVP9y/ovC+Twwf+usvHJ++qEV5Liu8MCxBvv1Xk+m3/vrovre9e/XjEshuVS0hXCN0J92wU5mrKoFNKWQJEgZkYYmmMQTWOvfSmZ+siFEmDg4SZdfxjne+ndWrV5NdQmtTId/ATwkmqyo9PT2svWot0xMxRw9PoOE4mIQzisNM8Nn9xZzgShIR2rESFQyFUM6mLfmNTxCIAGc96MW5l+YiDB0BCgIYXgMbtgsbtgoDw87NlWWz6akXjxRANgC3WpFt7/74cPyuX45e+ZvP1rx76QrEC8MS5r999Uj9X/78kWdG2ysfN2IOga4FhqVLrdbyudOCldCmFLJMJIg0LpSloUpBM0T15PRWNx/aMHV4Bddd/QbecsdtRFE0Z2vBGMGYgHackqkSnLKJWmvp7+/nmvXXcHhkisOHj2CKk66Nxmnxhtm9e3a2wwkWQwJR5HzzFxRT0Zm6OkwAJpCZz5//dV24MHSSAIIA+ofh2u3C+i3C0EoIQ2YGG80LIlVghyC3kZY2vOuTK0Y/+uurjj/4e0d9cdwVhBeGJc6DD6Lf/uujY+/++ejJtF1+DFFVuEag3LVenPkxW62EWUKoGRTLthYUycgwNp/90GmH3a6VmTy4mte+5jZufPX1wNzcSMYYMhX+8flD/PHfP40IrF/Vd9pG2rEcVq5Yxe4XjzA+6VppnLD4U1+KEwQ6loNTiTiGqOAa2s2ksV4ArtmfK4g4Mb31XAWDFyIMms+VAOjpg/VbYOMOYXAVRMXZx8w3uXtpELjJWG6P2xq945ODr3zsvrHGg59eajXhSxMffF4m/PrdB5r/68ef/kEpDH9DhF8B/bqiE11fiEqQJZQbE0Fflkga9dpaqWqbEqh1bayVpFmk3SixctXwnDORRASrwlcefp5P/Kev8jsP/COZhTAITtsMO+msm67byM9+8MMMlW4ibQznVsOpj81nPuQT43RmWFA+VjSPX5/S8fv8b4u6ALVNBRNClLcan8vG3alFyDIoV2HDVrjxNmHjDqHSk1s+dmFE4UQEKSJyo1U+E2TB5yYe2fGe+x7bOaTq953LHf8NWkaIoL/x0R/V033P/GVA/HGB/13R74M2z//seV6JUIgbDLSmTMkIzXKvnY7Ktm2MZjYTquVeBgb6ZzbtiyUMA554YYTf+qOHefGlw6xfN8h1Vw2d43Ttso+2bd/C2+58FzQ2YJMI5MyRWNeN1QmCZoqmOjsPQuceKNcU4mY+fzrK5z0bZgTnfHSyiaIiXL0JbngDbH+N0Dt4QnPALiNIBfgpE3KfUfubv/vNHbf47KXLG98SYxny6U9jYdfRBx7gd55vbP8OGnwI1fepslG60RQvR0TEZpQbU0RRSVqmoNNxYotJpj0rV6ySgf7+ObqQhHo75S8feZ4nd49CFPKWG69h1UAZtWe/nrWWQiHg5ptfxwsvvJUnXxijvGqfm+9gzWxmUW4OqAo2P50rmk+PE6w1uNZSOuNuuvA3xT08bQk2UMIiRGUlS13DvrO117B5C4sogqHVcNW1sGKNEBUhTRa3p58YCAMkS7QydoyPvrJbV3xqDx8CfGD6MsULwzLm7rvJ4Pkf/NYDVz9br/V/S+DnQP8ZyHC31pAHqIOkTTVrajDVtIKI9PcN0dPbM6drGjGMjk/x4+dHyIAgNGy/eohSVDiv0KRpxspVw7z9bW9j/4HdTDXHKfYfdxPbMjlJHKwFRLGZ2607p3VrFTGCmovThBNxA3mEuOEsh7CgmDJkMTP1ELNrdkHkwZWwbqOw8iooVdxakkXeeoMQrGp7aozWK7u1Obqf3kZdtpkjOwWeXdzFec6KFwYPv373gSYc+JvP/NGWJ9UWHka5G7ijU6fbDcSATaWUtkFSoTJQJipG7msX0ZXPpY8aXhmdZN/IhEtTNUKlVMhTaM9/ds6yjM1bNvDGN9zB1/5hL2mpTliMsZnBpieklaprtmfzT3XaZKgVN3NacnGYY4fVTnV1lgg2dW01gkKe3pp3b1ULAytgzXph9dVQzWvd00UWBJfCq1ltktqh/Rof2ktQm6IPpBKEanXn4q7Pc268MHhm+N8+9tLBex7i88HLOx4Ra94H+mFVtop0s/7BzUOIoiLhHEeTpZll18gYB6ebmCiEPDh8oVhriYpF7rjzTezdt4dn9h+BoYNurGfkprXZdNbvb20+zqdjMWTOYjB5bOBSu83OdAFPnBgEoWvO1zOobOo1XHUt9Pbn4potThzhpLWi2m7QPLxf64dfJpoYp2qVUhiIyeMl53DoeS4HvDB4TuLTd5LCc8/c88DOl4vWPiWp+Q2byVu6N6JF84I0c1GWAkBgDIqSZJajE01qSUYQGDTJaCep67Z6gW0osixj5coV3HbbG9j78o+Im5NIuY6YwDXDM7PznjuVxC7G4OIMRt3HQJzlcMmR1pnKaUhjtwGXS8KqFVAdUJTFFQURUNQmsaRHDjJxaJ9Gk2NUs5SSgBRCP2vuSsILg+ckVJEvfHdbT0p6kxH5oE31+rhpaUwKSSOfq7ygv+KSu2XSi8pGUoXJZsxAtYhNM1qJe34Qug7guw9N0IoTekoFsgvcPa21vP7m1/L007fx2I9fIoiazkWUCRIqQaRo6qQsy1NVOzEGawVjXIDaHaKZe8DhLK83S4Tpo0LSspT7lUKxU3E+f/c5H2LAGNU4Jh4/QuPALpuOH6UnTSiKkcD4SqkrEi8MnhnufWJt5XOP9b4KkbuNml/A6goTEJbyqWTNaaU5JSStTr+ghVmHAO04JklTShfyeIEktfzDk3t53Za1rBnsIQoNYozbJMOAx54fYazWprcccaE5OtZaisUir37NTTz34quox+MEpaYrPsv9/mGkGOPcS7OtusWlsBpBO+KwQO9VlkJ9zNCuQWXQUupxcQhYWIEwBiRQa1OS40dojOzR9uh+KklKX+AF4YrH1zF4eOCZndG9j227QVr9v4Y194vyPwJrOCG2EBSUniFlYI1SHbQEwcIUSYkABhqNadqt1gU/LzDCsfEGn/urH2JVGegpUi4EqLWYQHjm5WNM1lsXrWZZlvHa176G6zbuxDZW5a25OyPbIG27mQuFSOkfdoVpNtO8nkHzqmZd2HRRgSSGqSOGycOG5rSbGucCwPN8K3ExDhHi6TGmX3yKyR89gn3lJRnKVPqCQAJfoXDl4y2GZc4XH9+xZXI8u8sgH1a4RZDimR7XEYBCWekvQrFqaUwI7Xq+CZ0+ymDOiMD4+Di1Wo2VK1fmsYGzX9z1ARKqpQJfffRF3n/HdjZfNcTKniIHjtWQ/AQ9Pt3CziHsGQQBb7ztdnbve5p6PEoQnTzV0qbOinKndXVzo1XJMsEEilVxvWcWcP5z5+1p1oS4JbR7lOqQUijmBXLz0AspCAElrtc0O7SXqcMva2lqXCoS0BNGl359z+WDF4Zlyhe+c901mRRuT1N+QVVuE5HBC9mzOiJQ7lMKZaU1JS7+0HY5m5d+QhWCwHJ87BAT45Ow8QKfJcJVQz2MHp7kKw+/yL/4qRtY31th/8EJqBRJM+WbP9zHG7aupVAITkpbPZ/wAOx81Q6uWn0du0b2QLSXk3Z4cUVuzSkhKgnFqjoXE87FJAJqzn+P+cDNxID6hBA3hXK/UunPBWuOlc8dt1GzTvvIQWojezScOC5VtdITFlgwsfMsHl4Ylhn3PrGpP2hFd2XKzyHyZmDNxW5YqqB52mR1SCmUoTkF7Rqk8SX601UolJvYYJxWK52dq3weBChFIe0k4592j9KKd7B6sILmR+V2kvLVR1/iX//0LUSFYMa1Y0QIQucQT9Izp1510mff9Ma38PJXniS1ryDmhCO4guTFCkmcr0eVcq8ShBZNjattCOZe03AxSF47kbQhPSrEdSgPQKlHMcGFWw8iriNruwVHR1QP7iUZOyrlLKUUBISdWIZn6eGFYZnwOy9tLpYPB7dpiw9beLsIG7jELapjPQSh20BKvUqWQFyX2elfF3kHVSGsNCn3t2k1XJVWp7bh3M+D49NNssCwa98RXhoZZ8XaQQhD1wZDhOO1Fs+9cpxbt68Fda0zWonl0af2ExjhDdvWUopC7BnuFQSGTddtor96Dcfb+6F8GDQ46f5Ip57BuXNEoNzjWloIkLW7eLTO50WoQrvuLLq4rpT7lah87ulxHR22GRw9CAdfVo4fwiQxVWMIzjiIyLOk8MHnJc4Dz+yMPvedrTeWjoSfUeRewXxMkGvnMyypGbQbQmvaIAYqQ7PN37jA5m+zCEFoCcKUQ4cO02o1MebcP6YiYIGn9h4lQanX24xPNxkcrEAegA5EGJts8KVvPo0iBEY4NN7g03/4Hf7Vb/4VL+47RhCcPZXGWsvgwACvvelWsrjMGRVPOaEoWslStynHDedmK/ZaguJswVo36Myathk0JoXJw4bpY4Ysnv36mR47cRyefUJ57ofK6CuQpSJB6LONlgveYlii3PsEhSjdce3kmH0PxvwLsWxG5EKyPy+efHNJ8z4+hSIUeyyFCrRrQtrmogKvRgLUtNm3/0UmJ29n1aozxsNnCIzh0HiDh398gBRIM6UVZ/RVIqKCwapiBFrtjB/vOcLoRJ2Baok/+vpTfO4r/0hL4eo1/RQKAfYck+LKlRLXrN9AaFdBehTC2klWA5zQWVVni9+yGGJ1QfpCWaGQZzNdxAjNS0VO+B7Vx4S4HlAZsBTz9FbJYxO1CRjZB0dGlFbDWYWBwccRlhleGJYg//dDGwZoFN+VhvwKwquBYjcin52TcNKCpGUoVp2fPS1C3HAFWcp5bBUFwRBWJhk7tp/6dBtWnf0JIkJilT/+5tN877mD+SUsaZbRTjK3SecNY4PQ8PSeIzzwred5122b+db3dzPRTFixZoByqXDuaZx5W+51V63jug038uLhF2YCurOPcb5915LbVUKrWhSDtZC03byFQlnzjqnuczpHt9tc6Lz3SQumRg3FmlIeUFKrHB2Bkb1Ks8bM96l7vXY9lxP+274EaR2tvrY+Ht5jY321GDGL1YygNS3Ux90g0XI/FHv1vPUPimtXXRmoI4Uao6Nj58waCoKAx545yJ/+/Y+ZbiWICKExBIFhbKpJkmQzzzVGqDVjHn/uIM/tP8b0dHNmGtuFpOuoKqtWr2TtmmtoNyJEXf7mqa/A9VBSsC5mMuNNy28TN4RWQzABlKouu4uLmLkwL+SN/1p1Yfwguuuf4KUfKY1p9zXfwGJ544VhCRKPSbV2TKLxEWMbkzJpLU2MJt12B4jJK3PHhXbdFYFVBvL4g8yOnTwVVYiKAe1sjGef/RGtVvuMwmCMkFnla9/bzbN7jhDknVQJDCPHp9m97xiS6cxwHlWwgeGRH+3n757YiwSBq9TKMtLs/EVoqkqhEDI8tIoSG9AsOm3KW0cT1LpBPmp1Ngson+PQcdu4KnIICi5jqBAxIx7dwhiwmUir4f7tLQQPeFfSksQUNdFMtF03lbSNtqok1SFtFstawVBS273zYOdOcUNI20JUUUo9UCgq7YbztZ92QlUhMErQM8LRsZdp1mPK5eJpQmLEsP/oFM+/cowkMBSMm8Ncs/Dgt19gcrJBUCrkYz6VJMuIwoDjtRZ/8/gu6o02QSmi3Upopxfm8DdGuO66Laxds4kD00+50/6J5LGUzuFf0ZkK6M7npFPvIc6VlKUQFp3lYKLZauqufJcUJBCoGGzDYjL18QSPtxiWIta6A7YJwGZUW1PSMz5iilPHTDONZXyxrAdroVVz7iXFFV6V+0/Nrc93VlF6hmLGJkfYs2df7vOWU64pvHBgnBf2HHX/FpciGlvL3tFJJuOUoOBmRkeh4Z/fch3FQkCG8PKRKcabCYUoQJsJNrHndeOoKoqyevVK+nsHSdsRcsqv0InuoJnOq3p2N1HnfYmbroochUIpTymlC9ZDIGjLUnq+QXE6I/WpqB68MCx5XL8cCWxMtXbU9E4clEJj3Exbq5PIfDRKuIi15JZBlkBz0vX0CUKoDjr3Uv4owPnmSxVDPd3LS7ueJ26nZ3QnjU80mD42jdHZk64BojAgyAciqLp/v/PmTawb7gWUKAwIjYuWK7BvdJI0yzhvQEahEAVEYS+0V7u7yalvo84IgeuVRN4vSc8sDp33JXU1IEkTJIByr+uYupBxBw2FpG0ZfGyCd/7dOFtGEqyRBbulqqr4feeyx3+DlgMCYkREKMRN6ZkalerEiKFdk+OothC13bQgOvUNSUtoTLg8/6gCPUNKz0A+DjIzmDClMjzGgZE9HD1ybCZWcCI2zdAkO235oRGKhSCvLVAyq1RKET9z+zY0tTNuGlWwUcg/PPUy47UWcp6aCVcFHXLV2msoF4bJstO1dbaWgZk2FHriF872vuTupSx1Lc6TtlAoKqW+3Ko699PnjDVCmCk3vtzimqOJ6xO4AD8PCrHAjxX+gGef7dqED8/F44VhOZELhKoU2zXpmzhs+qaOmVrSpoYSi3Qx7JmfktVCuwGNCQErrFwLxaq66WcWqn0ZB0Z/zMv79+fT0E7escJCiCmGJ22aWWYphoZbd1zFlnWDiLpZzv3VEjdvWQNxepID3wTCk3uOMFE7uTnemXDCELFp00Yq1Z68FuH0t01RVPS0iu0LSTzqJEklscsayhLXf6lYyhvinXeVF4eooiSkxHNqMnheVBNU9wC/K5J+eCrLvvDgg3hhuIzxwedliNsTRTSl2BgnateDZqXfTpX7KAchBSDqmkS42DM2c/EH0xZKVSXoU9K2QUyDQu9Rnn/uWW644VX09FRmN1tV1q/tZ921Kzn00uGZFh0iwmQjZuPaAe569QZ++/6HqaUZK/vLZAq9Qz3UWvGs20iEZjtlutGpxDs77t5C/0A/UVjGtkIonhK41hP+5MFndwy/6LcGta7mIEtca41iwRXMJbHMi0KItUgYYDZvQlsNNOjMLL10VDVD2C/wkIUvTKfpE1//3d0x3UvK9cwRbzEsZ3KByNpSmT4S9E8eMklrmmlVbYpouhi57DZx6a1JywVhy31K3+o6Tz//KCMHD51kMVhVdqwf5qYtawg6eaK4wrJAlS3rhti2bhjTTHjTq65m87oh+qtF1g5VT5oBLUCcZvz45WNk9sK8aoVCQBiUISuf/UHzuP3ZTGjWDGk7T2+tKkHoLKvzeL/OiaYphAHl97yf3s/8e6Jbbob00sVBlUMIX1Grv14IJ371gd9+4btf/91d51dez2WBFwaPS68UCs2aGRg/FJQmD5tm3JRJRJsSdDdADe7U324IjQlDFgf0r5ugtGKU733/cdrteEYcsszSVy1x9YoeQvLTvADW0hMErOqvUK1G3PCaDfzaB29h5UCVOLW00oxT96d2kvFXj75IO7GuFuIcqCpBaAhNBbFVzuogmmdhFVx6a6vu2m0kqTI1odjMNTGcq5BragmkSPUdP0XhdTflFs7c9m9Fx1Tt36H2f7Zh69ce+H9e/Ms//j9H63NbmWex8K4kD+A2HTGgGdX6uInihsaVAVsr92nbFLUsVopdL7yyrgisEAulwaP8+LnHuf3g7Vy7ccOMO8lay1tuXM+frR/m+QPHidRgM0tfpchgb4mbNq7kM7/8NnZeswIjcHyixsGRcfSUXTTLlN2vjNGOUyrR+TvFBYEhMEXISqjVs27K8x4PyOMySVOYnoCDr2QMDBmGhg2VCucsHDz7NQUKeQ/tc/SKOieqLRX+EeXPrGR//+Bv7941twt5Lge8MHhOIu/lX0hjKUwdNUFzWuOeIa2VejQmoIrtXm3sTBFYyxAW6yTmAN9++Fus3/CRmcdkWcabdl7Nra9ax66DY1irWISt29ayff0wqwarrBqsYK2SJBmvHBxjx6p+woEqP3xhhEIUztwrRTl4fJrBnnM37QNX6CZaIAhDCiU9c6PAPH4y322qOumt1kI7Vo4fs9RryuCQMDBoiKKLEAfjytPjfbuIjx6ZbRFyESj6lAgPIPo1e+DFp31g+crHC4PndDoZQyqluEE0EUtcrGq7MqjjUVl7zjb+c8GWY0BEqaw8xDPPPsmzz7yW62+4AZvvfqERPvmOV/Pwj15h98ExKqHhjTdew8bVA9jMuscJpNYSA++4YwdZkvHEUy9DLgzGuID1k7tGuWHjStcF77wLcxtoEEEQKkkrb4iXv39yYhbVyR/m532RWRdSq6WMjiq1mjI4aOjtFwJzAR6hIEBtTPO/fo3JHxyl/aq2u+h5X75a4KDCn6hkfxWZ6R97l9HSwccYPGfFVU+LUSul5qT0To6Ycu2Iqaepjiua0MX0VlWh0t8iLb7AI999lGazOTM/warldVvW8JG3XU8xCokMDPeUCQODVTuzx4VByNqV/ZQrRYrhybumAONTTb7/wuHTqpnPsiJE8sFEDSFNhEZLidN8DgWuPQd5NfYphsS8IsJMeu/0lHJoJGPkQEa9rjNfP9eTVQwyMUH2ja+RPf10PsvzzE+yqqm1HLfKH6rlo7Yd/LsHfmvX414UlhZeGDznpSMQNpVKbUL6Jg4GYWtSJjSjAbPZSwstEyaw9K4+zgu7v8/jjz0xE2dQhTAQPvr2G7h1yxpsK6EZp/l6ZhvoGQOrBipcNVRl7doBKj0lsnS253XcSjhyaOKCdm6bt+EWZCalNG4pJnRppWHkBGLmUnKJI08vgI5ApClMjCsHXsk4MmqJ27Pup9Oek/9PwojQRhh7+oPUOtdUlulRY/gLg35cpf4b2wde+M6Dv/dsbWFflWcx8K4kz4UjICph0qJ3YtSUyzWdqgxqHBS0KIEtgXGdKRZoA1RrKPU2aQ7t5uGHv811mzeyceN6kiQlyyxXr+zl337kzfzKK8f54Y/2c+Qnb2BVX5m0E1BVy471Q2y9eogDx6bZubqPH+w9RtAX0hmiYM8y9/lUbGbJrEVFZ98bwCZCGgvFspv3HOQ+e9ETHrTAzDQubMPRUUttWhkaNvT2CYXCCb2bADIliAz1bT08pQmHBwJnCKoTA7UQFmBgBfQO8mLvAL+Xrmk9/uk7D7QW/pV4FgtvMXgujo7/HAmbNTM0cdBU6mPSDIs6Xazalgn0UrIdz397MfSunOTo9A/5h7//NtPTdYIgyE/vyu03reff/NKd7B0Z5xtP7D1pfrMqDFaLrBqosnqwyrXXDLsmcp14ggganP9XQkTIsowsa4PEJ37B3SeFuCVufnVJiKpKEOWaMIdCt7nSCd43GsrIwYyRgxnTU4q1J3iLUqUQCuOv7+Uv3j3I8+sjJHVtwQH6h2HzDcKrbha2vUZuXbvBfHpdsfSx+x7dsaFrL8TTdbzF4JkzLjNGirUJgmJR2sWq1sOSzZKGhHHLFDVzzeDmE7VCsZIwsOEA3/+nb7Bu3Tre9pNvwRiDtUpoDB+463qmM8v3nj3ArduvYtPa/plAtVXQLGP1QJU7bt7Ef/vhPqaSFBOFhMWQ/uGeC8oxTRNLZpsQtE4zkcSAQbBtQ2og7IFCxSJqsInMVGh3i04G08S40qhb+vuFwWGhXBaXlJQpkilh6moixEC1H9auhzXXCL0D7i2xqQTAWwR5tare9bnvbv2TxLa+88tv3j/evVfj6QbeYliCFMravbCwgBEJ45ZU6+PSk7UkK/UwVem304WSZvYc09rmSpYZeoebVFbv59vf+SZ79+wnDN0ZJ80s5YLhQ2/dyV2vu5bR8RpJZk9KwVT9/9l7tyC5sutKbO19zrn3ZmZVAQWgutEPNvrFJokmKVpNU1QoPD2yLVHWjCfCjujxz0Q4wpZi7B//OBz+8Ictx8gOeyzLY83DI5FSjBU2R2pyqAclx2jCI9G2KEoavprd6Ebj0Xg2XgXUOx/3nrO3P06erFtZWUChXqhu3hWBAJCVdfNmZtVduffaa22Fs4xPfmQOjzFDfYACaBcOP/LC4/flhXSchYVFdAdLINtLL8Pw66nXHze0QQlhYOD7DDJAPqVwhY7C9Q4KSX8oS8X8vODqZcGdO4JBObzoS0x3bU8Bp14ifPrzhBc+SZg5Fq0NsqHDRjMgeg3C/7Oj9i9+6U8//uO//dbp7OCeTYP9RkMMH0LM38jj0pcDfHeJAVHK+2vUWb1H06ooWzO62JqR7sZ9C3sAJYgQjj+zgFX9Lr7++1/H3fl7MMbE+OogODqV46deeR7PnTyy9RpRESAIAEIIghPTBV795NP3vWITEcpygHfPnsfq2gJsXiHFkRIpaLhFjjiRAw03thF8j+BLwOSKfEpg7B6/LttA+pnodRXXrgquXo7b66aPAE89T3j5c4SXfgSYnYtk56v7HIzoeSh+XgS/srgg//mv/fmLTx/Ec2iw/2iI4cMHevs72RvL8/a3lGUe9LA+2F08cAywM+Kp6C7Rkd4yF+xo0DkaFrO27KnpSYVhbMDcCzdx7vo38Nu/9RUsLCyCh1c+7wMKyzg520acTF2/2DMz+lXAdy7cws3SQ1UxlVv8J//uj+Ljp05A7nOqzIzV1VVcuXIVVdUHW19/7vGTORGYCGRSLz+2bGL1QCjXCCKxvZRPbe2a3lcQMDUNPP4McOxpxbMvA594BZh7Msae+2qbJjkiC6JXAPyXqOwXf+1PX/pb/+CPT0+pNnvgPsjY4w5wg0eKV1+1L5149tjSzdbMzeutm1WPLxZttUVLHydWd1Cd7aE4zRLU+T5ZBTRvY83mguDJ6HgexQ6hwrBZQNYa4PKFJfS7Fh/96AvIMjfctjbp3AjEjG98/zL+0Ze/ibvLPXzyE0/hv/gPPo//8Kc/jXZut4yeJiIYY3DlynX8+V98C11/EaZ1bzjyyfBe4TJGnhOMYxhLMJZhTGwrEdFIgB5pDUbhWsPbHoI6mYFeF1hakte5KpQAACAASURBVIl7Kia+XsOJsaINPP0C4cVPEh5/Gig6QJYPfW2ysyqGQIUCzxP4J4yRj337+onb//7fmrrzu/9kaXs7UxscKjSs/qHAa+b5Vxamplkf94bnIOiEQMpGw/ET1exLn+p+7vFn+j/TaoeXmFCo0oH2t6GqbOBtC6t5oTToU+H7yCUQbYqR2AlI0bt3BL2bn8BP/Ot/DT/1hX8LU1NTCBNyf4jiWtErt5Zx/dYSploZ5o5P47HZDpyhiYt3EqLALfi//vCP8PU//Ar0yBvg7O5QYSd0u4pOh9HuMKwjOMcwLraTDNNoSmj0sgz/y05hCwUk7sUWX/viFjAGuDuvuHLZw5it75gmxAhA3gKOnwSefDZqB9YNiWCvfxZUPQiXlPCbztCXS/v2pb/9WdyvKdXgkKGpGD7Y4E9/+qfaR58tn8gMnyLVOQXlRKRESgTw2qrrv3+leK+7ZH+Q5dLLWnLUOJliButBjU4SkSqZUKEInuAKXcsLqJKKCgyESLG7esa1Snjp49235zHoAs8+ewpFK9/y0//RqRynnpjFyRMzmGlnYOCBS2qMMbh16xb+xR/937izcA52+ibAHkRR2/AC5BkjL4bVgokVAzOi7gBsuNinf0qIFQQx4AqAbZy+Sq2cSa/LdiqGJPxnOXDiJPDcJwgfeZHQmV53Su8LiBjALIF+QgQ/Sv5E9bM/Pzv/B1+6t7JPj9hgj9EQwwcUp069Wpx8/qNz6vSUNXicg7SISBkQqIKGcRHxJtDiQr50+XzrBwZ0vpgKmmUy6xw6wHAv8YGASIWc76GlQD9r6cAV6qHEEmLA9/jFc5vHBUiRt3tQ6uPS+buYv9XDyScex9GjRzdtUUvQoXt5q7ZTHcyMEAK++c0/w1/85Z/BzFwHsnsg4igyMyEIUBSMrIgVgzHxdmICj1ULG1+V+Lf42E5yGZC1hnlVgUYX8DpB3I8Yoks5agXHHwOe+zjh1McIR44Pj3Eg1SIR4vXlFICfJOVTf+Pnjq/99f/0yPzXf3XhwavyGjxSNMTwAcPp06ezI0999ljriD5tHD9BZNpEClIOaqAChhKBUw8hXjWISJkC4eq17Prt6/kbWSHXilzbLpMjxmp+cOQQzyaUVJQlWWb0XRulySBQtTsPjiAQK/LpLoRW8e5bt3DzehdzJ47h+PFjYOYtCWI7MIbx7rvn8PXf/0Ms96/AzlwF2RLMJlYGhmLFUDCKIlUKY9rCdqI2QnROE8VFRTbpD8P2Unp1JhGDahw5ZQMcPQ4893Hg2U8Qjp+MraeDG0MYBxWk9Gli+rHc8hN/4z+evfY7v3Zv/hd+4VGdT4MHoSGGDwxeM8+/8uSMc+0nrJUnwDRNRCAhD4GIERiNcQZKRErDkbNa9aCkZIy6tbW8vHy2dWFtzXw/y3QxL2TWZTILgA6KIOInVzJ+gMxXZLJMe67QUA7IVwM4JtpBWnW8ABfTfRQzPVy+MI/zb98BG8ZTTz0B59xDk0MSnK9evYp/9tXfweWrF5Aduw4u7o5IwVqGsYwghKJg5DmD64LzfaqFSa+LKhDKSBBsolhs3LDlFIa6xBgxhBBbQzOzwDMfJbxwmjD3FCHLI1kcqKY0AS4DVDE9fxufPfddOv6tf373977xDTwyqmpwfzTEcPhBp0+/OnXyOZ3LrJxU0DQAkCIoGzEkUDCREMQohBRWWcGK8eqBjAERK1tvDWAX54uVaxeLd73yO8bpoOj4OWvR0QlBavvyxOKIJ6uQDQNyZQ/V3XuyUEzRdHsK7Ae04VPyNo8KAMjafbRnV3H3zjK+/+2ruHd3EXlhMTc3B2aOIvR9WkxA1BSMMbh48SJef/0rOPvOWeRH7sIeuQq2Gpf1WIZ1kQh8AIqckeUcA/R4mNP6kC9nMsmpAH5IELaI4XxxfUIkwF4PWFwUSCC0OnHS6IVPEk4+E4XmFH73KMEMWKt+ZRFLl87q6oU34RbuoH2n9fivnvnGnWZvwyFFQwyHF3Tq1KvFqZdfOmYMzQXCTAhiQBwAElVVAyVRhWEApIAYgEFKqkY4hqGNE4QIiIyCATJiRY3eeM/dvnezeDN4eq+YClnRkhMADna8lWAGfaWlJe0fO0FTWRvs8qEIGx6eHFQYtqjQmV0DuIuzb97Au+9cwfzdO8iyDNPT06MLfzwHGvoNeHRbv9/Hn//5X+CrX/0qLly4gPaxReTHL8NmfRhrYC2NtARjCN4DWc7I8nU/w24mrkYLeQLgBwRIFKezVhxZWlkEVtcUTz1L+OinCE+9ALSHm0b31jWys3M3RrXso3vlHC2++4bi5lXM+AFyItxEi3+tIYbDi2Zc9fCBXnnlFev9VKeybobB7cAxccgNP8qLMSwSWFXIWUvx30pqLBkJrGpIjbCqklVD8WtKqkyAklElHTrBdNg7KisNRsk/9Wz/xLMfW/v8088P/j3j9BkCZQfRhiACyoGUd27p/OMn+aTNiV1LYXNFKAlll3Y2X88CKKG/MoXFayfQvXcMc8efwJNPPo0XX3wRL7zwAubm5qAqYGYwMxYXFvHOO+/gzNtv48KFC1hbW8bU3CKmnrkMm63B9w1Uh0Ri1oXllVVFux0ziGivN/PEFA2wUWQF4FrA2ppCSfHYk3HySA5BhTA0amioqLr9vi5fO69YvIu2euTsyMRWmX5Pjpgfe/0XzpQPOlyDR4MmRO9Q4TVz+vTt1hqKaed8Sw0ZI0EMIKKORInEBLYBIKsqYtgHIVXVRBDDUoKMqKowByukqmQlEoQwcSDAiIiqEsVkUnIWlgjmxpVi4dbN7J/fuNp768WXuz997ET5kybDY5FP9vfZKxD9ssM2SrkW5/qztqKYUVT92HtPW9K2dUyJu0qLmRU89lIPg9V7WLl1F2fOXcK5C2dguUCraGN6egaqgtXVNXS7XfT6PQTpwbX7OP7cPNyR2zCmhDEG2VGCeiBUNNL3VQFiHQrNe0wKw2MR4pTSYA2oBkDeBqZPANZp1BgeoY4Qd0+oDvoolxdQXj0n3YV5HC1LGMNkuUlS+kChIYbDAT516tWs88Ry28G0SqpsKU5yFRUFBWtZNZANhjlAghOVYNiaAFVLIuDKezhrRVVJJVBgA4MABEOkSokgjDDUKAUwGUiMJI0EQapKMOq0ZH3v3elr718ufvOjn+p+99mPdn+mcyR8xlo9rrqzT+4PiyTCSgX0Vwgmiw5hm8X9ykl/2NbFV2MENpuA1pFlFNOr8IMc/cV5LC8U6PUcVgataAajCuQCWm1FNtVFNn0PJushDrQaSBUf0hWKrBVHTEMZx0OT+L2vdfjw2MHH16XqE1pHBK1phR1efA+SIKJHQ9WXGCzdJX/9svTu3KBW1ccJIjK2aVZ/INEQw6MFnT592vVbT7baVopqEIxxOVkghFBxlQkJOcp8TBUIltWFwOIdkYoGUrUSeGP1ENtLkIDABlYjISSCEKtqhFlYOCD2WQxiFHUUp0mVlEiDKUuWN7915Lvvv9e68LHPLP/Y408P/u3OVDhtLLW8PyhzHAAFwoAgFWALhWvHDWlVL67UBLanQYwmrljgWrEa8C0BK6NTtCBCYONBxoNYoJD1MqY2rUUC+F4UhF2hcDlQ9Qm8hgNrzqbnG0pgZZ5RrilaM4piOm6R2+/0VuKoIYSAcuku+jfeQ3nzqph+D7PMsNuN6WhwONHw+aMB4dVX7aePvNSSqaPtjEMuEohZNIjREDycdWC1iuAhmaonBxc8goqKMyqsasVCrCAEAxsFBQUMRBSiqpYIIgIxFoZkJFCrqm45vSQCWo9lJTJiumu2f/lC69xg1b5VdGTZODnaaskxYO/McTEVVUN3Db2pKZpiM+FSPxzjFA+QjZM3bBQSYntp+5/Wh2moAPq92ALqTFcwrgKbMBJ9afiPmK8U/yAlpxLFaqEisAXyjiJvAc7G2w8sGG/YYvJV1GF8GQP7jIt+hv0gB+sAkFZrK+heOYvVCz8A7tzQTgg0YwzxNp77TS34i434fHjREMOB4zVz6tRcdty6FpxmqkI+BPW+rXlBIPIg8ghi1NmSiDJQIJAIJFMNlKkLHpAAcUZdEEAI4lRFVK0QRgShETaOZqqwGREECSOwUPI+kEKFN4+3IsZJMzPMrVvZ4vXzrbeI6e0sF81zOWpzndqL8dZtEQPSlA5FghDA5HFKhyi2dR4mWoMI6PcjAeQ5D0mOEm9gtK1u0x8afQ061BoCUHQIWRFv99VORm13jtR684NIEBIANjS8iGNP3M5sAOtUu6tYuXGJ+me/p9Wtq5gq+5gylrKHeK4NMRxyNMRwcKDTp09nTzyR5X6as2lfEVcVkBdgY5WoQuUrBFHNsmxIDkGDGHXOY5wgLCwoBHhrIazqRBViNhAEYmsIQQKssSBVXa8ghvc3AmWokMIIgRSqBsogggiiMBF/TKxRK2r0+nv5rXu38u8Q09WiCEXRkTkAbjfVw3aJId2XKO5XDiUBNNQfcoWGYUWxjVNZJwagKHZsuB6RUjWILaesFZfxSCCEbZ7LXmD0ughQdglVN/KBdTEeYzfc4DKgGmD15mXtnnsD5dULOt3vosVMBVt62Pj+hhgOORpi2H8QXn3VnsKzWZZ1XL+dG5uvqc9ES57Rot+D8V65qkBFGwBQ+QpV1UJeEFQHJKqbCMLbAANDNFyvFayDsKoJFiSEYARmGOtM5FRUVVTVGhOrjaH/gTQSBAlBbWwxsTCl6kGJdKNBTtk62NU19tcvFpdXV+0bULrXmgonjNOZ2H3ewYv0EMRQ/570iT2UgHEEVyiMG04vPeAT+54Qw9i5+AoIVbwQ5x2Nuw22cS57iXr20mA42UUcCeJhz2H4mQC3rmm48Kb233sXdm0ZM8SUGUvbeJcmoiGGQ46GGPYXfPr0ade+0zHliWnuu1yPlpXa0im6ipA5qqzTAQGVsdoqSySCIKowGDjKhxesqD/UKgjJNYQwsb1kEVCvHkRZjREQWQQRiKqaOKaqqqqbDHJxcAlgBdFY/tIwe4lJDVsy925lqzeuF2f7K/ZM3pKqaIUTRGg9bKDFToghfuPwYiexvy5B1bW0zNpaqYIlbE1Ue0kM9XMRidWD+CiW5x0FJJr1DgqpegAiMZVdQvA00h7u/83r37t4Fzj/A+DSWcXiPDIAud05ISQ0xHDI0RDD/oDx6qvmdKdj1tbmGABMt1QcWUHPlbqKGUwDoH4f6PRgrFdoGwMCClVQOQDyAqm9VFUt+GDVOaFEEN4DzrqJ7aWgomIZqXogKxBRNRL9D0RORWS4CnOjQJ0qCDECIwwIAFYgkoPyMMB/OMEEMmKDZyzecXdvX8ve9IEudqZ9y1k9wgbFdsd0dkwMowPEvyQQ+QERE/qtKe0aBwoBRmXz7oc9J4bacZMW4ksCApB1FCYDIMNx373YQ/Ew5yKA7xPKHkFBMFYxlJA23ncYx72yBFx+V/XiW6CFeUA8kXHEvB1p+cFoiOGQoyGGvQe/8sorZnZpafhJdQ7GOIhUxKsWOh2ITReJHNBVaEuIzQDQNirrtGRG3u8R8iIe0AQFDVBVLWR5PKqqpRA8sixsaC95cnBEQPC16sGN2ksiFlYEMFGcDhJgrdXUXhpNMAlHwboWzrdpgomIRrsfGDwYkL99tXXt9s3ie62W3M0K6dhMjxiGfdBVcNfEUDsOlDhUyMoBweQ0KDrihx001truh/0ihvq5xMTT4bSQjXHabOM0lwY8lFi+23NB/LFA2Ru2lyi2vNgAabp0dQl4/3IkhLs3QFWZvAp7ejoNMRxyNMSwt+BXXnklxlc4B+89GbMEY5aQCEKXFLxqgSMrI3JIrSVTVopOD9A2Smak1lKdIFIFkWUliDx8yDEiCMkVwSM4wYbqodZeIisQKFJ7CTAIIZAqtE4Qqb1EalSMQEg3EQQPU9qG460xD5XU9NZc7+K54uyga99ut8OayeRIlslR0NbprXtFDPFg8Wwg5HyfWiJU2gxV1kZJgBGJux8AoD/YP2IAai0diVqIBILNhgt5OLadJu1b2C+sayHD8dYKIIb4SvH+ZaL33lbcvAIq+8OXcX+2wjfEcMjREMPegfHqq3wjy3Ajy/BkWZJz7r4EUW8t9V2uqYJI5JCqh3GCSNVDfbw1EUSeicJbeBsgBpvaS05USZ3ChnX/g7HDlpKO9IcN/gdh1NNbWZgmpreO/A/CzDDzt+3CtYvttwzRxawIIcv1uM20PanXHtsdKmt7QQyjg2L4KZlyPyADaHBt9LKWKgSQQGZtLX5aLlr7fFUeHl5D7PlDERNTizgrJP4ABeoaWUX9Abh2CbhyTqm7OqwQ0sju/qAhhkOOhhh2DwLAwGuEyx3gcgd4do3GCcIPrcJ1gtAlHbWWVNrUNRZ9l+tMj0f6wySCSOJ0ENWyzEfTS8yiPuRI4vR4e4lF1FsLIYETVTVKqXqwqprGW8enl9SwMgT16SUjDAZGBjkGNo23MsNoRXr5UvH+vVvZ953DdZtpq93xTwzjttdfRAK8h3RXdDA1Te09IYbasQEYX1HuBwAzqmJGe8YB1UANM5FzBzUyFP8KadQWQN4BbBbbS+I3nPO+nwszUJVEd24q9XvrU0j7jIYYDjkaYtgdap+rzqz/ufy5TQTxjOqoemi1WjoYdMgYB9ttqS7pSJxOBJGqB1NWaspKabrEgKY2tJjEWmITNE0vsTGa/A/eY1N7KbmnWVW9tYjmuM3tpfHpJVLB+PRS1B8UKd47jreyjhvklJStVbO6asprl6YuDtbo+8Zhsd0JR7JcZlVidzt6AVRX16ianqZiL4lh9GYRoELOD+B8RepydGeO66Bowfkem4Pq94/OZThq6wcEm0X/g7EHWz3E1pJidUUxKA/s+TfEcMjREMPOMf4rVPv/GQAvT6wgnhlmFBTFmqrOb2gv2W5LaXVtg/7AbMBsRiQhRUGVdZpLGBnkjFX1PuoPzjliYxSoRu2l8XgNA0PqK0reh3p7KU0v1auH+nhr3T2NwJTaS0Zow/RSIojUXmKGMaLm1u1s9fal9huDgXk7z4O0psPjUM2JiIJX6Xa1PzVNrf0gBmDY8wexeLiyxxkEkrWw5loqEmAlbCvSYe/OheIUUDWIf9scyApVVUXww5nffTyf9PjLy4pBvyGGBhENMewcW/0KDW9/ef3rD2gxpfZSvcVU1x9SBcFsRi2mevWQxlvZWPU+VhBptFXVRoNcTX8IohqsQ6aiLKJJoFbFKH9JhDbmL42qh3UYQyP9Qe0wfkNZ1wVqog3xGgyyRm0VmG9eyW7fvpV9P1T2UmcmTGeZzvqgrruGcmqfKob6OxQHqmB8iawaEDMRimldZktZqEDQg6KHdYJI00uAIm8T2SyOvO5rGN4jIAYi3NC8IYbDjIYYdob7/fpsbi0lkhgjiHH9AcAGckjTS2m8NRGELZ1Ka5XG9Ye6/6Esc/hgtWgFJfJxvFWMBhHNM1EKPNIfrCoheJCIBkswwQI2xPaSWKT2Uqoe6gJ1vb2UBGoGU/I/TF4vqmSsunKN/a2rxdWF2/kbWSssWKdT/b7y9AxN79G8/ANBRKRCLpRwwRMbi27ekQpKRgUMIdrPT+wbzwXRye2JQkXRPT2liPsphtNLe3wuB0oMqpUSXQD0db3wzjfOnNmLBKcG+4GGGB4e2/nVGbtPjRyAieQwLlBPGm+tE0QSqEPmiNig7p7WLCOiCqABfAjqnCNjVesTTM55wNsN5jhmjnqEJUxqL8V4DTtqMRlm2jK91choeim2l7ApXgOkBqxmdYlXr18uzq+t2DdNJveOHZenrJMZEAh7lN563zdrON4qnpyv4DQgZB3tZw4BIFKBUcX+71oYHj9drH0Vs5ZStDcNx1sh6/fd9cMdEDEo9D1Av6Iq/51S7/XXv7TcbG87xGiI4eGxXWIY87ZOIIfLHdx4qcIkgbreWho3x9UF6vr0UiKI+vQSELOXyjIfmeOAClVlqW6OC6Ka/A/j00sQs8EcR0YBMI1PL9UJgtSoGo2i9Qb9AWAg+h/SCAzDAKxLd+zC8r3Opbztb+aZmizXOeuQ7VW094OQ9IfgKfclGSJUWVv7JoeogFWID3KkFBi6pwfxPy6Pf9LtKrs/l/0mBoXehOJ3SfFLUtl//PrfP3vuzLeW/d4+SoO9xoH1UT9EeNjXbML9X9t426u3R/9/ZXWVAKDX6224T1meIgCoqi4BQHgiXi1CdYJmeyscZtfbUaGaoc6gyyIh3qfTIQmeROJ9ijxjX5UsUpBKoCIXEslJJZCoULCGcxUKwbO6jFSFbDCsKqROSEXJCrOYeJtIYGdtXB0qgUe7p4VZrdJ9d0+rEobb41SVKJBWHv7pFwbHP/6ZlZ84dqL8qfZUeEnBLhzUcqAhVAFjpefa1He5wPepKHtUhCq2lw5OhUCM8DbD6qGIm+2qQawedrPWkxkIXnHtqmBpUffM0KaqiwT8PwL6p+p6f/z63718c2+O3OAg0BDDzrCb1632va9tPs6rt2krcgAiQdTJIVQnCADmqgH5qFwizHoK1QxJqGh6uOKsahWjX3kJnjLHRkIkDu8djxNEcJ5dMKwiJCqUCCITIVFHgStjRxd+SzrcFGcNs0hgVSXDzPGCbwiqpFbJyPA2o6RKPE4OAKCq5AdUmVzppZe7H3nuY92fnp0r/6rL5GTwhg9ydWVc96neOa2KKawSoTXowVY9LlT2zRm8xcnEMtQ4oOgoqkqxcpfQasXdC2EHUu5eE4NCPRTfJMKXWeWP/s//5dzF3R2xwaNA00raOzwMWYwJ1BtbTDdeqjZpD61WS1OLKcu6mgRq0y01tHMaFIva5Vn0Xa7tFU/J++Az0QFNIcV7J4Ha+6BJfxh3Tyf/Q0pvTe7pUbw3CTZsjxu2l0YCtQistSoq2DDeWtv/YIRRN8cNWUFHArVRy4Ho1vX83s1r+RsgvOdyte0p/wQRrB7Q1NBovDWQK/twBPJ5G70sVxFRE6rheOsBtZdiOF/0Oty9BVy5FCBCcI6QZTs45B61koaE8D0F/QNi+h+WffiTr/2v5+d3drQGjxoNMew9tvurtYX+8Lri8udw48asJv3hTqejkyI2kkBNq2sbBOouz24K6BvQ1Kb0VmDj7ocN4nRte1x9eolFdNL2uBAMDAca/khRfbxVRMDMse8hBiTAZnNcjFFaT10iVVI2Dlx2rd64nF9dXHTfhfDN6ZlwxGQyO1xXfSAgAkgpjbca49DPp9C1Tm1VxtGrg/Y/dLvAwj1BtwusdWM5keXDZPRtnsuuiUG1AnCZoL8hRL8AWvvD3/7li7fO/8W9ZhT1A4yGGPYeO7k80Hr1AGwwyD27RgCwlf8hhKNUT28dD+hDV8F9HsV7J/9DSm+tb4+rE0Tl3ah6qE8vpXiNZJBL6a1pekmU1RoBwCSiqFcPw+UPGrfHMVI430bvQwznG4kOzCCjTKxued72b11tvbO8YN7MC3TbM/4xsLbooBo6Q/+DKtmqjyx4sCuwWnTUq5BROTiiYgZ6PWB5WcBMqCpgbVUxGMS2knNx9/ODsHNiUIHiBoDfJ6L/ppvhn37tl85eO/Ot5WoXT6vBIUFDDPuHHRJEwmb3NIANE0yTwvkSQSRySOF8KcF1PL21bo5LBLGpvZS8D5JHQ1zNIBeG1UMyx5GqqlE1Aeu7H2rtpVRBpO1xk9Jb1cTlQKP8peSeNmpAsAu33b3rV/K3qtKc7UxL5jI5yoz2wX5iJxZPrizhNBBcR1YlqAYPdxAeDGag1wWWliIxpIiNfh/orgHeA9YC1tIDt9htlxhG2o7qLZD+iSp+Ubj7j3/rly+ePfundwd7+gQbPFI0xLC/2OkFoqZBbDbHAdgw3uqcQ4rXyLKuVlVnRA5ptLVujqN+H+PZS1QOYHxQKtooy8GG3dPj+gPUEIlsiPeub4/TYChtj0v+B8CgXkEECbSxvbSe3mrUACw0yRwHgIjVBW/l5uXs5q3rrTdcEW4VuebGyayxcAc1U5HaS+IpK/ugO7f0rs3Rac8QQ/d3Ic84MYzOh+KUUrer6Hbjxdw6grWTL/rbIYb0PBS4C+ifBMHf76P6pa/9vQvfPvOt5d7eP7sGjxoNMew/9qZySKiRw5NlObq97p6um+PGw/k6EihlL6XqIZnjkv6w1e5pIEN997R6pRTOl9zT47unR/rD0D1NRAghUL29NMk9Xfc/CIjiXVTXCUIMWzWDvh1ce7d1qbfGZ7OWLlgnUzaTo4bBB+J/GArPEqArS7TaamE6b4NtoWATHcsie2+Om0QMo1MaEoSvgO6qYtCP7jznaFN66v2IQTWSjDHAkWNanTiJP5g6Kv/Vb/y37/6Ld/98cW3vnk2Dw4aGGA4Ge1A5bK4etmOOGyeI+mrRRA711aJ19zSwvhzI+7YWraCqA/Ihh6hq5jbqD/Xd08ESlKGjeO/a7ulUPaTVolvtnk67H0ihsb20ThAbdj9YYOFetnztYn5WAs7muQ5cLnNZjs5w1mnfoUDodbGaZTRNyiwCmEyRtYZuR9kbQ1rC/YghIbWXyhLorinKgcIYQpZF/SGZ9caJIW6di09q5ijwkReBZz9B+sRzRI8/Y7K/9nPH57/+pbu39+aZNDiMaHwMB4udmOPGmhG7M8fVjXHAuv8heR/S9ySD3Lg5TkKb2m1PEgLV/Q/BWwaA5H8IwTMAqMvIBc+ijsR6HjfHRY1ZyFlLIoGFDdvR7YbUCNcNcsLEk8xxAAAPVB5+5kTIX/7MyqdOfqT/szPH/WcZNOUr2ld+CKLl/C29OXMET7babFXjxZszRd6OF9uqG/cu6x6Y44wB7s4rrlz2MObBB0uRHi4jHJ0lzM7ScNAA8NW6j0E17oduTwGPPw089Rxh6ug6YajqGoC3Vek3KKt+7+c+d/467e9L2+ARoCGGR4NdVhDA/QgCiCQxiSAmOaeBzQRh3LLWHdRVka8b5MSThDYV+SCSOhl3+AAAIABJREFUh3dc5HHrjkhOIVSc3NMqQsFaTu5pALgfQdja/w0zizAnc1wiCGHhTe5pAJoMdZUJCqkef7acfunllZ986tnBz2aFvCCeMxHsC8aJAcCoUiEGXEfhMkUoCYMuQcLuyOFhiSEhBfG12oTjxwmzxxiq0Q9xd15RtIC5p4CnXyDMnqgTwqYj3QXhmwD9b0d45Y9f+/y1fkMQHx40xPDosUsNAthAEkOCSNUDMLmCmOSeBjYSBDA5XgOI7mlfZVzkAwaiexoAVAJlLlYSKV4jC563ck+rWrImcHJP1+M1VIWYyIy7p1Wjg7pePQDRMa28PqRZViYUVqpnXlp97oXT3S889tTgCwCOqrDZa/f0RGJIGD4WZ4qsHbUH3yOUvZ0v5NkpMQDDC/3QtX3kCOHoLGNlVUFW8dRzwGNPAtZtJ2pDA0DXAHyNGP97d64685999HwznfQhQEMMhwsP835MIIfXdUQSEwgCiCRRlqcoyy7r/SqI2d5KbA3VWkwSKuqUfU7k4Ks+S2gTAIy3lwAgc45DqFgzoXq8BgBYZhNkWEGYwPV4DZHAAGCYTMpeqreXoEpihFP1AACqTEZj2wkAYAyJxK9JRf2ZWZ9/5MXep1883f3ZqWn/CpiOKLBn+sN9iSFBAaVh3lFLQQr0Vzmu83zI6aVdE4MCbIDjjwGnXiJkBZAVQNGJl/uHqqxUvRLeJtUveovfu/n5s1d+gbBPtVmDg0BDDIcPuyCHhO1XEHVyADYSxKTqIeUv1fUHYL29tJX+ICqkmZCIo3oF4YLnIIZTOF+qICRlKk1oL00iiHr+EgCYYfWQfHKqJqiX6vjJcOxjn1n58SdP9b6Q5fISEbV0Dy5h2yIGIJLD8KLs2gqbK0IJVP2HI4idEINqPL7NgJlZ4MnngBMnIykwATLUF3ZOlroM6P9LrF/kIH/6H/0b5+/s9EgNHi0aYjh82IlAPQEbK4c6xvWH8eRWYL3FNFdFophEEACQKogkUG9FDpPSW8f1h3p6a6wWeJjQvTm9dVRB1BJcjTBvld6aqgc/4NJapWde6n/ko59a+TePHq/+Sp7rMwCZ3egP2yaGhNRecrG9RAyEAaEaEDSFSdznJ+FhiCG1jqyLhPDY08BjTxFanXXfw15CVW8Q4XdA4ctHuPev/uaPX2u8Dh8wNOOqhxu7IIkxY9zY9rj7jbemEdfknq6b48ZHXO8Xr5Fl5eZwPsqG+x4CDAyth/PF8daR/4EEVmiTOS7mLwlEFcxMCiaKE7Ab3NP1gL767gdjYViJ5m+5hcvnW2eM0wuZk8plesJm2gZ2Nt6qitBdw2peYNq5bUR0DP0PGgihIsjwk7zLY6NHhOh+463bGVdVjYF7xHHs9OkXCKc+RjjxBCHLY4WwF9XSpqdGNK3AKwT+3EDcsb/+88dvfv1Ld5tAvQ8Qmorhg4FdVhGTJ5juN966nemlePvm9hIQ9QdgffcDAIgUlLsqahfecnCeRRyl6kFUSKzlTISCGBYTtYakP4jESO+6OC1s2EjgcXF6y/FWrE8vUSAt1YRjjw2OnP706qcfe3Lwhakj/kfYoP2wux8eumKYAGLAFTJwbe2rJzdYQ8sP4lV/nGoeVDGE4Sqc9jRw8iOEk88AUzOxhTV5ymh/oNAuVP+SiH8Ttv/1n//8e7cO5pEb7AYNMXxwsLfkANxXf0jtJWCy/2FcnE6tpXH9Yby9VB9vre9+AIAkUE9qL0kwXJ9equsPgchYTeOy6+OtG3c/xPYSALAI15cDibAAwDPP944997HuT5x4avDvTHX8CyEwi2zvZd8LYgAAURVjURbTsuoyZGWP3GCVCvFE9Yi+rYhBJFYJRRuYezJWCTNHD54QxqHQ2wT6Yyb9dZ8v/X9/+7M3uo/mTBpsB00r6YOHHYrTdff061pPb02prQA27J2up7fqkkKnA7nbQXFkZUO0tykrlaLYsHvai2oxiPEa4+mtzKKVd3C2JMCBAoGFNYiqtxaZSgzrszw5vTWWBAoYBAmwQ/e0qCKlt5KqqhDEyIb2Eur5S8xERAoIMwN3583azUvtdyrPbzinVXs6nGCjbWxj98NDt5K2esOICEK27FMmAWXe0V7W0koJNpSgFO893kpK8RXWRg3hxU/FaaP21Oj8HimYqGMsXgLhr966lJfH/+bdf3Xm9cb3cFjREMMHFzv0P9Sjvc8Alz8X4zWG+x/udDo6KZwPmIPttlSkokQQ3WNx90Pf5TrVXUNaDlTXH1K8xrj+ULSCeu8RxGgQ0aQ/IHik/CUXPIKKBktwokrqlFQ17Z+O+UtOR9oD0Uh/EGPBEJDwhnC+df2BiFXr8RrEDKOB+M772fz7V/PvhEDvTR8JnbwdjgKU3+8l3ytiSO8SEXGokPe7lBuDft7Rnm0RpIIVieTQ6wGLiwIogRBHT194mfD8acKR2eg22y9D38M8F2ZVYyELd3Tp/JuYvfQ2npDFx3/jzDfuNDsbDikaYvjgYqdtwLHv2xzQV68gJgnUttvSukCdlgOl7XFpOZCxXnuS03h6q2qPyjLftBwoBA9nYwWR8pcsLFhEg4qm9FaIAVlBSm+FMXFzXFoONCQIVVVm0OT01ihOK2FjeivH9Naq5/D+5fy9+Rv5962j+ekjfo5Z2yBykz7nqiCsrmqvKGhq18SQ3igiIhAPesiDJzZOBkVHSzJgCHh1BbS8pJg+Cjz3ccILLxOOn4x6RAg4kIyo+4EZINaqt4bVC2/pysUfwNx+Hy0RWqIW/WpDDIcXDTF8sJEu6jsNd6YHBfTVN8elCiKEo8N+ftz9oNOB2HRHBDHT49GCoHq8dz29tb77gY3RRBCpgkj7H0II8NbCEYFCQFBRsTyqIMQKRAipvSRCG0hCNO5+GE9vTdvj1gmiFu8NKDsiYs1XF/O1a5ftuZWF4s1Wx1eukKNMOk1jOxdESNZWaVC00XHZHi4OotjxiqtFySGQZi3tuhak8srTx4hf+jThsY/E7W0h7M+k0UOdMgFEGgY96l67iNWz34Xevo6pQYmpzJEl1ve14C82xHB40RDDhwu7MMdNjveub44DsKm9lCqHOkGk9NZ6vHd9e1yrLMFVhbT7wYegW60Xre9+GK0XVR1VEC4I1CgJFCIWVlUxrBqCBBhjRumtk7bHbWovASAipBFXx8FpYL53O5+/drV4hwJdzFsCm8sxY9AaMbOqrq1ov2ijvVcVw4Y3a7295HyfnUDLmWMYPP40QmdGnUqc/H2U4KEHvd9D/9Z1Wr3wpvrrF7U96GGKDWXGEA1/6m42xHC40RDDhw+7mF6aXD2ME8Sk1aJ1gkj+h/ruh7ReNMV7p+rBBlV1GYEiQTjnhudTRXIY7n6ot5cMTPy4Ptz/EHdPD9tLUNSXAwUJsMaO2kuBDRkarg4d0x82tJcQ472VObaXjNhQmer9S9n7C/fyt5yTG3kuLZuHY8bABoGsraC3X8QwerOICAojFfIwIIhHBUKfrYIIW6zj2V8wA2AVX1J1+30sXXpH5ep5uO6qzhAoYzteXzXEcNjREMOHEztsKyXcnyDGyWESQZhuqd1jD64esuApaQ/A+nKgIE6zrNywezoRRJpesqoUzXJ24nIgq6pk7Eb9YbhaNInTqb0UWGjcHDeuPxApGwteXqLe9XPtS2VFb1pDd7NWOOGcHllbUS0Kyl22zxdnAkBEKuTKPrJBlxCEBybTgTHExMrbmaTa9WkwYKyKBKoWbtHy+Td1cPU88uUFdAAq4tDXxG9tiOGQoyGGDzf2gCC2bi+lvdPA+njreIvpfu7pNLlUqMJ4r6m9RFSBTdCyzFG0gqbqIRGEMaoUeMP0UlotKqzqRBVDgkj6QxKog4T13dM1/YGEoQodH29N7um0PQ5ExAzDFli4Waxcu5SfI9CbUA0Bmk3P4Ig1tGMfw8O+U7ROEK5cIw+ivnXq2cJC96dyIQKsVQXgF+excvEM1i6c0Wz5HqZUqcW8qUIYR0MMhxwNMXz4sW/Vw5NlSW/Mzmo9XgPAqIJI4nSaXKoTRPI/0HSJnuRUshltj+OqAvJiJFB739YUryGqmlpM9e1x9d3TwbqN/odae4nIaZ0gRAXCBoZUQQpSo6o6Ioj13dOxvVTfPQ0WVk+4dS2bv3m9+A4znz8+F2aLTngCoD2P9r7fu0UgFo9ssEaZL6nLBt7k8CC1e1Y9EMBG1RjIyjKWr5xD99z3gTs3dVYFLTZktvlIDTEccjTE8MOLh7xYjBnkLn8ON27M6qQKotVqqeo8sqyrWdZVf2+G6ua4niu1bpCrex8q63Tc/6Dao5E5bjjBVHm3QX9I7aX69FLyP0AMkvfBiowIIohAVNUSQUTAzETjBEGK9d3T69NLBET/AwNkiMuB0Xt3svmVxeztLJfVqWl/zFidIhAfFEEQEZES+z5agzUO4tG3DgObwegu98YRA8ZoqHroXbmgS+ffIFy/qO3gMWMtmS2bRpPREMMhR0MMP7zYA4Pc0D1dazHd6XS0rkHE+270PtSnl/ou1zTeik4PKjkRG1TWadHvbRpvLcscWY7haGtQ77EhnK9OEEmcFlbNdL29FIKB4UBEUZQWVbXGQIGR/mBI1ltMVnXzeGtNf2AGkRIAs3gnX3z/avFGd5XfnZn1zuVhhhmdA0ufIYCYSAOysou86sKrYs1mEOIooz/U4Rhg1hACqptXdOndNyBXLyDvreKIyyjjBzWNJqMhhkOOhhh+eLHLFhPwoAmm1GJK461Jf0jTS6ZbatIgkv5A/f6IICrrNJdAdXPcpHiNIEGDGE0VREpvHW8v1fUHNVF/iO5pu0l/UFUdtZi2HG/d6H8Ac5xe8oZuXyuuX79afNcauj4146cN6zQZyg/KdEaRINhXyMsuuWpAnpj67FSJYR5UPRDFfCWptH/vjq6d+x56V84iX17ClGFqWbur9lRDDIccDTE02KWD+uWN3z8kBwCbDHJpiqke7+3bfRrXH2zpVFqrxGYwMsfV9YdxgnBOaFyghrcIojpJf0gTTPX8JRMt1FCFjkZchxNMhgEIg5Q36A+kCqVYK9T1ByJlNpL1+65/7Xzr8sJd+4O8FZadk47JdNYwOC2a228QEynI+gGyqk8kFZVkMDAWTKQ8ThA0jLAIAX5pHisXz2Jw8QzM0j3MqKBwbts6wv3QEMMhR0MMDerYgQdiTJwGJo63AtiUvxTCUbLdlqbx1qQ/rGIGMz0eVRA0XW7yP9T3P0yM1xDRFK8xrj+k/Q9pvJWsII23gmO7vL7/IZHDSH+o+x8m6A+JIJjEKoGXl8zK1QvFOS/2fOGkZzM55jKdBtGBxFYMqwcSIVf1kVV9Ciqo2KJnrGZEUZ5gA6hoWFrAypVz2r/8NvjuTUwFj5YxZHgvKCGiIYZDjoYYGtSxB+a4sfbSBPf0+PSSMW4Ur5GmmBJBTAMIeTXKXqq7pxNBjLeXiDxULU1aDpTc0/Xx1lH1AEWqHpL+UJ9eCmxig35DvMbm8daNBEFsGCzCcvv9fP7ujextYlx0mXCRywnrkG832nu3GLqnSTxlZR+m6kGJsGZzBDDR2or2r5zHyqUz6uZvoFUO0KYhIeyxK6IhhkOOhhgajGMX5JCwmRyA2FqatD2ubo4bz19qVTkl70MK5xuvHibpD/XtcfV47/HxVjWGlKF193QIsaWU2ksiOppeStoDIxDRZvf0eLwGUoKrIWYW7vdtdfNS6/3FRfs9a/VGVujRdtvPAmA9AFMaMCQIxHiNco2Mr6i3NK933v2+mltXMV320WImS1sb1HaLhhgOORpiaLAVdqk91KqHCatFt+Oe5lWLlek2bbVadDycD3kBACNzXF4QVAcUheX1cL66/uCEoL6iujhNajTpD1YIKXspOagtEUTT9NJw248arQvUG6oHoK4/EBml1SVXXr9QnF1bsd+xuQxaU+FYlukU9IDHW4ls1Ue4+p6Wi/dwlCg6lvf5oRtiOORoiKHBJNQvDDrhtoc4Rm0xELBODn/2tD755MLIIDdOEK3W+1pVHapPLg2KRe2ENo27p8enl4wPym2nZTmA921NBMEsWlWWxuM1Yt6SB2vUIoRklN6qChXyahgbxlt1zP+AWryGGIWqqhECKVR4GM43dE+n8VYl2LvzbuXG5fzb1YAvtjqaFa1wglnzg8o8GuYFVmsr6A962gHR7uaNtoeGGA45GmJo8LB4yATXscVAqYIAcOOlKv499D/Ux1sBIMu6msZbTbdUnQ7Uc6Umg1x7xRM6PaTpJe9y3Sre2/u2Oic0ck/X/A8IHpKp1uM1gnUQEhg1RELx36NwPiYi1pTeup69FAhgkJKO9AfwqLU0qh5kGOIXKwgrpTHXrxfXbl3LvmtZb7ampGOtHGWG2+/pJSJAFeXqivb7DTE0GKIhhgY7wS7jvTeb44AHj7fW471V2pTMcXX/Q9IfKmM17/coTS8l93QQp+PrRcfTW8f1B4uAtPthPZwvprcmc1zKXorR3uvmuHr1sN5einICiVBaDmRYXXfZ9q9fap1bXnBvTc34rst0yjo9vp/muEdDDDSvRbOo5zCjIYYGO8XDksNYS6o2xTRcL3q/eO9xgqi3mOr5S0l/qK8WTdWDsarjAvV4eiurHS0HylSUhv9O7SWMpbfWt8clghg3x5EQ1A7bT8qaBGoGEalqitcgIxYkfO92tnD14tTbQXC+3Q7eOj1qrE7tB0EcODGoVgT906ML73z129/Go1482mALNMTQYLfYAwf1/eO9JxHEpIC+8XiN8eylukANGmyaXgrBo+6eHvkf6u2lFO+tqim9NY23BhGIyMgcF81wvCHeO00wsTCpgdbjNUhV2RgyVp1UKu9fa9+6eT1/01i5kuVqXSZzxsLtJUEcFDGoaiDC20r6j0T1i7/5D+/d2PtHabBXaIihwV5ihwL11v6H8d3TADaRQxptVYkTTGn3dNIf6uOt9Xjvejjf+O7pcf0hUKYu+FF7adw9nXZP181x1tgYB85mlL007n8AC6Ge3jrUH9gZdlAz6Jrq/ffa19ZW7NvG6o08l6Mul1mivZle2m9iUNUA4BqIfp1E/vvMLv/ul3/5ytW9e4QG+4GGGBrsJXbpgdjsnr7xUnVfcqhrD6m9VNcfxquHuv9hUvbSOEEk9zSJbGgvqTEkJKgvB6pXDyOCqE0vJYG67n/YrD+sC9SwTGSUySgtLbi1G5fzi4OefdNZ9FqdcMJl0tZd7lzYL2KIhEALIHxNGf+1ZtVv/fYvXbjwxjfXqt0fvcF+oyGGBnuJPfA+JHIYjrgOyWG8tTRp93R9ORCbLiZNL423l8azl4KoZlk2IojxcL66/4FFNFge+R/UKKXspaQ/ACARgbVWISEa5Ma2x4kRKKBWWTfsnh4bbxUB7t0oFm5ez74XlM5nheRTU+EEsWY73bmw18SgUTNZBOhfEvQXbQi/8rGj5879w19c6O/8qA0OGgeUBdzghxA7qR7GBOrX1o/x6u1Nx3tldZV6vR4BQFmeIgCoqu7ofuGJAYXqBM1Vg2EUR6w8wqynUM0QAHQG3eEH9ECh04n3q/osoU3tticJgbx3rBKoyIWCt/H+KhSs4VyFQvCsLiMXPIs6UhVSJyTBsDWBVS2pCokEdtaSSGBVJcPMOpxHVWFWq2Qk3qZGSZUJUDKqpMxDn5wSPCDg3vG5fufjP7r6k0892/9C0ZKPiVArhId72YmAEHT1xnVZWLgrc2AqdkwMqssgfF8VXxbX/xouXb7z+utoJo8+gGiIocFBYJcC9Wubv39IFK+srhIAJIJISETRP7HAABCqE6Ovz1UD8r6kcqodL/KhomlfEbBOEBI8iXiS0KYiH7BIIJGCclcNiSQnlUDBeXbBsIqQqJC6jFSFbDCsKiRDYrAmsKSLvgpZY1gksBpLViWap9WQGmFVJauG1gmC2CQCGZKEqpIPVJFQ/9SLvec+8dnlnzk+V71qjD4lyka3Oe+zF8Sg0B6AdxX4imH9ir/y7rmGED7YaIihwUFgDyaXEjZXEfcjh1RBhCdi1ZAIIpFDmPXD22dIQiSHTtnnVD1I8OSrjFP1kAiiXkEE51nEUa5CdYJwwXMQw4kcnAqJiYShqmTNOlEIGzYSWNUQVClVDwAgLMNqIRKEqhJMJA54oKy4VxQh+9i/tvqp5z++9oXOjHzWGMzJNshhN8SgqgrCmwD+gICvzqyd/f6v/ioaDeFDgIYYGhw09iCkD7gfQSTU20zjBAFEktiKIKZ9RZOqh3GCyF3FqXoQFdJMKFUQwVrebntJVUkkcGovjRPEpPYSACgziwirh6+U/Nxj5ezpz6x97sSTg7/amQqvsKH8fgSxU2JQ1SsA/oChX/HU/bPXf/la78Hf1eCDgkZ8bvCosEuC2DreOwnV95tgSu7pujmO+7zJ/1B3T49PMKkOaHy8Vb1ScIIUrzHaPQ0BxG1YDhR3TNNoOZAxBppgWJNAvfX2uHX/A1k2DmRWl23v+nv5pW7Pve0ync+KcNQ5OQoinrT7IYnPy8s66Pe0TQ8Qn1VxF6T/jBT/08DTP/nKr5w9c+Zby/4h38sGhxwNMTR4lNhli2nyciAAo3jvOjmME8S4Oa7unk4TTFuZ4+rprUAWp5e2iNeIuyA2hvNFgqAN8RqjzXFEIJV1/8PQPT0e760Erqe3wjKxVcNgunvLLt+42jrnA52xlnpFy5+0TlsAUZ0giAEV+OUlVP0B2sybrwmqqgCtEem/hOLvlKAvfeXvnf32O38531QJH1I0xNDgMGCHBPHg7XH13Q/ARoLQJd1kjtsq3juXQHVzHFEcbXXOEpEfZS+J6mi8tb49LlPROkEk93QwEnc/MIjI6bh7erRadGiOA4MEMZyPFFoL6FMSIVLVSBAw8Kx3rhX3bt/Mz0D13SzXVtEOx9moS+OtFGfB/PIi/KDUgmj8mqBrIHyHCH+39OGX6Ma5v/zqr88v7+RNbvDBQaMxNDgMSKOqD5u/NIax6aVdiNMAMNtbiRNNw/HWJE5P+4qqVsFAHG0FgDS9BADj461JexBxlAXP95teqgvUW423Pmh6aYM4jeEkk5ow93hv+qOf7P2VJ5/r/kyrJc+LUg4lhKC9a1d0ZXFJjjIhI1KAUAJ60Xv6LavV/zHdv3ipEZZ/eNBUDA0OG3ahPaTqYd0cVzfIPaOKN2Znda7b3aQ9pN3Tqb3Eposuz24K5zPWa09yqofz1dNbsxxb7p4eT29N60Utwmh7nEBr8d5xe5wZRm2sh/MNY7tr2+NYmCauFuVkjBZeXXGDG+8Vb3VX+a2srWWrE45bp20V0qUlVP2+tIlUifR6NbCvryzmf2fx5Ftf/vr/uHD3299uxk9/mNBUDA0OK3ahP6TK4XXdyiRXn2Dq9XqUfA/AuknuQQa53UwvBWu4Xj1Mml5K1UOsGITq00vJ/yDCPLl6qJnjagY5ABhU1G87b05/tvuZFz+59rNZ7j9z47pM3f3/2zt33jaOKAqfmVmKliUBCQI3UZcuSJsiXf5uALUJDDgV40YxoCJGwEqNYRsCRNl6ma/dnTsulmMOl7MURS5tPs5XGZYLQw9/vo9z5wNunOBl96b5x9sL9+L136+7C3wNyBZAMZB1pv78www5AONgHDBbEOF668Gwp0WKyHFMEHmW6jD7EIbjYu2lPRFlxejYeqvPP/j2kjOJiuUfyoLQUmQhYIwSEZ3lyG2qBj8ep89+/vX+N5j+cedS/XPx9uj56V+n7xf4vJMtgmIgm8Ki36vVCepI/iGcQ1TNIMqCKM8fwgoiFo4DAF9BWJvp8vwBACRJ9GPmDzFBOFdIQrTS5eyDUta4zNihdR2b4eP+QZ7+/+8PV8AJW0aEYiAbRQ0VRLUczg4PXXh/CZi+wRQTxPCo96VNkw32NTBOT8faS0BxesO3mMIBdfm8hk9Pu4YoJ04lo5tKznkpFC0mEatFGx07r2FEaz+c1iJatBYD13NWOn29d3X+6vk9EEs5kF2FYiCbyJLbS8CsA31lOQCT1QNQ3V7yx/n8/MFvL1XNH2ze0LH2UnheI1Y9+PZSWQ6x6kGMaK2UUVY5a9QAwMdU9OX5q8MuKwQSg2Igm84838N+Hbb05+PVAzC94hrOHoCigvByAIrbS8C0IPz8Iby9NGv+UF5vrbreKsbqWPWQjFpNAKCVMmKVESMayqTOyfXeIO389x0+odViWplUQjGQTafe9tKc1QMwlgPw8HE+P3sAJgfUT5p7unycb69R5CCq8g/lDSaTKxMe53NOlNHKaKWMFZEEuM1MctVuDu7QalmwbUQegGIg20D9swcA+P1SVQ2mPd3usy/zhVnbS9lgX5dPewPjtx/8ae/i45OCAIDwvLdNEh1uL4XDaauV0QpJbq0kaPSGrv8h6Xfu2u12usDniOwoFAPZFlYmB2ByOO0/FOYfqhLU3/fvdey0t68gsifN0fsO4+oBmExPV20vhdWD1ZnxraXcqUHD4Pb2fXr35k2LL6eRR0MxkG1miRQ18Jj11oe2l2Kvx4nNVGx7CQDCCsIPqP38wb8c54fTidbGitEOWaYS9elG9e7enZ4OwJYRWRCKgewCKxEEMHsG4V+PA+KCAMYtpjD7AExWEFXzB5+ezhvOZv1mr2tM9+LszwGAOd9vIyQOxUB2gSXbTNUtJiB+pC9WQcQ2mNLDpzoWjgOm354O11ttnmiT5NLP7PAeR72Ls/0hV09JXVAMZBeoKTV94sa/xtznNWY9L+rDceF6K1D99nSeN3SSZCKqkV1njQGFQFYBxUB2jSXbSp5pOQCLVw+hIKqO8wHAfo78MjlKR0IQcI5AVgDFQHaRepPTwEKtJSB+e6n4/UIQfjidis4H+jp712xmzCKQVUMxkF2lhvVW4DHhuKr0NDAtiPTwqQYA07hzXWvzkRCYViZfBYqB7Do1tJb8/KH67YdYOK58vTVsL3UaTXdwa+35cc+yQiBfG4qBkGliqfxBAAAArElEQVSWbDVNCyIcTgOTA+pQDuai6Q4OOtJu/2I5QyDfCoqBkGlqGlAD82wweTlQCGRdoBgImU1NraYRFYI4O/tJKASyLlAMhMxGofjHuvb2EgCg1fIyoBDI2kAxEDIfNYXkPCdeBhQCWTuSb/0XIGRDiDz0swgUAll/WDEQ8ngW/bmhDMhGwIqBkNVDIZCNghUDIctT9XNEIRBCyI7D/2gRQgghhBBCCNlyPgMhXUQq5tiAQwAAAABJRU5ErkJggg==;" parent="1" vertex="1">
                    <mxGeometry x="458.90999999999997" y="257.5" width="129.81" height="85" as="geometry"/>
                </mxCell>
                <mxCell id="ZrnuHC9si-MEyVBBdssQ-1" value="WAF" style="text;html=1;strokeColor=none;fillColor=none;align=center;verticalAlign=middle;whiteSpace=wrap;rounded=0;" parent="1" vertex="1">
                    <mxGeometry x="555.2499999999999" y="287" width="40" height="20" as="geometry"/>
                </mxCell>
                <mxCell id="ZrnuHC9si-MEyVBBdssQ-3" value="Application Gateway" style="shape=image;imageAspect=0;aspect=fixed;verticalLabelPosition=bottom;verticalAlign=top;image=data:image/png,iVBORw0KGgoAAAANSUhEUgAAAOEAAADhCAMAAAAJbSJIAAAAjVBMVEX///8AeNcAdNYAcdUAdtcAb9UAbdQAc9YAbNTf7fmnxu33+/5Lj91KlN/s9fwdg9p4rOUAadTH3PTW5vcuhtp1quVcnOHz+P0lgtqxzu/N4PXm8Po6i9xdneG20fDb6fiRuum/1/KawOtnouKOteeMuOlupeOixOwAfNh+sOZXlt8AYNKYv+uuye250PBO5JRoAAAOrklEQVR4nO2de3+qOBPHwYSAtd5ttWqrtp4j9Wn3/b+8hySokOsEgsJ+dv7Ys1WCfP0lM7lMYhD8Z/5ssP7dH4/702zz6CdpxPqf24QgZlGSTtaPfh7fNj8ThMObxWT89uhn8mnLr6SIxwyTxb9Hx0MvFvkYY/Ln0U/myfZTFR+16PnRz+bFJkQHmDXH8eDRj1ffTIBh2Os+4osR8F+AOInMgJ1HNFfRHHHVYUS7gh1XEaJgp1V8ASnYYRWhCnYW0QWwk4hugB1EtAX6ziPCwkSHEV2raI7YnaBhUBAz67qKagVxjAhJt+f31/M2TQiKFZwdUVGlIEbRePLRv120+/heICRBdgJRoWCcPD8pJhBHT9sEdQ9RDhMITfq6q0d/sMDY+rYoKdhLvkeF9ze7Xb/4dzD4iVGXECVAcmbVc3BYzt++h2FCEkJI0hvuZzeO7/JUY6srquhkMPqgLw8+nkbP06L3xIjg149LsfmiJGOLVRQVRFtaIQef7L+p6DhxhK4V+Jh0QkVRQTKhr37g6Q/9d6OYFUboOy87K0WOlqooKpiwhQmqTsTa4lzVEUDpjJfepK1HFEf0iK1KMGy8YFccyohZJyfKvM7/Xnj55arliKKC0Tx7cbTlLgSx+hp8XltbDyW98/fvYb3bbGZz3hqXZRXb1hYlQKrgOro8M6+xwYQBY4Tef4udgA33qpte8Q4tU1Fqg/SZNwUHSebsumGcdeG2b0uheJ9/AeuktYhiVy3a01ffilEu5lVxFb2ounD9A/vns9SWW1RRxTDRG7KXf4rxAfPH3YzUtxhxWZ/LvZu2qCh11RDH+APqqcx/v1/HOP9SNqV62hZEaTwYPfE3yoThVF7xHfy+hnQsnClHPtkrR6EbvmgBojRc4tEv8yyn0tOSH7Hk7Csq9GQIH0EKN2uBivLUPaG9lM+M8FB8ixyEgqeUlKMDr6ento0X5RE9pmvzgyRriv3bexgJeRenUBzdhwm/pGWjfsXELxNrklDfmF4B8a5cbqXoo2KetnBsFaJyVi17fUmYO/2bV0PcE2dpNqFipo33CvrSPR9YUVVT92ifvbGP2XAi72rjsBgED+yPkQKx95dd8NyeGTjlxC+hXZY01yMbP9BQUAT8k6SsUzOSRsTZt8OuEH3N41RULr6wULEmIWI9zc/x5HuYFgCXz1E2tmdDwqWMGDF/K0T9xyGqV3jjY/bWd9a/nqjKrEPWMskv/WO56omFeaFUcd8HhH7N4gvTh45lU0WZ/UWdZE//HCyEiQ28Ypf9FckfoqJujZ7GwSUFSaQhxGB4K0O4UxkKTY53aJ/khnh/FfXLZ9mbM0pynWO62C4sSoN4D2aSIJLcMk8JC/pr9bd3VxW1K7z4HOTOkDwJgMIyTMxd6tPnbtQ/nPP7IdZAN5r6ccegoVeQhbTM0XDUokkzbTgqJAm/8XdZMA0GqnZ4V0TDGj2iI6Sv3nXWomBjKTiQwrdwYE7I4Ew54n0qqmmNHp2yC4aURSr2IimTTzJyo1/LpVez0t7/LojGNXrWkDJCvJXKHaU5b14nc2ONr/fF/n+hWwa/C6I5y+JKKKc3f8uEJWdEsXJCuULfEdGSZcEe+jV7wJVUcig9dlwKKGcMqKXNI9qS8RCdqpjE18momy3lMI7HxQtoRyhnNn9Go4jWPBn2iHsk1sBAmpZiRgoD/zVN6I/ZdNTSUEkbRrSnU7KG9EFhxH5pqiAsiXjK4gVfUN3YvsfG4iIg04kFgB29Dh2F0j+KXRfxNn/UUfbvGmEeRWePyg0HJeMReiXzmlNxcm0eymukGB13y+X8ZYozttFiyma+FUNgCbEJFWHJeIROOb3T6C35mmDwqpr1IAiROJ9O5VOqX7peWxHR/0gDmIzHPAxdkrl1TEe/14f5RfqHj7a7gHse0Ad5r6jQdMree8AjQ+5M52GKonB2pR0S3IswRiq/Q47M0exg36VnFeHplJhe/trjM1JB8MlQCpvUDuHXjiZ89eSQgHln9sfeDDmiTxXhWfd8GmNNwh4v+c6rJdqKM6ajlYTIuu3GXqmA6E9Fp6x71rVcxHnH9DIQwtFJRJQ9K3t9p5hq032WLxXdcrYT+qmzKc+wGN0el3qSkn0KtTFfu1HOQ+kQ/ajomNLMuqbBlre84pQLJn9L6/fLKSo2RvTKX4VLGHpS0T3rnpbq71nh8rRZnJRGE7vT1wKRiG3vJlEewyfKDbV6xPqh3z3rnjsM7krFYe9UnNwY7A7/PD39888sl1c3C6VHrFtR3RXMEG+fKTYqPngw2NmhFeaI9SqqQ5goEN7qojjsLU3NKOyjwhdaS8UqCmaWXOuiNLAvLHaLaUP0JWcFGWJ1FSspmBlOLx95lsP6BXEZ49efw7z0cM+VCKurWG3nC/vIYX6Lv7JnJF8sLp6yThqmyYlhurpkYH4D+2vy51XzqFUVpIb4pFk+0Ss8Dkm/zoWud7TNx1lPTqGwfM8qKtYBzB479zZz5YERhUiPp5eVxrfKVSashFjRyVwtyROEBopDPwoWrS6zUU/asyVA5lxR6ylIjVxC32xMNIwY9a5Tcvua36irinUVpHYbFB6eE3mLEz2i5tfnBzoFjfoKUssXeqn1/4yz/ud1Wx7dx5ZOCj04cTG4kjmo6ENBamhbiOqbj+N5RRJq6fPkrZQFPXbrbusMrKIfBalh9Cvce7AcSU/xE0FH9TYDquhLQWZkKy2Vlm35KefwVTeQiv4UZIbJcGb6uHO9ICEaQEXPgLSm7owf+OpRwhCA6B9QyktsGtFcURsA1O4ffYiKXp0MNYwhBwjeT0X/CmK7gvdUsQEFYYD3UvEBTua+Kj7EydxTRf+Asdsppe8Nq1h7eCaam4JNqFieuPzw23eCholGVYyLeVkjv/euomADKhaTeN/9jM+uVkXBBhCTa59/XX0aT2nwONgsIr6mLclJdfVuXBnQN2K+bq7YaVTLqlZRbp7dDb/p3m/VqORkGlIxXwgCJz9AzDXQN4vI0nuCgU8/A1dQs6nbNyK9oWYDRyXTdrYHYh5fsNMvlhoR3SocS1xSb8LR2sL06VovuhDTaYL+dKi60IaIZk6Py7bDuTka/NrXXq8fLi0SMWc48+BxBUQ0D5waFYsX8jYBI+EwmGs+Xq/gNpayommMckfMAN3cBtvx4EyoQdQ7mW0s532zKBzrz2RXItIjYdwI2X5Ix1pKv3cVoj7Qb2NFZjvvZyAnFRGdP3fUkBICko5FQsWJSEYFtYROiDwLvEIttSeOy4SSinonwwC1hCECV1TEV0AcCekGOdXOYiuhoKJFQQMhWMXLbjg3Qr6lQ7sZzkRYUtHcBs2EJhUL3XB0WcNyI2S5oG7pgFfCAqKtipoJQSpeAd0I8z10a5fR043wimhX0Exob4vF9SsnQpSnS7gMLgqEOaIp0N8+ykRoVREVllmdCPNDb4JfB29aJAzmERDQQmhWsbwC6UKIXy+lTFsaTYSZipAqaic0IpLSEqsL4S1J0mEqqkyYIUIUtBOaEMtryA6E8detGDwrEOubjAHQTmhCrExYTGHdQiMGkFC8n50QiggnFHbPLYDJqzBC6QsDEIZI3gBeh5DshYJjGCKIUK4REEKYilDC6EUqCUOEECqqPIgQpCKQkEiA9LgYCCKAUNWmYYQQFWGEsoKsLERFO6HSaQEJw9iqIoiQKI84gqloJVR7ZSihaWIDThhpAEEq2gg1YQdMaG2LAEKdgqy4VUULoS6uwgltFdVOSMTjjcrlbSqaCbUdBwdCS0W1EpoB7SqaCAf6npELYTF92p2QWH8Y04JoIlzr8x2cNDRWUwuhTUF2C2NFNdZS/WzBvdoh7KdNjSqa2+FM99hwQltENBLaq2h+E4OKFl+qQ4THQ1vINxHys/xAiHoVbfFQM798lz6NOJow3karorVPM1M+AZDQDmgghCvI7qNT0d4vVaoIIwQA6gnlw6YtN9KoCBhbqFQEEUIAtYRuCrI7qVWEjA8V7gZCCALUESaOCuoRQWN8GRFACAPUEFYB1FRU2DyNhGgnBAKqCRMpEQJ4M4WKwLk2EdFKCAVUEhLbQQb6u8kqQudLBXdjIwQDqgirKshuJ6kIJQzKeS8WQvBdM5MISQ1AhYp4OBiBbPDmsG6Bn+EmrrHUUZAhiiriCGilcrZaiuEmAkp3dkYEThWbzWkE7GJ1FWSI0Al/kzVFWF9BX4gNEfoB9FJRmyFMxI3U1RFrq9gIoT9ADyo2QZi8qR61MmJNFRsgJF4Ba6von9CvggyxloreCX0ryBDrqOib0L+CDLGGip4Jkw/VAz4U0S9hU4ABPGOjWcIGAaur6JOQNAhYHdEjYSJtv2kFoj/CpgGrInojbB6wIqIvwnsAVkP0RHgfwKBK0PBDmBgPZPJp7ip6IbwfYGBRUTFBFsmEiX0eTQBcq56kKTOquBhLlkrD8X4oX7Uw/cIMuaeCZsS4sjsYGbbv3FdBagbEqkObvuLnBC4W3R2wAcS+oR2SBwB6RzQBij8nfC/zirhpnYLM9IhTR0RjG7ScLtmkGVR0myratMzJFMyPikYn80AFqXlpi0Yn82BAL4imNvh4QA+I7VaQWk3EtitIrRaiUUHz8bV3NFPQsEz9GcKE7Xze+5ohaBgRDQq2C7Cqip1RkFoVFQ1OBms3GD/MKnTgTArWPBOtETN5VKWKhtEEjlsI6Bw0TArWOJewUXNS0aRgG6soNwdEk5OpdfBiwwYOGkYFWwwYQIOGCbDNClIDqdhlwACiYscB7SqaAMMOAFo96kZ/fGVHAC2Io84rSM20bJMaAPWntrbOqiyEdwqwCmLHAAPntX6cdg3QUcUOAgZOKuJU8bur7Te4injVSUCKCDtBrNdNBanBEHtdVZAapKJ2GhCC6OHX0R9rNsSOK8jM2BY7ryC1wbP+2Mm43k+/t8a+dEdZQM+7bL+dlL/rjGEHAnXDNkOJEZPFY7NIfNtsQYoeJybjRnYuPdTmkzSJELUoSb//XfpdbXM47Y/706yLI6UW2/8BOs30yJ3R52IAAAAASUVORK5CYII=;imageBackground=none;" parent="1" vertex="1">
                    <mxGeometry x="370" y="367" width="100" height="100" as="geometry"/>
                </mxCell>
                <mxCell id="ZrnuHC9si-MEyVBBdssQ-6" value="" style="endArrow=classic;html=1;strokeColor=#3399FF;strokeWidth=2;fontColor=#000000;endFill=1;startArrow=none;startFill=0;jumpSize=8;endSize=6;startSize=6;" parent="1" source="2" edge="1">
                    <mxGeometry width="50" height="50" relative="1" as="geometry">
                        <mxPoint x="377.56600000000014" y="497.81999999999994" as="sourcePoint"/>
                        <mxPoint x="1270" y="538" as="targetPoint"/>
                    </mxGeometry>
                </mxCell>
                <mxCell id="jAgd3h_OqQaY9aVYYnGA-2" value="&lt;font color=&quot;#000000&quot;&gt;Management (Public) Subnet&lt;br&gt;10.8.7.0/24&lt;/font&gt;" style="rounded=0;whiteSpace=wrap;html=1;strokeColor=#000000;fillColor=#FFFFFF;verticalAlign=bottom;fontColor=#3399FF;fontStyle=1" parent="1" vertex="1">
                    <mxGeometry x="645.75" y="650" width="350" height="215" as="geometry"/>
                </mxCell>
                <mxCell id="jAgd3h_OqQaY9aVYYnGA-3" value="" style="shape=image;imageAspect=0;aspect=fixed;verticalLabelPosition=bottom;verticalAlign=top;strokeColor=#999999;fillColor=#E6E6E6;image=data:image/png,iVBORw0KGgoAAAANSUhEUgAAAMcAAAEHCAYAAAAamlLGAAAAAXNSR0IArs4c6QAAAARnQU1BAACxjwv8YQUAAAAJcEhZcwAADsMAAA7DAcdvqGQAAAAhdEVYdENyZWF0aW9uIFRpbWUAMjAxOTowOToyMSAxOTo1MjoxNP5oUCYAACduSURBVHhe7Z0JfJTV1f/PfWayQ0gIO7IoCoKo7IRFEXnta1trbbX690UBFyD8betSbd1a334qaheLthbBHVrXumtbFwiyJCSEsMoiyL4EAoEQss3yPPe958kdDcksz8w8+9yvn/nMvTcmzCT3N+ece8+5FwQCgUAgEAgEAoFAIBAIBAKBoD0Xzt+UP+n19f15V2AxEn8W2ICCHN8TXn/gj7wrsBjCnwUWc8krpWMyvZnl2PbLgdHLp49dq35BYBnCctiAKxZvyEn3ZLzLu+AFzz94U2AhQhw2IEiCb0uE9OZdkDzSoMsXV7zBuwKLEOKwmMmvVMzzEulK3v0Gj+S54fK/V8zmXYEFiJjDQiYvrrzFK5GXeLcdCqUBGoBri28d+REfEpiIEIdFTF605sceyfsGIZDGh8JCFcXnJ8ErVtxcuJIPCUxCuFUWMGlx+QwtwkCIJGWk0bSPL3ll/Rg+JDAJIQ6TuXxx5R/SpbSXtQgjhCSR3HSPvPLSlyr+hw8JTEC4VSYyefHaf3sl6bu8mxB+OfjL5dPHiI1CExDiMIGJL67rmpFOiyVChvKhpJBlZXHx9FHTeVdgEEIcBnPZyxUTvF7pfUJIFz6kC4qibCIUfrBk+qj9fEigMyLmMJDJiyqfSUvzrNJbGIgkSRdRQjbjcjAfEuiMsBwGoK5GEc+fPEQq4EOGosj0M7+UNWPlzUOq+JBAB4Q4dATTzb1++VXJI43nQ6ahUKWBKvTx4umj5/IhQZIIcejAyIVrsztmwRNpEpnJfqWZfNgSWCyyN0jhZ8unj/qYDwkSRIgjSS57qfIeKY0+aJYLpRVZoUsalQ4zymYMOsSHBHEixJEgk15Zd7tXor+RJNKHD9kOhdJGSuW/FE8b8wAfEsSBEEcc4H6F16v83ENghiRJZ/Fh28NikVOKDPPrvYEn1txcWMeHBTEQ4tDAhJfXFmZ64NdMEN/jQ46EUtrMrMk/5TTPb5bfOHwvHxZEQIgjCuqSLHju9EjSMD7kGhSFrqSB4Lzi28a+x4cEbRDiaMNliypv8ACdChKZIhGSzYddC3O5DigAHwVJ4A2RFn8mQhwM3GUmFK6VCEwiEunAh1MORVGOUSYUjyT/9fObxm7gwylLSopj0jsbz/LU+6cDla6UJDqGSFI6/5KAIyvKTqDkAyqT95bdOqKUD6cUKSOOKYvWXsXE8H2Q5CskyTOADws0wOKTOhbNL5dl8oXX0/j2kumXpESyo2vFcemiynES0O+xuGEyATpCkqQs/iXb0j8vC441+KEhIPMRe8Lcr8OUwmo2fZYEpKwP3JrT5QpxXP5S6QhZShvvIVIhE8IwQuBcLC/lX3YMM4f3gi/21cLOE418xBkoClQpVC5n06mUuWLFy2aMrORfcjSOEsclf6/oSZphqCeNjCISDAegQyUg5zhRCG35r7M7w6V98+CTXTWwqboe6v32th7RQDeMBfabKVXW0iBsTstQKp0Y4NtOHJNfqRzJgsFBHg8MlCj0A4mcw0TQmxCJPaxN6jOKs/My4ZaLe6ltFEdTUIHNTCBBhU0xF4FJkewd7VVA2UkUsi0okY1SXeaa5T8dWs//F1thuDimLNpaECT+npIS6CUr0IV4aG8P8XQlitIVCCmghHRmk7+zBNCTWYA8/m0pQ6+OGTDtoh6Q7fWo/f8wcTB/Hur8Qdh6rEEdcztUUWrZez6kSHAAFLKL9Xc0BnzrCfEy/5I2SkRp9MsZ+MtorJw9yjSfM6I4Jr24diKkyecS6smmoOQQGbKJR8qiBLLZZ0CmB1ibAgty8dOcZrKJnkkoqG32CZ/LfkQukUinlp8mCEf3DulwK7MYWd5vCzJD4kCONwXga4fFH3rgZx8M/kCQ99qjUHqCTdwaNveOsd5JAqRGYX1CSS2b0U3qQ+HPUkubUuaQR0Ahcn1F0cR2B3dHFMeURWtLrCjaSRV6qxaj5xnCQNCtau1NVdX7YN+piH9X1yEz96Kp2c975kAp3VhWNKFdipCoIbeAs5gwZlzcXhhIyGqE6NkhA87Nz4r8KeYiWCBvujCiIcRhMiN75sItw3pBhif8r56EUUGX7HQY0rUDeCX3SoR9ettKGIgQh0ngxP7JkO7ww4FdIC3KJG9rOUJ0TPfARd07QId0Lx9xEexNN/sCqkDshBCHCfTtlAmzRvSGC7vm8JHIhLMcIdIlCYayn4GulpvwB2Q11rAbQhwGgjHFtYO7we3MjeqRoy23UctnZz8mtqHdOkBmmJjFaQSDctSVKSsR4jAIdIHuHNMHLmaTOB60RhUd0jwwrHtHddUrmrWxMxiAoztlV4Q4dEbduxjWE647vxtkswkcL/F63X1yM1WRdGVBu5NoCcB9vGdPhDh0YlBBjro8e8fIs6B/p8QTgBMxArjyNSA/Cy5mIinI0nyzgXWowsAAnPdtihBHEuBEHtwlB+aM7A1Th3aHc/KSz4pPZsJgjHNe52wY0aMjnMUsSnqE5WKr8fmDmGfFe/ZFiCMB8jK9cFn/fPg5iyluvKC7rqtHesQPKArcaESRDCzIhk7s9doFDMAD7OEEhDg0gnN2EJtoN1/YA+4e2xcu75dviAujt6vROTMNBjOXD10uTHK0ciMRrYWdA/C2CHHEAFeDsNbirrF9mOvUQ3VbjJxeRq08ocvVl7lao3rmqu+hS3YaeExc5qJqaohzhIEIcYQBXZHvn9cF7insC7NH9FaLkPLZJ7AZmBGjosU7Nz8bRvbqCOezmAlX2AyNTzAA9/nZk80j8DZE/OhIpaxcXAYd0DkLzsvPUuu4o6V3GE3rlHWzwSKr0yxYrvMF2bMMPtbXA3SlMNawK5GyclNOHFlpHujFPikxiO7JXKY+uRmQl2GfgLVtyrqV+GUUi6wWXjWw50RKdwMBJjK/vd2plBRHDyaCbjnp0D0ngz3SWT8Ncm2euGel5YiFwpy+xoCiiqSeCwatTSSsqM1IBFeKA61AboYHOrFP/o5s0uNz15w06MaCTaftGIewszjCIbMX28wEgiJpZq5TExMPthsCQWhsdEacYVtx4ARP9xA14xSf01hgmIF99oyPUDsn3aOmbXfgz2YFyGZjJ7cqUfDl+1icgWJB4cjsDaGI8BnfW1BRICBTCLBnPz4zC4P/n1VYKo7vntsF+nXKUNMc0rgQ3JBRagRuEIePWY1Ed8DxxBVMSFRFxAUVDlws2FmjzwEUkcRhygztxlydXiwAxiVE9PmFMCLjJJcqHLj7nUxqCG5SprP5kZkmqV4C7u6He3Rk7rTRiFkq0A2ZiSIoO/cwurYIcQh0QWEmz65FS4kixCFIGsr+w7Om3IYQhyBJ0GLIqkDchhCHICmSDcDtjBCHIGFaAnB3CgMR4hAkhBsD8LYIcQjipiUAd1ZtRiIIcQjihILPjwG4+xHiEMSFujJF3RtntEaIQ6AZTBjEIDxVEOIQaEJm1iLg8gC8LUIcgphgTUYggSpApyPEIYgJpqC7cQc8FkIcgqjgXoYTqvmMQIhDEBFMDUmlALwtQhyCsLitNiMRhDgE7cBTRvBInVRHiENwBhhd+H2pGYC3RYhDcAZqAC6EoSLEIfiGQNAZ92aYhRCHQMXttRmJIMQhSInajEQQ4khxWmozhDDCIcSR4vjV2gwRgIdDiCOFwSxbJUVqMxJBiCNFUQNwsTIVFSGOFASthQjAYyPEkWK0BOAiNUQLQhwpRehwBBGAayGiOCiNfHeHwJkEgkrKHI6gBxHFQYj4eHETGHynegp6vAi3KgXAADzVDkfQAyEOl4MlriIATwwhDlfDAnCRgp4wQhwupuV0QiGMRBHicCkBJbUPR9ADIQ4XgqcTBkUNeNIIcbiMVD2d0AiEOFyGCMD1Q4jDRaTy6YRGIMThEnD3WwTg+iLE4QJQFHh0p0BfhDgcjjid0DgiZt5OWbS2RPJI43k3KaZf3BMG5GXxnqA1J44dhdrjx2D3ti/h0N5dcLim9ptw2ldbAxl5BbzXQocefSEtKwdy2HNO97OAZOdZEoDLviao27cDGqsPQLCpARqPHuRfCU82e61e9rqzu/WB9E6d2Wvvw7+SGE3sA2Hd4TreSw4Wp20sK5owjHe/wXJx/Grq1bwVmczsHHjg6RfUZ6P4/J3XYMm7b/Bee84+/wIo+vXjvJccKIht69ZAxfIlULVvDx9NjIxOBZA38GLoMXoKE1IXPmoMDUcPwPFNpVC7YyP4TtXw0cTp2Hcg5PYfBHnnXRy3WMwQhyPcqubGBnhzwVO851xQFG+x9/H7u2bCh4ufT1oYCE7SoxXFbNKu5iP6ghbi+ObVsPFvD8KWFx9V/y09hIGc3r8DDq34SP25+PNP7tjAv2IPHBNzbK0shy1ry3jPWaC4UQwoisqVxXzU/qAoNvztAdj90Su6CSIS+PMbjxzgPXvgqID8rYVPqxPNSaC1WPDog1Dy6Ud8xP6g+/Tli79TRSE3N/HR1MNR4nCae3V47254+sG7dHGfzAJjiu2vPhkzwE4FHLeU6xT3CoX81nPOsnRoKXZ/vCilrUVrHLFa1RYjVq/0Xq1a9Oe5qpC1kJmVDSMvnQIDhlwIX9E8yMzvyr/yLbjJd2L3VmisPggNVfuhdudGNVgO0XviVdD70h/wXvygMDDGiJf03M7qqlNmXhfI7tEHPBnt/85+Fk+gq4YxBb7+1q+7NfG8B7GUG4UhI8fC9Hse4r3k0VMcu7Zuhufmxn5tKIorrvsfmHjlt7+D/3xd027XAnfAwx3Chqs7xzaWMKFsSkoc8QoDBYBLx3mDhiW0XxFaEj751Qbw153go/YTh+PcqhB2dq/WLl/CW5FBYcx++LEzhBGOaNcD5A8cBgN/cgecP/WedpuFWsGlVK3CQFHgBB7208fVSZzoRh5+X78rblB/Dr72jn3O41+xF44VB2LX1aut69bwVmSmMavXq/85vBeeltMJY58akttvEHS5KH4jX7fvKzi06mPei05Wt94w9LaHVVGEc50SBV/74JvvhfOum5OwwI3C1uLo2bc/5BW0979DoDA+e/s13rMHuEIVS7AjJk5W44tYqDXgBqWGoN+/851neS86BUMLYcjN9xm6A49WMBGBG4mtxXHy+DHVJ48G7h+gj28XmjRYss7duvNWZDAAN/J+vr2fvqFpVQqFMeDqW3S1Fk7B1uLAT+BRl05RLUg0/umwzcFe/aK7U+r1AAaeTojuVM2XseM1dKVQGKmKI2KO62ffxVvhOXm82nbuVTQO79vNW+3BSj6jrwc4sib2ggEu0aIrlco4QhwYuE747+hLfHZzr6KB6enhwOgCa8CNxFd7XF36jcU5P5iRkq5UaxwhDuQ7LPaIFpwjdnCvesdYgUJQHOGEjDEGWg4jOVKxlLcig0uruIqU6jhGHLgbfn2R/d0rfJ2xYiRk8bzH1JWtELifYcbZCFiLEYtENxPdhmPEgeDypxPcq1GT/ou3IoMWbuHch9SNTLQWimK8MnBnOlbqOQbhwmq04ChxIE5wr3DXO9ZrRPA1ogXBPKyTx47yUePA4qJYCGF8i+PEodW9WvmfD3jPGq6eNpO3YoMls3/6xWx4G7N4WcBsFHV7t/NWZIQ4vsVx4kC0uFeYRNjapzebC0YVxnyNbVm/ahlsnP8Q7Hh7vroXoTdaNv1wp1rQgiPFgWhxr7CewkrQemCqSLxg0Lz91T+r1Xh6iuT0gZ28FR6MNwTf4lhxaHGvsAIPU9Gt5IY5d8dtQUJgNR6KZNs/nlT3J4zGm5HNW/ETSmLU42HGe9WCY8WBOMG9QtCCTLv7QTVNPREwkEZ3a9/nb0YsFIpFot+nldP7Wk4S0eNh9GEOWjFFHNUNAThc7wv7iEW472n9uPC710LHztGzRV999qmw39v6cTrGsf1+WQn7fVof+ecPhxmPzYdBYy7hPzF+8FgcPMKmefdm6JjujetBaw7xnxKZHPZ7DPe9Wh7pHv2mUnaaJ+y/0frRgT2MxpRKwBz2Zi/s1oH3zmT5I9ET2yb99mXeikztnu2w8ZXf8154+l32Q+g/+Rrea8/eZe/Dvi8ir3B16jcQht36AO8lRrMfT0FXWlwQ9gkZKwaIxnAWy1x10+2aS4VxV/7Fxx/mvfD0H3QBzHxoLu/Fx9J3X4fi99/kveS47YFH4ZzBQ3kvPMcb/fCHlfp4BK6rBGxN3tnnQ+/CK3gvPDjx66v28575+IMtwkBCBT7nXDVdTfBLBFzZeuGxhzXv52RmJx5PpCquEAeCVgGPxozG9vdf4C1zwRR0mbllbcHiHiwVTVQkVfv3aBZIrDR5QXtcIw5vZjac/6PbeS88DUcOqO6TmeAF+bFS0EMiwVJRdG3iIR6BxMLX1MhbAsTDn9txzo9m3UYkktxR2BwM1rrnpPPemUTz85FocUJbMvO7QLC5EU4fjOyLokC6Dh2jnlTemtq92+HU3sh7Cpl5BdBjeHzBdEsNuPaipayCHjD12quh//lD1XSS2ppj/CvRqT9VC0G/HwZeNIKPhGfdiqXQHEUA+HNw9c+bFv5vFY38Lt1g8MhCGHHJ5TEf61dFPxIV/5/8rt14LzyNARlK9p/kvaQ5evDjlxbw9je4xnKEiOVeoXi+ev9F3jMSCj4mjERqwDEYxcB46p0PaMrRQko/+zhinUiIPDaBYxHrZ0Qiv2t39XVreTgF14lDi3uFFuLg6s94zxhaLshPrgYcz+b62dynYNiEy/hIdIrfi3zuFqJlYlZFqVJMNVwnDkTr6lXTSW1uS7wEMQDX6XAEXKr9yey7NAlkz/Yvo2b39tQQlGMSpKAFV4oDide9QoujBxiABwwodUWBaAnWo01uTZaDBfiJulZuw7XiiNe9wuvEkkU9HMHAC/InxDgdEWlqqOet9qAVOn/4aN6LTMkn1qb72wXXigMx171iATizGEYdwoZgDBKLWJ/6F4wax1uR2b6+IuoJKamCq8WBaHGvdn3yOu8lTksAbkIReJLgMqmWFbBXn37C0mpKO+B6cWhxr2q2r4fj29fxXvwEFGddkI8CiUXt8Wr4+B/WZBTYBdeLA9HiXh3dUMJb8SGzADzIrIYZaAmUe/U7m7ciM+XHN2qyHpi/haW7qUpKiAPR4l7FC7pRgTYBOGbcqnfpGVA/Ufrph7wVGdyM08K1s+7kreikskBSRhxa3Kt4iRSA430XX77wu4RuSorEupXFmvYgBo8Yw1vRwWXd8d+5iveigwJ55uG7U26JN2XEgWhxr7SCyYTRAnCsZkMLgsVJ6t3dCZZ+YlCMdRLvPP8XPhIZ3AfRajmQ7990O/ToE/sAOgT3P7AeBJMcE9koxM1JTHH54z2z+Ij9cUWxUzyg+7R2/m/iLsVsXeyEJ6DjFQHhQLcK677Dkd39LMgfNFy9Qw9vNwp3Fu01g7vDieqjcOTAPtiydrU6EbWuGmkpEmoL/uzn5z7E/r29fEQbuGeCV8H16j9AfQ5H1f697L0cgb3bt6ji0opdip1SThyIlsrBtoTEEel+vhDRxBEOFIyHH2yAF0smWj+NLhJagkRIVCBGISoBLSRR90oNwHVemcITRvAABXwkKgx0jRIVBoJWALOAteyepxIpKQ4k1upVOIzeAU8EnNCJ1n23BgVy890Pwfen3sZHrMMuJb0pK454V69aTkG3lzAuv+YGdULjxNaL8f/9A7j3yYVxVyQmS0ZWtvp+8N+2S0lvyooDicu90qiLnB591euIjbz4BdPXcRLhZp4R4IoXWiP0/Y0WieoSMmv1y3nPq+8nntU2o0nJgLw1Wlev8EIXPDEkHvASfQzQG48cSOoYHgTdpwFDLlL3McyeQLgMi6tmlSuW6hK043vBBEhc5Ur0vaTEahWuHEUDP92tQmHmwu/TL85AoagrUrU10HB0/zcHOwd9jd8cxVmQ3VK/jas1WTkdoEffs9WUED1dp2TAlS3cDMSKwRNY5368JaMZc7Gw5h3do57sNYfA+AHdpLMHXwj5XbrqJuyUEIddQTn4fAHdhKEV3OewWWhjS8RSroWoO+AmC0NgL4Q4wmD0BfkCZyDE0QajL8gXOAchjlbgXobRF+QLnIMQBwfjC79fCEPwLaaIA89xsjtqDbgNAvCIy4eCM2g08JSXECaJw96rPnjOlAjAnUVT0Pi/lynikJk27LosqgbgQhiOoylCPY2emBZz2NF6iADcuZz2Gf93M00cPhPMYDyIANzZHGvw85ZxmCaOepOOr9EGWgx7BOCCxDhc18xbxhFRHFQiuv7rDSasLmglwKyYCMCdzZF6XS1H2Lke2XJQWstbulBvE3GIHXDns7+2Sb36WkdO8ecziCwOBXQVBy69BS1ONxUBuDv46ri+Z/gSQuITB5WobheuhTjZFOAtaxDCcAdfHY98zUIi0AheUkRxKDJJ7BSyKNRYKA6fekG+CMCdTm1zAPaf0jcYZ7MirCGI7FYRqrs4TjUHLXGt1B3wJO/nE9iDioNhPaDkoPRr3jqDyG5VkFbypm6gLMx2rcQOuHtAy19xWH9xUI93M2+eQURxrLh9zHpFUXTfaaluMK/0VMsF+QLnsLOmAWoN+HCVTisbefMMIrtVDCbUHbypG6eZ71/nM34pFT9ljLyfT2A+K/bpvkaE82RP2S/Gh70vIqo4gJJNvKUrh0/7eMs47Hg6oSBxDtU1w06dl3BVCEQ8Mj665QBlLW/qyilfEBoMTCdBV0qsTLmLJbuOG/JRx6ZJMW+2I7rlkDwRvzFZDhiUG6PnBfkCe4A74luq9d3bCEElz+e82Y6o4lg2bcTGoCLv511dqW0OQq3OaccoCiMuyBdYy4fbj/KWvjDv4uCaWYURLw6JbjkQBT7mLd3Ze7JJPVVQD0RqiDvZcKRO902/VvyHP4clpjhkQg27b7dZVuCoDtmVojbDnQSYJ/Dvr1qOGzUCIsE7vBmWmOJYMX3MekVWDLvy52CdL8kMS1Gb4VaWfF2jposYAXOpqlbPmvAp74YltlvFkEExzLWSmTu0i7lXiU5uUZvhTrCYafneE7xnAJS8yFsR0SQORZb/QqlxMxCXdqsScK9EbYY7kRUKb31ZpcaRRhGQ5Od5MyKaxLHi1nE7KSURl7z04AALuuLZ+xABuHtZurvG0I1iqsDSytmXxFyF1SQOxBeQH+dNQ8DPiK9PNKpuVixaAnBra0MExrDtWD0s3aV7QvgZUCCP8mZUNItj1W1jljNzt553DQGrBWPHHxR8fgzABW4Dg+/XNx029G/LAvGy8jnjvuDdqGgWB8I8/Cd50zBONAXgUBSTqq5MidoM14HLtn/fcAiaDT7CiVLpAd6MSVzi+GLa2FcVWdnHu4aBy7snm9vHEyI1xJ1gHtwbm6rUuNNI2L+zSqvVQOISBxIkwbt401B2svij9XmoMrMWIjXEnXyy8zhsPnqa94xDlujPeFMTcYtj+bTC92VZ0ay+RMHVqK0sOMMNQkwxCYjaDFeyvqoOlu2JfpOvHrD59FrFrIkbeFcTcYsDCfi8t1KFGv4xHlCYQI43QBOLQ8QOuPvYdKQO3txcxXvGwdwpXwDS47snm5GQOFbOGrZHVozLuWrNyfpm2FJ9GpgY+YjADeDxOq+xOMPIjb5vIfPWFY2OW4UJiQPxSt57WRxgqD3EZELmwkGdLwg7ahr5qMDp4KFsi9cfMkUY7N84VBfMncu7cZGwOD6fNqxBpuQmqhjzkR4MymfsgOO909tZDGLKB43AMPCQhEXrD6ousxkQQqZu/enQhCqlEhYHsnzayE/YZH2Jd3UD9dbMvMS21DQGVHMsBOJMvjx6Gl5ed9C8u1ooXVg2e/xy3oubpMSBLN09chaLP3bzbtLgmndTc+QkRCEQZ7LpyGlYvOGQacJg82i/n2Tcw7sJkbQ44LdECQaVa5hvp0umWHNzQBVINFAgO4w4iUJgCOUHa+HVjYd4zyQImVY5e1RSgWry4mCsuHX0ZjkAD/Juwvj8Ac074BiDbDlar6Y3C+wL1mS8s+WIqQvx7LP1l8m4UyF0EQfyxa0j/8wm9ru8GzcYgAfiPK4HE9VwZ9VvcD6OIDH+taMa/vVVNe+ZA1Xou2VF4//Iu0mhmziQ4syR1yuysoV3NYOVfOECcC3gjVEbmT/bZOA5WIL4wKyGResPwfI9BlbyhYFZjO3QSG7i3aTRVRxwPZH9Er2CxQya9z9wc68pyTph/GNgwFcXJllRYC54UPiza/arG7dmwubcaVny/DDS0Z6JoK84GCtvHl3FrMdPNKWX4MqUzx8zANcCroLgUmGVCUeNCsKDh689vXqvenSnmbD5EyAAV1XMGqvr2c66iwMpnjF6GYs/fsm7EWn2B9U9Db3An7T7RKO6kmXQ3qQgAmsO1sKzFfuh0RL3lsxcXTRhBe/ohiHiQJbNGD1PVuQneLcduPuNQbgR4B3VIlA3B1wtfHvLEfVhxcohsxpzWQC+iHd1hVkjY5m8qOJ5r8dzO++qYL5UtI0+vUiTCAzq2gE6ZXr5iP350eDu4BSjV9Poh9c3VcH+U7q5+XFBgb5ZNnvC/+Nd3THMcoRYNn30TDmofMC7EVNDjADzd7YwC3LI4AqzVGRDVR08VbrXOmFQ+llZ/vipvGsIhosDKZ4x6hpFpsUYeKPF0CMA1wr+S3tZoLitWmwY6kEzc4Vf3XQYXmMPH/MArIBNn4rjvq5X4+ooHzIEU8SBLJ0+cgoTxr/MFEZr8OAG/LQT+yGJs7e2UbUWG9nv0SrY/NnalJH1na/vHGj4sqRp4kBKZo67Cv1E3jUdPNliQ9VpOFovlnvjAesu8KC1BWv2qx8yVsGEsUvy0is23jI87L3hemN4QB6OwgWrXidEMiyQ0kJeZhqcV5AN6V5TPx9iYreAXA26N7Ogm7mmVsKEsbM5LWvChttGGHfsehssmRllRRNvZO92Me9aAuZlrWPuQbUOVyC4lW+CbuuFsRU8pNBMYSCWWI4QhQtKniOEzORdy0ArMrBLDqR5LP11qNjBcmBc9u62o5bGFiGYMDYFSMallbNHGXA7f3Qsnw3jFpbMYy/DlLOwouGVCJydnw3dOqTzEWuwWhx49957W4+odftWw4RR3pSRfaVZMUZbrP+oZBQuKL2P/Sp+z6yI5a+nc1YanNs5G9IsikWsEgeecP/2l0dMTxiMBBPGsowM//eW3zLZsk0qW4gDGfNsyXXsw/s1po80PmQZuLM+oCAHCrLNfylWiKPy8Cn4+KtqNf3fDmBNRsYR/w3LfzvZUvNlG3Eg4xaUXEoJfEiAdOJDlpKb4YVzC7IhK83DR4zHTHGg64SXxNip5FgBuqh89oQZvGspthIHMvq58oEeJbiUWZCz+JCl4C+oZ24m9OmUqcYlRmOWOFYfqIVPdlSfcR6xlTA3igIlD5XNGW/oPTDxYDtxIKOfKe/h8QY/ZQK5iA9ZDrpa/U0I2I0WB+5yf7Ct2vSai2gwXTDTRW4sKxr/ER+yBbYUBzLp5WWZvub0V4lEfsyHbEFHdLVYwJ6dboyrZZQ4TjT5YemuGqg4ZPqKaFSYMA7Lkvc7FbPGxl1ebTS2FUeIsQtKfiURErEuxApCrlZf5mp5dHa19BYH7lks23MCVu47YbvESyaMcqLA1av//wRzT2HQiO3FgYxZUDZZAvld5mbl8SFbkO6RoF9elq6ull7iwHyoMhZXfPr1cVsmW2KOXQAybq6cPcq6ZK0YOEIcyMiFK/umUenfTCAX8CHbgKtZKBI9ln71EMfW6nr1WBysiLQbzFowpZJ7WXzxFB+yLY4RB1L4ZGkW5MBiQuA6PmQrOrA4pC8TSX5W4iJJRhx4evnnu45bngsVCWYtTikEfrxm1oRiPmRrHCWOEIULSovYr3oesyKZfMhW4P4IWpLcBMpzExHHgVNNzFIcUw+XsCvMYlQqkueaNbMKD/Ih2+NIcSBjni0bIhH5QyaQAXzIdmBCY7/8LNWiaCUeceCRqBhT2CFBMBJMFOzdkD9nVPnut3rHO14cKw4E3SyaQ1+RCLmeD9mSbjnpqiXRUjuiRRxYY1G8u0ZN+0g2PjESpouTlEo3lM8Z9zkfchSOFkeIcQtLbmVv5UXetSVMwNA7NwN6dsyMmhofTRz1/iAs2VWjrkKZcStSMlCqFCuSd7qT3Ki2uEIcSOHzpeeCDG+xOTicD9mWgux0JpKMsEcGhRNHAxPFin0noXT/SfDZ/CwuZi1Y4EPuLysa/1c+5FhcIw5k0iPLvL6e6f/LmvezWMS8bMEECRe4txYHnju7igkCTxO0uygQDLoloDeUFk3cxYccjavEEWL0glXjPEDeYALpy4dsTevAHcWBBUclTBROuqCHuXn3lxdN+D3vugJXigMZ8syXHXK9dU8zN4vFI84ARYIu164TzhEFsxZbFOq5fs2cwq18yDW4Vhwhxj1XchVV6IuESN34kEAnmDDmlhVNeJh3XYfrxYFMnL8yX5akp/CeOD4kSAImij0UpBvLi8aV8yFXkhLiCFG4oPRK9qd9hcUi3fmQIE4ohfkBkn5fspdROoGUEgdy8cvr8zL9jU9JQKbzIYEGmLU4okgw1Sl5UXqQcuIIgVaEAn1BIqQ3HxJEgAL8rSk962GrjsixipQVB3LR4g05OU0NjzJX4efM1bLXuaA2QKG0hFLPLDeuRGkhpcURYvSCVaM8AC8zfQzlQykNc6EOKBTuWTNnwtt8KCUR4gjxFvWMPVl6H6HwCLMitkyFNxomCjx+/k8ZGf5HrTxMzS4IcbRh3Asl/WgQnmQCuZYPpQRUgaWKR5q5ZlbhHj6U8ghxREA9YA7gWSaSIXzIlTBrUQUSuaNs1vj3+JCAI8QRjUeoNLZHyW2EwKNu22FnogiyP/9TAZL+SCrsWSSCEIcGxjxdlitlBH/HBPJzPuRoKIVSWfLMsuNZUXZCiCMORv1tTR+PJ/Anu1ceRkKhdB1Q6dflc8b9mw8JoiDEkQBjnisrlBTlL8zdGs2HbA1zobZRkB4uLxr3Lh8SaECIIwnGPVtyIyXwBxa02+LQ67ZQqlQzS/Fg2Zzxti4htitCHDrARHIvleBhu1ydwCwFlqrOhQaYV/aL8fY8xMoBCHHoxOi/lhd40uXfspk5m1mS+A+s0gEmCiywXUQU+JVdz591EkIcOqMe9KDQR5gVuYkPmQLTRTn1eO4on1lYyYcESSLEYRCj5q8a5JWkR9i0vYFZEsOSGhVKl1DwPLamqHAZHxLohBCHwYx9fvVgSVbu17sKkQXb/5IB/reiaOJaPiTQGSEOkyh8trQ3kei9LCqYySxJDh+OG6rACpDgN2Wzxy/nQwKDEOIwmZEL13bygm8OoXAvE0kBH44Kiyfq2dPfqUf6a/nMcdtaRgVGI8RhEXjOL8mmd1CiHkAXViRMFDWU0HlByHymcvYoe91XlgIIcVjM+BdWdVSC0n1MCj9jIlFvrmKiwFqKl5sysh9MtdJUOyHEYSPGLlz9XQmUnsRD/1l6+8TTfFggEAgEAoFAIBAIBAKBQCAQpDgA/wfbZyAJFoDeOwAAAABJRU5ErkJggg==;" parent="1" vertex="1">
                    <mxGeometry x="655.746748046875" y="660.5" width="55" height="73" as="geometry"/>
                </mxCell>
                <mxCell id="jAgd3h_OqQaY9aVYYnGA-4" value="Jumpbox" style="verticalLabelPosition=bottom;html=1;verticalAlign=top;align=center;strokeColor=none;fillColor=#00BEF2;shape=mxgraph.azure.virtual_machine;" parent="1" vertex="1">
                    <mxGeometry x="863.25" y="724.5" width="100" height="74" as="geometry"/>
                </mxCell>
                <mxCell id="jAgd3h_OqQaY9aVYYnGA-5" value="" style="endArrow=classic;html=1;strokeColor=#3399FF;strokeWidth=2;fontColor=#000000;entryX=0;entryY=0.5;entryDx=0;entryDy=0;entryPerimeter=0;endFill=1;startArrow=none;startFill=0;jumpSize=8;endSize=6;startSize=12;" parent="1" source="jAgd3h_OqQaY9aVYYnGA-8" target="jAgd3h_OqQaY9aVYYnGA-4" edge="1">
                    <mxGeometry width="50" height="50" relative="1" as="geometry">
                        <mxPoint x="579.5800000000004" y="761" as="sourcePoint"/>
                        <mxPoint x="826.75" y="761" as="targetPoint"/>
                    </mxGeometry>
                </mxCell>
                <mxCell id="jAgd3h_OqQaY9aVYYnGA-6" value="DevOps" style="text;html=1;align=center;verticalAlign=middle;resizable=0;points=[];labelBackgroundColor=#ffffff;fontSize=14;" parent="jAgd3h_OqQaY9aVYYnGA-5" vertex="1" connectable="0">
                    <mxGeometry x="-0.3192" relative="1" as="geometry">
                        <mxPoint y="9" as="offset"/>
                    </mxGeometry>
                </mxCell>
                <mxCell id="jAgd3h_OqQaY9aVYYnGA-8" value="Maintenance&lt;br&gt;Team" style="pointerEvents=1;shadow=0;dashed=0;html=1;strokeColor=none;fillColor=#505050;labelPosition=center;verticalLabelPosition=bottom;verticalAlign=top;outlineConnect=0;align=center;shape=mxgraph.office.users.on_premises_user;fontSize=14;aspect=fixed;" parent="1" vertex="1">
                    <mxGeometry x="70" y="706" width="92.19" height="111" as="geometry"/>
                </mxCell>
                <mxCell id="jAgd3h_OqQaY9aVYYnGA-13" value="NGINX&#10;Ingress Controller" style="shape=image;imageAspect=0;aspect=fixed;verticalLabelPosition=bottom;verticalAlign=top;image=data:image/png,iVBORw0KGgoAAAANSUhEUgAAAOEAAADhCAMAAAAJbSJIAAAAjVBMVEX///8AeNcAdNYAcdUAdtcAb9UAbdQAc9YAbNTf7fmnxu33+/5Lj91KlN/s9fwdg9p4rOUAadTH3PTW5vcuhtp1quVcnOHz+P0lgtqxzu/N4PXm8Po6i9xdneG20fDb6fiRuum/1/KawOtnouKOteeMuOlupeOixOwAfNh+sOZXlt8AYNKYv+uuye250PBO5JRoAAAOrklEQVR4nO2de3+qOBPHwYSAtd5ttWqrtp4j9Wn3/b+8hySokOsEgsJ+dv7Ys1WCfP0lM7lMYhD8Z/5ssP7dH4/702zz6CdpxPqf24QgZlGSTtaPfh7fNj8ThMObxWT89uhn8mnLr6SIxwyTxb9Hx0MvFvkYY/Ln0U/myfZTFR+16PnRz+bFJkQHmDXH8eDRj1ffTIBh2Os+4osR8F+AOInMgJ1HNFfRHHHVYUS7gh1XEaJgp1V8ASnYYRWhCnYW0QWwk4hugB1EtAX6ziPCwkSHEV2raI7YnaBhUBAz67qKagVxjAhJt+f31/M2TQiKFZwdUVGlIEbRePLRv120+/heICRBdgJRoWCcPD8pJhBHT9sEdQ9RDhMITfq6q0d/sMDY+rYoKdhLvkeF9ze7Xb/4dzD4iVGXECVAcmbVc3BYzt++h2FCEkJI0hvuZzeO7/JUY6srquhkMPqgLw8+nkbP06L3xIjg149LsfmiJGOLVRQVRFtaIQef7L+p6DhxhK4V+Jh0QkVRQTKhr37g6Q/9d6OYFUboOy87K0WOlqooKpiwhQmqTsTa4lzVEUDpjJfepK1HFEf0iK1KMGy8YFccyohZJyfKvM7/Xnj55arliKKC0Tx7cbTlLgSx+hp8XltbDyW98/fvYb3bbGZz3hqXZRXb1hYlQKrgOro8M6+xwYQBY4Tef4udgA33qpte8Q4tU1Fqg/SZNwUHSebsumGcdeG2b0uheJ9/AeuktYhiVy3a01ffilEu5lVxFb2ounD9A/vns9SWW1RRxTDRG7KXf4rxAfPH3YzUtxhxWZ/LvZu2qCh11RDH+APqqcx/v1/HOP9SNqV62hZEaTwYPfE3yoThVF7xHfy+hnQsnClHPtkrR6EbvmgBojRc4tEv8yyn0tOSH7Hk7Csq9GQIH0EKN2uBivLUPaG9lM+M8FB8ixyEgqeUlKMDr6ento0X5RE9pmvzgyRriv3bexgJeRenUBzdhwm/pGWjfsXELxNrklDfmF4B8a5cbqXoo2KetnBsFaJyVi17fUmYO/2bV0PcE2dpNqFipo33CvrSPR9YUVVT92ifvbGP2XAi72rjsBgED+yPkQKx95dd8NyeGTjlxC+hXZY01yMbP9BQUAT8k6SsUzOSRsTZt8OuEH3N41RULr6wULEmIWI9zc/x5HuYFgCXz1E2tmdDwqWMGDF/K0T9xyGqV3jjY/bWd9a/nqjKrEPWMskv/WO56omFeaFUcd8HhH7N4gvTh45lU0WZ/UWdZE//HCyEiQ28Ypf9FckfoqJujZ7GwSUFSaQhxGB4K0O4UxkKTY53aJ/khnh/FfXLZ9mbM0pynWO62C4sSoN4D2aSIJLcMk8JC/pr9bd3VxW1K7z4HOTOkDwJgMIyTMxd6tPnbtQ/nPP7IdZAN5r6ccegoVeQhbTM0XDUokkzbTgqJAm/8XdZMA0GqnZ4V0TDGj2iI6Sv3nXWomBjKTiQwrdwYE7I4Ew54n0qqmmNHp2yC4aURSr2IimTTzJyo1/LpVez0t7/LojGNXrWkDJCvJXKHaU5b14nc2ONr/fF/n+hWwa/C6I5y+JKKKc3f8uEJWdEsXJCuULfEdGSZcEe+jV7wJVUcig9dlwKKGcMqKXNI9qS8RCdqpjE18momy3lMI7HxQtoRyhnNn9Go4jWPBn2iHsk1sBAmpZiRgoD/zVN6I/ZdNTSUEkbRrSnU7KG9EFhxH5pqiAsiXjK4gVfUN3YvsfG4iIg04kFgB29Dh2F0j+KXRfxNn/UUfbvGmEeRWePyg0HJeMReiXzmlNxcm0eymukGB13y+X8ZYozttFiyma+FUNgCbEJFWHJeIROOb3T6C35mmDwqpr1IAiROJ9O5VOqX7peWxHR/0gDmIzHPAxdkrl1TEe/14f5RfqHj7a7gHse0Ad5r6jQdMree8AjQ+5M52GKonB2pR0S3IswRiq/Q47M0exg36VnFeHplJhe/trjM1JB8MlQCpvUDuHXjiZ89eSQgHln9sfeDDmiTxXhWfd8GmNNwh4v+c6rJdqKM6ajlYTIuu3GXqmA6E9Fp6x71rVcxHnH9DIQwtFJRJQ9K3t9p5hq032WLxXdcrYT+qmzKc+wGN0el3qSkn0KtTFfu1HOQ+kQ/ajomNLMuqbBlre84pQLJn9L6/fLKSo2RvTKX4VLGHpS0T3rnpbq71nh8rRZnJRGE7vT1wKRiG3vJlEewyfKDbV6xPqh3z3rnjsM7krFYe9UnNwY7A7/PD39888sl1c3C6VHrFtR3RXMEG+fKTYqPngw2NmhFeaI9SqqQ5goEN7qojjsLU3NKOyjwhdaS8UqCmaWXOuiNLAvLHaLaUP0JWcFGWJ1FSspmBlOLx95lsP6BXEZ49efw7z0cM+VCKurWG3nC/vIYX6Lv7JnJF8sLp6yThqmyYlhurpkYH4D+2vy51XzqFUVpIb4pFk+0Ss8Dkm/zoWud7TNx1lPTqGwfM8qKtYBzB479zZz5YERhUiPp5eVxrfKVSashFjRyVwtyROEBopDPwoWrS6zUU/asyVA5lxR6ylIjVxC32xMNIwY9a5Tcvua36irinUVpHYbFB6eE3mLEz2i5tfnBzoFjfoKUssXeqn1/4yz/ud1Wx7dx5ZOCj04cTG4kjmo6ENBamhbiOqbj+N5RRJq6fPkrZQFPXbrbusMrKIfBalh9Cvce7AcSU/xE0FH9TYDquhLQWZkKy2Vlm35KefwVTeQiv4UZIbJcGb6uHO9ICEaQEXPgLSm7owf+OpRwhCA6B9QyktsGtFcURsA1O4ffYiKXp0MNYwhBwjeT0X/CmK7gvdUsQEFYYD3UvEBTua+Kj7EydxTRf+Asdsppe8Nq1h7eCaam4JNqFieuPzw23eCholGVYyLeVkjv/euomADKhaTeN/9jM+uVkXBBhCTa59/XX0aT2nwONgsIr6mLclJdfVuXBnQN2K+bq7YaVTLqlZRbp7dDb/p3m/VqORkGlIxXwgCJz9AzDXQN4vI0nuCgU8/A1dQs6nbNyK9oWYDRyXTdrYHYh5fsNMvlhoR3SocS1xSb8LR2sL06VovuhDTaYL+dKi60IaIZk6Py7bDuTka/NrXXq8fLi0SMWc48+BxBUQ0D5waFYsX8jYBI+EwmGs+Xq/gNpayommMckfMAN3cBtvx4EyoQdQ7mW0s532zKBzrz2RXItIjYdwI2X5Ix1pKv3cVoj7Qb2NFZjvvZyAnFRGdP3fUkBICko5FQsWJSEYFtYROiDwLvEIttSeOy4SSinonwwC1hCECV1TEV0AcCekGOdXOYiuhoKJFQQMhWMXLbjg3Qr6lQ7sZzkRYUtHcBs2EJhUL3XB0WcNyI2S5oG7pgFfCAqKtipoJQSpeAd0I8z10a5fR043wimhX0Exob4vF9SsnQpSnS7gMLgqEOaIp0N8+ykRoVREVllmdCPNDb4JfB29aJAzmERDQQmhWsbwC6UKIXy+lTFsaTYSZipAqaic0IpLSEqsL4S1J0mEqqkyYIUIUtBOaEMtryA6E8detGDwrEOubjAHQTmhCrExYTGHdQiMGkFC8n50QiggnFHbPLYDJqzBC6QsDEIZI3gBeh5DshYJjGCKIUK4REEKYilDC6EUqCUOEECqqPIgQpCKQkEiA9LgYCCKAUNWmYYQQFWGEsoKsLERFO6HSaQEJw9iqIoiQKI84gqloJVR7ZSihaWIDThhpAEEq2gg1YQdMaG2LAEKdgqy4VUULoS6uwgltFdVOSMTjjcrlbSqaCbUdBwdCS0W1EpoB7SqaCAf6npELYTF92p2QWH8Y04JoIlzr8x2cNDRWUwuhTUF2C2NFNdZS/WzBvdoh7KdNjSqa2+FM99hwQltENBLaq2h+E4OKFl+qQ4THQ1vINxHys/xAiHoVbfFQM798lz6NOJow3karorVPM1M+AZDQDmgghCvI7qNT0d4vVaoIIwQA6gnlw6YtN9KoCBhbqFQEEUIAtYRuCrI7qVWEjA8V7gZCCALUESaOCuoRQWN8GRFACAPUEFYB1FRU2DyNhGgnBAKqCRMpEQJ4M4WKwLk2EdFKCAVUEhLbQQb6u8kqQudLBXdjIwQDqgirKshuJ6kIJQzKeS8WQvBdM5MISQ1AhYp4OBiBbPDmsG6Bn+EmrrHUUZAhiiriCGilcrZaiuEmAkp3dkYEThWbzWkE7GJ1FWSI0Al/kzVFWF9BX4gNEfoB9FJRmyFMxI3U1RFrq9gIoT9ADyo2QZi8qR61MmJNFRsgJF4Ba6von9CvggyxloreCX0ryBDrqOib0L+CDLGGip4Jkw/VAz4U0S9hU4ABPGOjWcIGAaur6JOQNAhYHdEjYSJtv2kFoj/CpgGrInojbB6wIqIvwnsAVkP0RHgfwKBK0PBDmBgPZPJp7ip6IbwfYGBRUTFBFsmEiX0eTQBcq56kKTOquBhLlkrD8X4oX7Uw/cIMuaeCZsS4sjsYGbbv3FdBagbEqkObvuLnBC4W3R2wAcS+oR2SBwB6RzQBij8nfC/zirhpnYLM9IhTR0RjG7ScLtmkGVR0myratMzJFMyPikYn80AFqXlpi0Yn82BAL4imNvh4QA+I7VaQWk3EtitIrRaiUUHz8bV3NFPQsEz9GcKE7Xze+5ohaBgRDQq2C7Cqip1RkFoVFQ1OBms3GD/MKnTgTArWPBOtETN5VKWKhtEEjlsI6Bw0TArWOJewUXNS0aRgG6soNwdEk5OpdfBiwwYOGkYFWwwYQIOGCbDNClIDqdhlwACiYscB7SqaAMMOAFo96kZ/fGVHAC2Io84rSM20bJMaAPWntrbOqiyEdwqwCmLHAAPntX6cdg3QUcUOAgZOKuJU8bur7Te4injVSUCKCDtBrNdNBanBEHtdVZAapKJ2GhCC6OHX0R9rNsSOK8jM2BY7ryC1wbP+2Mm43k+/t8a+dEdZQM+7bL+dlL/rjGEHAnXDNkOJEZPFY7NIfNtsQYoeJybjRnYuPdTmkzSJELUoSb//XfpdbXM47Y/706yLI6UW2/8BOs30yJ3R52IAAAAASUVORK5CYII=;imageBackground=none;" parent="1" vertex="1">
                    <mxGeometry x="680" y="386.63" width="60.75" height="60.75" as="geometry"/>
                </mxCell>
                <mxCell id="jAgd3h_OqQaY9aVYYnGA-14" value="" style="edgeStyle=orthogonalEdgeStyle;rounded=0;orthogonalLoop=1;jettySize=auto;html=1;endArrow=classic;endFill=1;entryX=0;entryY=0.75;entryDx=0;entryDy=0;strokeWidth=2;strokeColor=#3399FF;" parent="1" source="jAgd3h_OqQaY9aVYYnGA-13" edge="1">
                    <mxGeometry relative="1" as="geometry">
                        <mxPoint x="740" y="416.63" as="sourcePoint"/>
                        <mxPoint x="840.75" y="416.88" as="targetPoint"/>
                    </mxGeometry>
                </mxCell>
                <mxCell id="2" value="Private Endpoint&amp;nbsp;" style="aspect=fixed;html=1;points=[];align=center;image;fontSize=12;image=img/lib/azure2/networking/Private_Link.svg;" parent="1" vertex="1">
                    <mxGeometry x="1100" y="518" width="43.64" height="40" as="geometry"/>
                </mxCell>
                <mxCell id="3" value="" style="endArrow=classic;html=1;strokeColor=#3399FF;strokeWidth=2;fontColor=#000000;endFill=1;startArrow=none;startFill=0;jumpSize=8;endSize=6;startSize=6;" parent="1" target="2" edge="1">
                    <mxGeometry width="50" height="50" relative="1" as="geometry">
                        <mxPoint x="986" y="538" as="sourcePoint"/>
                        <mxPoint x="1270" y="537.9063574977704" as="targetPoint"/>
                    </mxGeometry>
                </mxCell>
                <mxCell id="5" value="" style="endArrow=classic;html=1;strokeColor=#3399FF;strokeWidth=2;fontColor=#000000;endFill=1;startArrow=none;startFill=0;jumpSize=8;endSize=6;startSize=6;" parent="1" source="6" edge="1">
                    <mxGeometry width="50" height="50" relative="1" as="geometry">
                        <mxPoint x="377.31600000000014" y="409.81999999999994" as="sourcePoint"/>
                        <mxPoint x="1269.75" y="450" as="targetPoint"/>
                    </mxGeometry>
                </mxCell>
                <mxCell id="6" value="Private Endpoint&amp;nbsp;" style="aspect=fixed;html=1;points=[];align=center;image;fontSize=12;image=img/lib/azure2/networking/Private_Link.svg;" parent="1" vertex="1">
                    <mxGeometry x="1099.75" y="430" width="43.64" height="40" as="geometry"/>
                </mxCell>
                <mxCell id="7" value="" style="endArrow=classic;html=1;strokeColor=#3399FF;strokeWidth=2;fontColor=#000000;endFill=1;startArrow=none;startFill=0;jumpSize=8;endSize=6;startSize=6;" parent="1" target="6" edge="1">
                    <mxGeometry width="50" height="50" relative="1" as="geometry">
                        <mxPoint x="985.75" y="450" as="sourcePoint"/>
                        <mxPoint x="1269.75" y="449.9063574977704" as="targetPoint"/>
                    </mxGeometry>
                </mxCell>
                <mxCell id="9" value="" style="endArrow=classic;html=1;strokeColor=#3399FF;strokeWidth=2;fontColor=#000000;endFill=1;startArrow=none;startFill=0;jumpSize=8;endSize=6;startSize=6;" parent="1" source="10" edge="1">
                    <mxGeometry width="50" height="50" relative="1" as="geometry">
                        <mxPoint x="377.56600000000014" y="247.31999999999994" as="sourcePoint"/>
                        <mxPoint x="1270" y="287.5" as="targetPoint"/>
                    </mxGeometry>
                </mxCell>
                <mxCell id="10" value="Private Endpoint&amp;nbsp;" style="aspect=fixed;html=1;points=[];align=center;image;fontSize=12;image=img/lib/azure2/networking/Private_Link.svg;" parent="1" vertex="1">
                    <mxGeometry x="1100" y="267.5" width="43.64" height="40" as="geometry"/>
                </mxCell>
                <mxCell id="11" value="" style="endArrow=classic;html=1;strokeColor=#3399FF;strokeWidth=2;fontColor=#000000;endFill=1;startArrow=none;startFill=0;jumpSize=8;endSize=6;startSize=6;" parent="1" target="10" edge="1">
                    <mxGeometry width="50" height="50" relative="1" as="geometry">
                        <mxPoint x="986" y="287.5" as="sourcePoint"/>
                        <mxPoint x="1270" y="287.4063574977704" as="targetPoint"/>
                    </mxGeometry>
                </mxCell>
                <mxCell id="13" value="" style="endArrow=classic;html=1;strokeColor=#3399FF;strokeWidth=2;fontColor=#000000;endFill=1;startArrow=none;startFill=0;jumpSize=8;endSize=6;startSize=6;" parent="1" source="14" edge="1">
                    <mxGeometry width="50" height="50" relative="1" as="geometry">
                        <mxPoint x="377.56600000000014" y="332.31999999999994" as="sourcePoint"/>
                        <mxPoint x="1270" y="372.5" as="targetPoint"/>
                    </mxGeometry>
                </mxCell>
                <mxCell id="14" value="Private Endpoint&amp;nbsp;" style="aspect=fixed;html=1;points=[];align=center;image;fontSize=12;image=img/lib/azure2/networking/Private_Link.svg;" parent="1" vertex="1">
                    <mxGeometry x="1100" y="352.5" width="43.64" height="40" as="geometry"/>
                </mxCell>
                <mxCell id="15" value="" style="endArrow=classic;html=1;strokeColor=#3399FF;strokeWidth=2;fontColor=#000000;endFill=1;startArrow=none;startFill=0;jumpSize=8;endSize=6;startSize=6;" parent="1" target="14" edge="1">
                    <mxGeometry width="50" height="50" relative="1" as="geometry">
                        <mxPoint x="986" y="372.5" as="sourcePoint"/>
                        <mxPoint x="1270" y="372.4063574977704" as="targetPoint"/>
                    </mxGeometry>
                </mxCell>
                <mxCell id="16" value="" style="aspect=fixed;html=1;points=[];align=center;image;fontSize=12;image=img/lib/azure2/networking/Firewalls.svg;" parent="1" vertex="1">
                    <mxGeometry x="1030" y="244.5" width="37" height="31.27" as="geometry"/>
                </mxCell>
                <mxCell id="17" value="Container Registry" style="aspect=fixed;html=1;points=[];align=center;image;fontSize=12;image=img/lib/azure2/containers/Kubernetes_Services.svg;" parent="1" vertex="1">
                    <mxGeometry x="1110" y="722" width="68" height="60" as="geometry"/>
                </mxCell>
                <mxCell id="18" value="Key Vault" style="aspect=fixed;html=1;points=[];align=center;image;fontSize=12;image=img/lib/azure2/security/Key_Vaults.svg;" parent="1" vertex="1">
                    <mxGeometry x="1274.25" y="261.75" width="51.5" height="51.5" as="geometry"/>
                </mxCell>
                <mxCell id="19" value="Redis Cache" style="aspect=fixed;html=1;points=[];align=center;image;fontSize=12;image=img/lib/azure2/databases/Cache_Redis.svg;" parent="1" vertex="1">
                    <mxGeometry x="1274" y="347" width="64" height="52" as="geometry"/>
                </mxCell>
                <mxCell id="20" value="Storage Account" style="aspect=fixed;html=1;points=[];align=center;image;fontSize=12;image=img/lib/azure2/storage/Storage_Accounts.svg;" parent="1" vertex="1">
                    <mxGeometry x="1274" y="430" width="65" height="52" as="geometry"/>
                </mxCell>
                <mxCell id="21" value="PostgreSQL" style="aspect=fixed;html=1;points=[];align=center;image;fontSize=12;image=img/lib/azure2/databases/SQL_Database.svg;" parent="1" vertex="1">
                    <mxGeometry x="1282" y="506" width="48" height="64" as="geometry"/>
                </mxCell>
                <mxCell id="22" value="Active Directory" style="aspect=fixed;html=1;points=[];align=center;image;fontSize=12;image=img/lib/azure2/identity/Azure_Active_Directory.svg;" parent="1" vertex="1">
                    <mxGeometry x="1230" y="718" width="70" height="64" as="geometry"/>
                </mxCell>
            </root>
        </mxGraphModel>
    </diagram>
</mxfile>